G04 #@! TF.GenerationSoftware,KiCad,Pcbnew,8.0.8*
G04 #@! TF.CreationDate,2025-03-20T18:17:03-07:00*
G04 #@! TF.ProjectId,Output Board,4f757470-7574-4204-926f-6172642e6b69,rev?*
G04 #@! TF.SameCoordinates,Original*
G04 #@! TF.FileFunction,Legend,Top*
G04 #@! TF.FilePolarity,Positive*
%FSLAX46Y46*%
G04 Gerber Fmt 4.6, Leading zero omitted, Abs format (unit mm)*
G04 Created by KiCad (PCBNEW 8.0.8) date 2025-03-20 18:17:03*
%MOMM*%
%LPD*%
G01*
G04 APERTURE LIST*
%ADD10C,0.200000*%
%ADD11C,0.150000*%
%ADD12C,0.100000*%
%ADD13C,0.300000*%
%ADD14C,0.000000*%
%ADD15C,0.508000*%
%ADD16C,2.604000*%
%ADD17C,1.350000*%
%ADD18C,3.000000*%
%ADD19C,1.447800*%
%ADD20R,1.447800X1.447800*%
%ADD21C,1.320800*%
G04 APERTURE END LIST*
D10*
X195494263Y-102143457D02*
X195494263Y-101243457D01*
X195494263Y-101672028D02*
X196008549Y-101672028D01*
X196008549Y-102143457D02*
X196008549Y-101243457D01*
X196951406Y-102143457D02*
X196651406Y-101714885D01*
X196437120Y-102143457D02*
X196437120Y-101243457D01*
X196437120Y-101243457D02*
X196779977Y-101243457D01*
X196779977Y-101243457D02*
X196865692Y-101286314D01*
X196865692Y-101286314D02*
X196908549Y-101329171D01*
X196908549Y-101329171D02*
X196951406Y-101414885D01*
X196951406Y-101414885D02*
X196951406Y-101543457D01*
X196951406Y-101543457D02*
X196908549Y-101629171D01*
X196908549Y-101629171D02*
X196865692Y-101672028D01*
X196865692Y-101672028D02*
X196779977Y-101714885D01*
X196779977Y-101714885D02*
X196437120Y-101714885D01*
X197765692Y-102143457D02*
X197337120Y-102143457D01*
X197337120Y-102143457D02*
X197337120Y-101243457D01*
X199179977Y-102143457D02*
X198751405Y-102143457D01*
X198751405Y-102143457D02*
X198751405Y-101243457D01*
X199865691Y-102143457D02*
X199865691Y-101672028D01*
X199865691Y-101672028D02*
X199822833Y-101586314D01*
X199822833Y-101586314D02*
X199737119Y-101543457D01*
X199737119Y-101543457D02*
X199565691Y-101543457D01*
X199565691Y-101543457D02*
X199479976Y-101586314D01*
X199865691Y-102100600D02*
X199779976Y-102143457D01*
X199779976Y-102143457D02*
X199565691Y-102143457D01*
X199565691Y-102143457D02*
X199479976Y-102100600D01*
X199479976Y-102100600D02*
X199437119Y-102014885D01*
X199437119Y-102014885D02*
X199437119Y-101929171D01*
X199437119Y-101929171D02*
X199479976Y-101843457D01*
X199479976Y-101843457D02*
X199565691Y-101800600D01*
X199565691Y-101800600D02*
X199779976Y-101800600D01*
X199779976Y-101800600D02*
X199865691Y-101757742D01*
X200294262Y-102143457D02*
X200294262Y-101243457D01*
X200294262Y-101586314D02*
X200379977Y-101543457D01*
X200379977Y-101543457D02*
X200551405Y-101543457D01*
X200551405Y-101543457D02*
X200637119Y-101586314D01*
X200637119Y-101586314D02*
X200679977Y-101629171D01*
X200679977Y-101629171D02*
X200722834Y-101714885D01*
X200722834Y-101714885D02*
X200722834Y-101972028D01*
X200722834Y-101972028D02*
X200679977Y-102057742D01*
X200679977Y-102057742D02*
X200637119Y-102100600D01*
X200637119Y-102100600D02*
X200551405Y-102143457D01*
X200551405Y-102143457D02*
X200379977Y-102143457D01*
X200379977Y-102143457D02*
X200294262Y-102100600D01*
X201237120Y-102143457D02*
X201151405Y-102100600D01*
X201151405Y-102100600D02*
X201108548Y-102057742D01*
X201108548Y-102057742D02*
X201065691Y-101972028D01*
X201065691Y-101972028D02*
X201065691Y-101714885D01*
X201065691Y-101714885D02*
X201108548Y-101629171D01*
X201108548Y-101629171D02*
X201151405Y-101586314D01*
X201151405Y-101586314D02*
X201237120Y-101543457D01*
X201237120Y-101543457D02*
X201365691Y-101543457D01*
X201365691Y-101543457D02*
X201451405Y-101586314D01*
X201451405Y-101586314D02*
X201494263Y-101629171D01*
X201494263Y-101629171D02*
X201537120Y-101714885D01*
X201537120Y-101714885D02*
X201537120Y-101972028D01*
X201537120Y-101972028D02*
X201494263Y-102057742D01*
X201494263Y-102057742D02*
X201451405Y-102100600D01*
X201451405Y-102100600D02*
X201365691Y-102143457D01*
X201365691Y-102143457D02*
X201237120Y-102143457D01*
X201922834Y-102143457D02*
X201922834Y-101543457D01*
X201922834Y-101714885D02*
X201965691Y-101629171D01*
X201965691Y-101629171D02*
X202008549Y-101586314D01*
X202008549Y-101586314D02*
X202094263Y-101543457D01*
X202094263Y-101543457D02*
X202179977Y-101543457D01*
X202865692Y-102143457D02*
X202865692Y-101672028D01*
X202865692Y-101672028D02*
X202822834Y-101586314D01*
X202822834Y-101586314D02*
X202737120Y-101543457D01*
X202737120Y-101543457D02*
X202565692Y-101543457D01*
X202565692Y-101543457D02*
X202479977Y-101586314D01*
X202865692Y-102100600D02*
X202779977Y-102143457D01*
X202779977Y-102143457D02*
X202565692Y-102143457D01*
X202565692Y-102143457D02*
X202479977Y-102100600D01*
X202479977Y-102100600D02*
X202437120Y-102014885D01*
X202437120Y-102014885D02*
X202437120Y-101929171D01*
X202437120Y-101929171D02*
X202479977Y-101843457D01*
X202479977Y-101843457D02*
X202565692Y-101800600D01*
X202565692Y-101800600D02*
X202779977Y-101800600D01*
X202779977Y-101800600D02*
X202865692Y-101757742D01*
X203165692Y-101543457D02*
X203508549Y-101543457D01*
X203294263Y-101243457D02*
X203294263Y-102014885D01*
X203294263Y-102014885D02*
X203337120Y-102100600D01*
X203337120Y-102100600D02*
X203422835Y-102143457D01*
X203422835Y-102143457D02*
X203508549Y-102143457D01*
X203937121Y-102143457D02*
X203851406Y-102100600D01*
X203851406Y-102100600D02*
X203808549Y-102057742D01*
X203808549Y-102057742D02*
X203765692Y-101972028D01*
X203765692Y-101972028D02*
X203765692Y-101714885D01*
X203765692Y-101714885D02*
X203808549Y-101629171D01*
X203808549Y-101629171D02*
X203851406Y-101586314D01*
X203851406Y-101586314D02*
X203937121Y-101543457D01*
X203937121Y-101543457D02*
X204065692Y-101543457D01*
X204065692Y-101543457D02*
X204151406Y-101586314D01*
X204151406Y-101586314D02*
X204194264Y-101629171D01*
X204194264Y-101629171D02*
X204237121Y-101714885D01*
X204237121Y-101714885D02*
X204237121Y-101972028D01*
X204237121Y-101972028D02*
X204194264Y-102057742D01*
X204194264Y-102057742D02*
X204151406Y-102100600D01*
X204151406Y-102100600D02*
X204065692Y-102143457D01*
X204065692Y-102143457D02*
X203937121Y-102143457D01*
X204622835Y-102143457D02*
X204622835Y-101543457D01*
X204622835Y-101714885D02*
X204665692Y-101629171D01*
X204665692Y-101629171D02*
X204708550Y-101586314D01*
X204708550Y-101586314D02*
X204794264Y-101543457D01*
X204794264Y-101543457D02*
X204879978Y-101543457D01*
X205179978Y-102143457D02*
X205179978Y-101543457D01*
X205179978Y-101243457D02*
X205137121Y-101286314D01*
X205137121Y-101286314D02*
X205179978Y-101329171D01*
X205179978Y-101329171D02*
X205222835Y-101286314D01*
X205222835Y-101286314D02*
X205179978Y-101243457D01*
X205179978Y-101243457D02*
X205179978Y-101329171D01*
X205951406Y-102100600D02*
X205865692Y-102143457D01*
X205865692Y-102143457D02*
X205694264Y-102143457D01*
X205694264Y-102143457D02*
X205608549Y-102100600D01*
X205608549Y-102100600D02*
X205565692Y-102014885D01*
X205565692Y-102014885D02*
X205565692Y-101672028D01*
X205565692Y-101672028D02*
X205608549Y-101586314D01*
X205608549Y-101586314D02*
X205694264Y-101543457D01*
X205694264Y-101543457D02*
X205865692Y-101543457D01*
X205865692Y-101543457D02*
X205951406Y-101586314D01*
X205951406Y-101586314D02*
X205994264Y-101672028D01*
X205994264Y-101672028D02*
X205994264Y-101757742D01*
X205994264Y-101757742D02*
X205565692Y-101843457D01*
X206337121Y-102100600D02*
X206422835Y-102143457D01*
X206422835Y-102143457D02*
X206594264Y-102143457D01*
X206594264Y-102143457D02*
X206679978Y-102100600D01*
X206679978Y-102100600D02*
X206722835Y-102014885D01*
X206722835Y-102014885D02*
X206722835Y-101972028D01*
X206722835Y-101972028D02*
X206679978Y-101886314D01*
X206679978Y-101886314D02*
X206594264Y-101843457D01*
X206594264Y-101843457D02*
X206465693Y-101843457D01*
X206465693Y-101843457D02*
X206379978Y-101800600D01*
X206379978Y-101800600D02*
X206337121Y-101714885D01*
X206337121Y-101714885D02*
X206337121Y-101672028D01*
X206337121Y-101672028D02*
X206379978Y-101586314D01*
X206379978Y-101586314D02*
X206465693Y-101543457D01*
X206465693Y-101543457D02*
X206594264Y-101543457D01*
X206594264Y-101543457D02*
X206679978Y-101586314D01*
X208308549Y-102057742D02*
X208265692Y-102100600D01*
X208265692Y-102100600D02*
X208137120Y-102143457D01*
X208137120Y-102143457D02*
X208051406Y-102143457D01*
X208051406Y-102143457D02*
X207922835Y-102100600D01*
X207922835Y-102100600D02*
X207837120Y-102014885D01*
X207837120Y-102014885D02*
X207794263Y-101929171D01*
X207794263Y-101929171D02*
X207751406Y-101757742D01*
X207751406Y-101757742D02*
X207751406Y-101629171D01*
X207751406Y-101629171D02*
X207794263Y-101457742D01*
X207794263Y-101457742D02*
X207837120Y-101372028D01*
X207837120Y-101372028D02*
X207922835Y-101286314D01*
X207922835Y-101286314D02*
X208051406Y-101243457D01*
X208051406Y-101243457D02*
X208137120Y-101243457D01*
X208137120Y-101243457D02*
X208265692Y-101286314D01*
X208265692Y-101286314D02*
X208308549Y-101329171D01*
X208822835Y-102143457D02*
X208737120Y-102100600D01*
X208737120Y-102100600D02*
X208694263Y-102014885D01*
X208694263Y-102014885D02*
X208694263Y-101243457D01*
X209165692Y-102143457D02*
X209165692Y-101543457D01*
X209165692Y-101243457D02*
X209122835Y-101286314D01*
X209122835Y-101286314D02*
X209165692Y-101329171D01*
X209165692Y-101329171D02*
X209208549Y-101286314D01*
X209208549Y-101286314D02*
X209165692Y-101243457D01*
X209165692Y-101243457D02*
X209165692Y-101329171D01*
X209594263Y-101543457D02*
X209594263Y-102143457D01*
X209594263Y-101629171D02*
X209637120Y-101586314D01*
X209637120Y-101586314D02*
X209722835Y-101543457D01*
X209722835Y-101543457D02*
X209851406Y-101543457D01*
X209851406Y-101543457D02*
X209937120Y-101586314D01*
X209937120Y-101586314D02*
X209979978Y-101672028D01*
X209979978Y-101672028D02*
X209979978Y-102143457D01*
X210408549Y-102143457D02*
X210408549Y-101543457D01*
X210408549Y-101243457D02*
X210365692Y-101286314D01*
X210365692Y-101286314D02*
X210408549Y-101329171D01*
X210408549Y-101329171D02*
X210451406Y-101286314D01*
X210451406Y-101286314D02*
X210408549Y-101243457D01*
X210408549Y-101243457D02*
X210408549Y-101329171D01*
X211222835Y-102100600D02*
X211137120Y-102143457D01*
X211137120Y-102143457D02*
X210965692Y-102143457D01*
X210965692Y-102143457D02*
X210879977Y-102100600D01*
X210879977Y-102100600D02*
X210837120Y-102057742D01*
X210837120Y-102057742D02*
X210794263Y-101972028D01*
X210794263Y-101972028D02*
X210794263Y-101714885D01*
X210794263Y-101714885D02*
X210837120Y-101629171D01*
X210837120Y-101629171D02*
X210879977Y-101586314D01*
X210879977Y-101586314D02*
X210965692Y-101543457D01*
X210965692Y-101543457D02*
X211137120Y-101543457D01*
X211137120Y-101543457D02*
X211222835Y-101586314D01*
X212165692Y-101243457D02*
X212679978Y-101243457D01*
X212422835Y-102143457D02*
X212422835Y-101243457D01*
X213322834Y-102100600D02*
X213237120Y-102143457D01*
X213237120Y-102143457D02*
X213065692Y-102143457D01*
X213065692Y-102143457D02*
X212979977Y-102100600D01*
X212979977Y-102100600D02*
X212937120Y-102014885D01*
X212937120Y-102014885D02*
X212937120Y-101672028D01*
X212937120Y-101672028D02*
X212979977Y-101586314D01*
X212979977Y-101586314D02*
X213065692Y-101543457D01*
X213065692Y-101543457D02*
X213237120Y-101543457D01*
X213237120Y-101543457D02*
X213322834Y-101586314D01*
X213322834Y-101586314D02*
X213365692Y-101672028D01*
X213365692Y-101672028D02*
X213365692Y-101757742D01*
X213365692Y-101757742D02*
X212937120Y-101843457D01*
X214137121Y-102143457D02*
X214137121Y-101672028D01*
X214137121Y-101672028D02*
X214094263Y-101586314D01*
X214094263Y-101586314D02*
X214008549Y-101543457D01*
X214008549Y-101543457D02*
X213837121Y-101543457D01*
X213837121Y-101543457D02*
X213751406Y-101586314D01*
X214137121Y-102100600D02*
X214051406Y-102143457D01*
X214051406Y-102143457D02*
X213837121Y-102143457D01*
X213837121Y-102143457D02*
X213751406Y-102100600D01*
X213751406Y-102100600D02*
X213708549Y-102014885D01*
X213708549Y-102014885D02*
X213708549Y-101929171D01*
X213708549Y-101929171D02*
X213751406Y-101843457D01*
X213751406Y-101843457D02*
X213837121Y-101800600D01*
X213837121Y-101800600D02*
X214051406Y-101800600D01*
X214051406Y-101800600D02*
X214137121Y-101757742D01*
X214565692Y-102143457D02*
X214565692Y-101543457D01*
X214565692Y-101629171D02*
X214608549Y-101586314D01*
X214608549Y-101586314D02*
X214694264Y-101543457D01*
X214694264Y-101543457D02*
X214822835Y-101543457D01*
X214822835Y-101543457D02*
X214908549Y-101586314D01*
X214908549Y-101586314D02*
X214951407Y-101672028D01*
X214951407Y-101672028D02*
X214951407Y-102143457D01*
X214951407Y-101672028D02*
X214994264Y-101586314D01*
X214994264Y-101586314D02*
X215079978Y-101543457D01*
X215079978Y-101543457D02*
X215208549Y-101543457D01*
X215208549Y-101543457D02*
X215294264Y-101586314D01*
X215294264Y-101586314D02*
X215337121Y-101672028D01*
X215337121Y-101672028D02*
X215337121Y-102143457D01*
D11*
X194304800Y-100841600D02*
X216304800Y-100841600D01*
D10*
X198186663Y-100263857D02*
X198186663Y-99363857D01*
X198186663Y-99792428D02*
X198700949Y-99792428D01*
X198700949Y-100263857D02*
X198700949Y-99363857D01*
X199515235Y-100263857D02*
X199515235Y-99792428D01*
X199515235Y-99792428D02*
X199472377Y-99706714D01*
X199472377Y-99706714D02*
X199386663Y-99663857D01*
X199386663Y-99663857D02*
X199215235Y-99663857D01*
X199215235Y-99663857D02*
X199129520Y-99706714D01*
X199515235Y-100221000D02*
X199429520Y-100263857D01*
X199429520Y-100263857D02*
X199215235Y-100263857D01*
X199215235Y-100263857D02*
X199129520Y-100221000D01*
X199129520Y-100221000D02*
X199086663Y-100135285D01*
X199086663Y-100135285D02*
X199086663Y-100049571D01*
X199086663Y-100049571D02*
X199129520Y-99963857D01*
X199129520Y-99963857D02*
X199215235Y-99921000D01*
X199215235Y-99921000D02*
X199429520Y-99921000D01*
X199429520Y-99921000D02*
X199515235Y-99878142D01*
X199943806Y-100263857D02*
X199943806Y-99663857D01*
X199943806Y-99835285D02*
X199986663Y-99749571D01*
X199986663Y-99749571D02*
X200029521Y-99706714D01*
X200029521Y-99706714D02*
X200115235Y-99663857D01*
X200115235Y-99663857D02*
X200200949Y-99663857D01*
X200415235Y-99663857D02*
X200629521Y-100263857D01*
X200629521Y-100263857D02*
X200843806Y-99663857D01*
X201529520Y-100221000D02*
X201443806Y-100263857D01*
X201443806Y-100263857D02*
X201272378Y-100263857D01*
X201272378Y-100263857D02*
X201186663Y-100221000D01*
X201186663Y-100221000D02*
X201143806Y-100135285D01*
X201143806Y-100135285D02*
X201143806Y-99792428D01*
X201143806Y-99792428D02*
X201186663Y-99706714D01*
X201186663Y-99706714D02*
X201272378Y-99663857D01*
X201272378Y-99663857D02*
X201443806Y-99663857D01*
X201443806Y-99663857D02*
X201529520Y-99706714D01*
X201529520Y-99706714D02*
X201572378Y-99792428D01*
X201572378Y-99792428D02*
X201572378Y-99878142D01*
X201572378Y-99878142D02*
X201143806Y-99963857D01*
X201872378Y-99663857D02*
X202086664Y-100263857D01*
X202300949Y-99663857D02*
X202086664Y-100263857D01*
X202086664Y-100263857D02*
X202000949Y-100478142D01*
X202000949Y-100478142D02*
X201958092Y-100521000D01*
X201958092Y-100521000D02*
X201872378Y-100563857D01*
X203329520Y-100263857D02*
X203329520Y-99363857D01*
X203329520Y-99363857D02*
X203629520Y-100006714D01*
X203629520Y-100006714D02*
X203929520Y-99363857D01*
X203929520Y-99363857D02*
X203929520Y-100263857D01*
X204743806Y-99663857D02*
X204743806Y-100263857D01*
X204358091Y-99663857D02*
X204358091Y-100135285D01*
X204358091Y-100135285D02*
X204400948Y-100221000D01*
X204400948Y-100221000D02*
X204486663Y-100263857D01*
X204486663Y-100263857D02*
X204615234Y-100263857D01*
X204615234Y-100263857D02*
X204700948Y-100221000D01*
X204700948Y-100221000D02*
X204743806Y-100178142D01*
X205558092Y-100263857D02*
X205558092Y-99363857D01*
X205558092Y-100221000D02*
X205472377Y-100263857D01*
X205472377Y-100263857D02*
X205300949Y-100263857D01*
X205300949Y-100263857D02*
X205215234Y-100221000D01*
X205215234Y-100221000D02*
X205172377Y-100178142D01*
X205172377Y-100178142D02*
X205129520Y-100092428D01*
X205129520Y-100092428D02*
X205129520Y-99835285D01*
X205129520Y-99835285D02*
X205172377Y-99749571D01*
X205172377Y-99749571D02*
X205215234Y-99706714D01*
X205215234Y-99706714D02*
X205300949Y-99663857D01*
X205300949Y-99663857D02*
X205472377Y-99663857D01*
X205472377Y-99663857D02*
X205558092Y-99706714D01*
X206372378Y-100263857D02*
X206372378Y-99363857D01*
X206372378Y-100221000D02*
X206286663Y-100263857D01*
X206286663Y-100263857D02*
X206115235Y-100263857D01*
X206115235Y-100263857D02*
X206029520Y-100221000D01*
X206029520Y-100221000D02*
X205986663Y-100178142D01*
X205986663Y-100178142D02*
X205943806Y-100092428D01*
X205943806Y-100092428D02*
X205943806Y-99835285D01*
X205943806Y-99835285D02*
X205986663Y-99749571D01*
X205986663Y-99749571D02*
X206029520Y-99706714D01*
X206029520Y-99706714D02*
X206115235Y-99663857D01*
X206115235Y-99663857D02*
X206286663Y-99663857D01*
X206286663Y-99663857D02*
X206372378Y-99706714D01*
X208000949Y-100178142D02*
X207958092Y-100221000D01*
X207958092Y-100221000D02*
X207829520Y-100263857D01*
X207829520Y-100263857D02*
X207743806Y-100263857D01*
X207743806Y-100263857D02*
X207615235Y-100221000D01*
X207615235Y-100221000D02*
X207529520Y-100135285D01*
X207529520Y-100135285D02*
X207486663Y-100049571D01*
X207486663Y-100049571D02*
X207443806Y-99878142D01*
X207443806Y-99878142D02*
X207443806Y-99749571D01*
X207443806Y-99749571D02*
X207486663Y-99578142D01*
X207486663Y-99578142D02*
X207529520Y-99492428D01*
X207529520Y-99492428D02*
X207615235Y-99406714D01*
X207615235Y-99406714D02*
X207743806Y-99363857D01*
X207743806Y-99363857D02*
X207829520Y-99363857D01*
X207829520Y-99363857D02*
X207958092Y-99406714D01*
X207958092Y-99406714D02*
X208000949Y-99449571D01*
X208515235Y-100263857D02*
X208429520Y-100221000D01*
X208429520Y-100221000D02*
X208386663Y-100178142D01*
X208386663Y-100178142D02*
X208343806Y-100092428D01*
X208343806Y-100092428D02*
X208343806Y-99835285D01*
X208343806Y-99835285D02*
X208386663Y-99749571D01*
X208386663Y-99749571D02*
X208429520Y-99706714D01*
X208429520Y-99706714D02*
X208515235Y-99663857D01*
X208515235Y-99663857D02*
X208643806Y-99663857D01*
X208643806Y-99663857D02*
X208729520Y-99706714D01*
X208729520Y-99706714D02*
X208772378Y-99749571D01*
X208772378Y-99749571D02*
X208815235Y-99835285D01*
X208815235Y-99835285D02*
X208815235Y-100092428D01*
X208815235Y-100092428D02*
X208772378Y-100178142D01*
X208772378Y-100178142D02*
X208729520Y-100221000D01*
X208729520Y-100221000D02*
X208643806Y-100263857D01*
X208643806Y-100263857D02*
X208515235Y-100263857D01*
X209329521Y-100263857D02*
X209243806Y-100221000D01*
X209243806Y-100221000D02*
X209200949Y-100135285D01*
X209200949Y-100135285D02*
X209200949Y-99363857D01*
X209800950Y-100263857D02*
X209715235Y-100221000D01*
X209715235Y-100221000D02*
X209672378Y-100135285D01*
X209672378Y-100135285D02*
X209672378Y-99363857D01*
X210486664Y-100221000D02*
X210400950Y-100263857D01*
X210400950Y-100263857D02*
X210229522Y-100263857D01*
X210229522Y-100263857D02*
X210143807Y-100221000D01*
X210143807Y-100221000D02*
X210100950Y-100135285D01*
X210100950Y-100135285D02*
X210100950Y-99792428D01*
X210100950Y-99792428D02*
X210143807Y-99706714D01*
X210143807Y-99706714D02*
X210229522Y-99663857D01*
X210229522Y-99663857D02*
X210400950Y-99663857D01*
X210400950Y-99663857D02*
X210486664Y-99706714D01*
X210486664Y-99706714D02*
X210529522Y-99792428D01*
X210529522Y-99792428D02*
X210529522Y-99878142D01*
X210529522Y-99878142D02*
X210100950Y-99963857D01*
X211300951Y-99663857D02*
X211300951Y-100392428D01*
X211300951Y-100392428D02*
X211258093Y-100478142D01*
X211258093Y-100478142D02*
X211215236Y-100521000D01*
X211215236Y-100521000D02*
X211129522Y-100563857D01*
X211129522Y-100563857D02*
X211000951Y-100563857D01*
X211000951Y-100563857D02*
X210915236Y-100521000D01*
X211300951Y-100221000D02*
X211215236Y-100263857D01*
X211215236Y-100263857D02*
X211043808Y-100263857D01*
X211043808Y-100263857D02*
X210958093Y-100221000D01*
X210958093Y-100221000D02*
X210915236Y-100178142D01*
X210915236Y-100178142D02*
X210872379Y-100092428D01*
X210872379Y-100092428D02*
X210872379Y-99835285D01*
X210872379Y-99835285D02*
X210915236Y-99749571D01*
X210915236Y-99749571D02*
X210958093Y-99706714D01*
X210958093Y-99706714D02*
X211043808Y-99663857D01*
X211043808Y-99663857D02*
X211215236Y-99663857D01*
X211215236Y-99663857D02*
X211300951Y-99706714D01*
X212072379Y-100221000D02*
X211986665Y-100263857D01*
X211986665Y-100263857D02*
X211815237Y-100263857D01*
X211815237Y-100263857D02*
X211729522Y-100221000D01*
X211729522Y-100221000D02*
X211686665Y-100135285D01*
X211686665Y-100135285D02*
X211686665Y-99792428D01*
X211686665Y-99792428D02*
X211729522Y-99706714D01*
X211729522Y-99706714D02*
X211815237Y-99663857D01*
X211815237Y-99663857D02*
X211986665Y-99663857D01*
X211986665Y-99663857D02*
X212072379Y-99706714D01*
X212072379Y-99706714D02*
X212115237Y-99792428D01*
X212115237Y-99792428D02*
X212115237Y-99878142D01*
X212115237Y-99878142D02*
X211686665Y-99963857D01*
D12*
X260118095Y-92259800D02*
X260260952Y-92307419D01*
X260260952Y-92307419D02*
X260499047Y-92307419D01*
X260499047Y-92307419D02*
X260594285Y-92259800D01*
X260594285Y-92259800D02*
X260641904Y-92212180D01*
X260641904Y-92212180D02*
X260689523Y-92116942D01*
X260689523Y-92116942D02*
X260689523Y-92021704D01*
X260689523Y-92021704D02*
X260641904Y-91926466D01*
X260641904Y-91926466D02*
X260594285Y-91878847D01*
X260594285Y-91878847D02*
X260499047Y-91831228D01*
X260499047Y-91831228D02*
X260308571Y-91783609D01*
X260308571Y-91783609D02*
X260213333Y-91735990D01*
X260213333Y-91735990D02*
X260165714Y-91688371D01*
X260165714Y-91688371D02*
X260118095Y-91593133D01*
X260118095Y-91593133D02*
X260118095Y-91497895D01*
X260118095Y-91497895D02*
X260165714Y-91402657D01*
X260165714Y-91402657D02*
X260213333Y-91355038D01*
X260213333Y-91355038D02*
X260308571Y-91307419D01*
X260308571Y-91307419D02*
X260546666Y-91307419D01*
X260546666Y-91307419D02*
X260689523Y-91355038D01*
X261546666Y-91307419D02*
X261356190Y-91307419D01*
X261356190Y-91307419D02*
X261260952Y-91355038D01*
X261260952Y-91355038D02*
X261213333Y-91402657D01*
X261213333Y-91402657D02*
X261118095Y-91545514D01*
X261118095Y-91545514D02*
X261070476Y-91735990D01*
X261070476Y-91735990D02*
X261070476Y-92116942D01*
X261070476Y-92116942D02*
X261118095Y-92212180D01*
X261118095Y-92212180D02*
X261165714Y-92259800D01*
X261165714Y-92259800D02*
X261260952Y-92307419D01*
X261260952Y-92307419D02*
X261451428Y-92307419D01*
X261451428Y-92307419D02*
X261546666Y-92259800D01*
X261546666Y-92259800D02*
X261594285Y-92212180D01*
X261594285Y-92212180D02*
X261641904Y-92116942D01*
X261641904Y-92116942D02*
X261641904Y-91878847D01*
X261641904Y-91878847D02*
X261594285Y-91783609D01*
X261594285Y-91783609D02*
X261546666Y-91735990D01*
X261546666Y-91735990D02*
X261451428Y-91688371D01*
X261451428Y-91688371D02*
X261260952Y-91688371D01*
X261260952Y-91688371D02*
X261165714Y-91735990D01*
X261165714Y-91735990D02*
X261118095Y-91783609D01*
X261118095Y-91783609D02*
X261070476Y-91878847D01*
X183918095Y-92259800D02*
X184060952Y-92307419D01*
X184060952Y-92307419D02*
X184299047Y-92307419D01*
X184299047Y-92307419D02*
X184394285Y-92259800D01*
X184394285Y-92259800D02*
X184441904Y-92212180D01*
X184441904Y-92212180D02*
X184489523Y-92116942D01*
X184489523Y-92116942D02*
X184489523Y-92021704D01*
X184489523Y-92021704D02*
X184441904Y-91926466D01*
X184441904Y-91926466D02*
X184394285Y-91878847D01*
X184394285Y-91878847D02*
X184299047Y-91831228D01*
X184299047Y-91831228D02*
X184108571Y-91783609D01*
X184108571Y-91783609D02*
X184013333Y-91735990D01*
X184013333Y-91735990D02*
X183965714Y-91688371D01*
X183965714Y-91688371D02*
X183918095Y-91593133D01*
X183918095Y-91593133D02*
X183918095Y-91497895D01*
X183918095Y-91497895D02*
X183965714Y-91402657D01*
X183965714Y-91402657D02*
X184013333Y-91355038D01*
X184013333Y-91355038D02*
X184108571Y-91307419D01*
X184108571Y-91307419D02*
X184346666Y-91307419D01*
X184346666Y-91307419D02*
X184489523Y-91355038D01*
X185346666Y-91640752D02*
X185346666Y-92307419D01*
X185108571Y-91259800D02*
X184870476Y-91974085D01*
X184870476Y-91974085D02*
X185489523Y-91974085D01*
X133118095Y-92259800D02*
X133260952Y-92307419D01*
X133260952Y-92307419D02*
X133499047Y-92307419D01*
X133499047Y-92307419D02*
X133594285Y-92259800D01*
X133594285Y-92259800D02*
X133641904Y-92212180D01*
X133641904Y-92212180D02*
X133689523Y-92116942D01*
X133689523Y-92116942D02*
X133689523Y-92021704D01*
X133689523Y-92021704D02*
X133641904Y-91926466D01*
X133641904Y-91926466D02*
X133594285Y-91878847D01*
X133594285Y-91878847D02*
X133499047Y-91831228D01*
X133499047Y-91831228D02*
X133308571Y-91783609D01*
X133308571Y-91783609D02*
X133213333Y-91735990D01*
X133213333Y-91735990D02*
X133165714Y-91688371D01*
X133165714Y-91688371D02*
X133118095Y-91593133D01*
X133118095Y-91593133D02*
X133118095Y-91497895D01*
X133118095Y-91497895D02*
X133165714Y-91402657D01*
X133165714Y-91402657D02*
X133213333Y-91355038D01*
X133213333Y-91355038D02*
X133308571Y-91307419D01*
X133308571Y-91307419D02*
X133546666Y-91307419D01*
X133546666Y-91307419D02*
X133689523Y-91355038D01*
X134070476Y-91402657D02*
X134118095Y-91355038D01*
X134118095Y-91355038D02*
X134213333Y-91307419D01*
X134213333Y-91307419D02*
X134451428Y-91307419D01*
X134451428Y-91307419D02*
X134546666Y-91355038D01*
X134546666Y-91355038D02*
X134594285Y-91402657D01*
X134594285Y-91402657D02*
X134641904Y-91497895D01*
X134641904Y-91497895D02*
X134641904Y-91593133D01*
X134641904Y-91593133D02*
X134594285Y-91735990D01*
X134594285Y-91735990D02*
X134022857Y-92307419D01*
X134022857Y-92307419D02*
X134641904Y-92307419D01*
X285518095Y-92259800D02*
X285660952Y-92307419D01*
X285660952Y-92307419D02*
X285899047Y-92307419D01*
X285899047Y-92307419D02*
X285994285Y-92259800D01*
X285994285Y-92259800D02*
X286041904Y-92212180D01*
X286041904Y-92212180D02*
X286089523Y-92116942D01*
X286089523Y-92116942D02*
X286089523Y-92021704D01*
X286089523Y-92021704D02*
X286041904Y-91926466D01*
X286041904Y-91926466D02*
X285994285Y-91878847D01*
X285994285Y-91878847D02*
X285899047Y-91831228D01*
X285899047Y-91831228D02*
X285708571Y-91783609D01*
X285708571Y-91783609D02*
X285613333Y-91735990D01*
X285613333Y-91735990D02*
X285565714Y-91688371D01*
X285565714Y-91688371D02*
X285518095Y-91593133D01*
X285518095Y-91593133D02*
X285518095Y-91497895D01*
X285518095Y-91497895D02*
X285565714Y-91402657D01*
X285565714Y-91402657D02*
X285613333Y-91355038D01*
X285613333Y-91355038D02*
X285708571Y-91307419D01*
X285708571Y-91307419D02*
X285946666Y-91307419D01*
X285946666Y-91307419D02*
X286089523Y-91355038D01*
X286422857Y-91307419D02*
X287089523Y-91307419D01*
X287089523Y-91307419D02*
X286660952Y-92307419D01*
X310918095Y-92259800D02*
X311060952Y-92307419D01*
X311060952Y-92307419D02*
X311299047Y-92307419D01*
X311299047Y-92307419D02*
X311394285Y-92259800D01*
X311394285Y-92259800D02*
X311441904Y-92212180D01*
X311441904Y-92212180D02*
X311489523Y-92116942D01*
X311489523Y-92116942D02*
X311489523Y-92021704D01*
X311489523Y-92021704D02*
X311441904Y-91926466D01*
X311441904Y-91926466D02*
X311394285Y-91878847D01*
X311394285Y-91878847D02*
X311299047Y-91831228D01*
X311299047Y-91831228D02*
X311108571Y-91783609D01*
X311108571Y-91783609D02*
X311013333Y-91735990D01*
X311013333Y-91735990D02*
X310965714Y-91688371D01*
X310965714Y-91688371D02*
X310918095Y-91593133D01*
X310918095Y-91593133D02*
X310918095Y-91497895D01*
X310918095Y-91497895D02*
X310965714Y-91402657D01*
X310965714Y-91402657D02*
X311013333Y-91355038D01*
X311013333Y-91355038D02*
X311108571Y-91307419D01*
X311108571Y-91307419D02*
X311346666Y-91307419D01*
X311346666Y-91307419D02*
X311489523Y-91355038D01*
X312060952Y-91735990D02*
X311965714Y-91688371D01*
X311965714Y-91688371D02*
X311918095Y-91640752D01*
X311918095Y-91640752D02*
X311870476Y-91545514D01*
X311870476Y-91545514D02*
X311870476Y-91497895D01*
X311870476Y-91497895D02*
X311918095Y-91402657D01*
X311918095Y-91402657D02*
X311965714Y-91355038D01*
X311965714Y-91355038D02*
X312060952Y-91307419D01*
X312060952Y-91307419D02*
X312251428Y-91307419D01*
X312251428Y-91307419D02*
X312346666Y-91355038D01*
X312346666Y-91355038D02*
X312394285Y-91402657D01*
X312394285Y-91402657D02*
X312441904Y-91497895D01*
X312441904Y-91497895D02*
X312441904Y-91545514D01*
X312441904Y-91545514D02*
X312394285Y-91640752D01*
X312394285Y-91640752D02*
X312346666Y-91688371D01*
X312346666Y-91688371D02*
X312251428Y-91735990D01*
X312251428Y-91735990D02*
X312060952Y-91735990D01*
X312060952Y-91735990D02*
X311965714Y-91783609D01*
X311965714Y-91783609D02*
X311918095Y-91831228D01*
X311918095Y-91831228D02*
X311870476Y-91926466D01*
X311870476Y-91926466D02*
X311870476Y-92116942D01*
X311870476Y-92116942D02*
X311918095Y-92212180D01*
X311918095Y-92212180D02*
X311965714Y-92259800D01*
X311965714Y-92259800D02*
X312060952Y-92307419D01*
X312060952Y-92307419D02*
X312251428Y-92307419D01*
X312251428Y-92307419D02*
X312346666Y-92259800D01*
X312346666Y-92259800D02*
X312394285Y-92212180D01*
X312394285Y-92212180D02*
X312441904Y-92116942D01*
X312441904Y-92116942D02*
X312441904Y-91926466D01*
X312441904Y-91926466D02*
X312394285Y-91831228D01*
X312394285Y-91831228D02*
X312346666Y-91783609D01*
X312346666Y-91783609D02*
X312251428Y-91735990D01*
X158518095Y-92259800D02*
X158660952Y-92307419D01*
X158660952Y-92307419D02*
X158899047Y-92307419D01*
X158899047Y-92307419D02*
X158994285Y-92259800D01*
X158994285Y-92259800D02*
X159041904Y-92212180D01*
X159041904Y-92212180D02*
X159089523Y-92116942D01*
X159089523Y-92116942D02*
X159089523Y-92021704D01*
X159089523Y-92021704D02*
X159041904Y-91926466D01*
X159041904Y-91926466D02*
X158994285Y-91878847D01*
X158994285Y-91878847D02*
X158899047Y-91831228D01*
X158899047Y-91831228D02*
X158708571Y-91783609D01*
X158708571Y-91783609D02*
X158613333Y-91735990D01*
X158613333Y-91735990D02*
X158565714Y-91688371D01*
X158565714Y-91688371D02*
X158518095Y-91593133D01*
X158518095Y-91593133D02*
X158518095Y-91497895D01*
X158518095Y-91497895D02*
X158565714Y-91402657D01*
X158565714Y-91402657D02*
X158613333Y-91355038D01*
X158613333Y-91355038D02*
X158708571Y-91307419D01*
X158708571Y-91307419D02*
X158946666Y-91307419D01*
X158946666Y-91307419D02*
X159089523Y-91355038D01*
X159422857Y-91307419D02*
X160041904Y-91307419D01*
X160041904Y-91307419D02*
X159708571Y-91688371D01*
X159708571Y-91688371D02*
X159851428Y-91688371D01*
X159851428Y-91688371D02*
X159946666Y-91735990D01*
X159946666Y-91735990D02*
X159994285Y-91783609D01*
X159994285Y-91783609D02*
X160041904Y-91878847D01*
X160041904Y-91878847D02*
X160041904Y-92116942D01*
X160041904Y-92116942D02*
X159994285Y-92212180D01*
X159994285Y-92212180D02*
X159946666Y-92259800D01*
X159946666Y-92259800D02*
X159851428Y-92307419D01*
X159851428Y-92307419D02*
X159565714Y-92307419D01*
X159565714Y-92307419D02*
X159470476Y-92259800D01*
X159470476Y-92259800D02*
X159422857Y-92212180D01*
X107718095Y-92259800D02*
X107860952Y-92307419D01*
X107860952Y-92307419D02*
X108099047Y-92307419D01*
X108099047Y-92307419D02*
X108194285Y-92259800D01*
X108194285Y-92259800D02*
X108241904Y-92212180D01*
X108241904Y-92212180D02*
X108289523Y-92116942D01*
X108289523Y-92116942D02*
X108289523Y-92021704D01*
X108289523Y-92021704D02*
X108241904Y-91926466D01*
X108241904Y-91926466D02*
X108194285Y-91878847D01*
X108194285Y-91878847D02*
X108099047Y-91831228D01*
X108099047Y-91831228D02*
X107908571Y-91783609D01*
X107908571Y-91783609D02*
X107813333Y-91735990D01*
X107813333Y-91735990D02*
X107765714Y-91688371D01*
X107765714Y-91688371D02*
X107718095Y-91593133D01*
X107718095Y-91593133D02*
X107718095Y-91497895D01*
X107718095Y-91497895D02*
X107765714Y-91402657D01*
X107765714Y-91402657D02*
X107813333Y-91355038D01*
X107813333Y-91355038D02*
X107908571Y-91307419D01*
X107908571Y-91307419D02*
X108146666Y-91307419D01*
X108146666Y-91307419D02*
X108289523Y-91355038D01*
X109241904Y-92307419D02*
X108670476Y-92307419D01*
X108956190Y-92307419D02*
X108956190Y-91307419D01*
X108956190Y-91307419D02*
X108860952Y-91450276D01*
X108860952Y-91450276D02*
X108765714Y-91545514D01*
X108765714Y-91545514D02*
X108670476Y-91593133D01*
X234718095Y-92259800D02*
X234860952Y-92307419D01*
X234860952Y-92307419D02*
X235099047Y-92307419D01*
X235099047Y-92307419D02*
X235194285Y-92259800D01*
X235194285Y-92259800D02*
X235241904Y-92212180D01*
X235241904Y-92212180D02*
X235289523Y-92116942D01*
X235289523Y-92116942D02*
X235289523Y-92021704D01*
X235289523Y-92021704D02*
X235241904Y-91926466D01*
X235241904Y-91926466D02*
X235194285Y-91878847D01*
X235194285Y-91878847D02*
X235099047Y-91831228D01*
X235099047Y-91831228D02*
X234908571Y-91783609D01*
X234908571Y-91783609D02*
X234813333Y-91735990D01*
X234813333Y-91735990D02*
X234765714Y-91688371D01*
X234765714Y-91688371D02*
X234718095Y-91593133D01*
X234718095Y-91593133D02*
X234718095Y-91497895D01*
X234718095Y-91497895D02*
X234765714Y-91402657D01*
X234765714Y-91402657D02*
X234813333Y-91355038D01*
X234813333Y-91355038D02*
X234908571Y-91307419D01*
X234908571Y-91307419D02*
X235146666Y-91307419D01*
X235146666Y-91307419D02*
X235289523Y-91355038D01*
X236194285Y-91307419D02*
X235718095Y-91307419D01*
X235718095Y-91307419D02*
X235670476Y-91783609D01*
X235670476Y-91783609D02*
X235718095Y-91735990D01*
X235718095Y-91735990D02*
X235813333Y-91688371D01*
X235813333Y-91688371D02*
X236051428Y-91688371D01*
X236051428Y-91688371D02*
X236146666Y-91735990D01*
X236146666Y-91735990D02*
X236194285Y-91783609D01*
X236194285Y-91783609D02*
X236241904Y-91878847D01*
X236241904Y-91878847D02*
X236241904Y-92116942D01*
X236241904Y-92116942D02*
X236194285Y-92212180D01*
X236194285Y-92212180D02*
X236146666Y-92259800D01*
X236146666Y-92259800D02*
X236051428Y-92307419D01*
X236051428Y-92307419D02*
X235813333Y-92307419D01*
X235813333Y-92307419D02*
X235718095Y-92259800D01*
X235718095Y-92259800D02*
X235670476Y-92212180D01*
D13*
D11*
X77238095Y-92114819D02*
X77238095Y-91114819D01*
X77238095Y-91591009D02*
X77809523Y-91591009D01*
X77809523Y-92114819D02*
X77809523Y-91114819D01*
X78809523Y-92114819D02*
X78238095Y-92114819D01*
X78523809Y-92114819D02*
X78523809Y-91114819D01*
X78523809Y-91114819D02*
X78428571Y-91257676D01*
X78428571Y-91257676D02*
X78333333Y-91352914D01*
X78333333Y-91352914D02*
X78238095Y-91400533D01*
X331238095Y-92114819D02*
X331238095Y-91114819D01*
X331238095Y-91591009D02*
X331809523Y-91591009D01*
X331809523Y-92114819D02*
X331809523Y-91114819D01*
X332190476Y-91114819D02*
X332809523Y-91114819D01*
X332809523Y-91114819D02*
X332476190Y-91495771D01*
X332476190Y-91495771D02*
X332619047Y-91495771D01*
X332619047Y-91495771D02*
X332714285Y-91543390D01*
X332714285Y-91543390D02*
X332761904Y-91591009D01*
X332761904Y-91591009D02*
X332809523Y-91686247D01*
X332809523Y-91686247D02*
X332809523Y-91924342D01*
X332809523Y-91924342D02*
X332761904Y-92019580D01*
X332761904Y-92019580D02*
X332714285Y-92067200D01*
X332714285Y-92067200D02*
X332619047Y-92114819D01*
X332619047Y-92114819D02*
X332333333Y-92114819D01*
X332333333Y-92114819D02*
X332238095Y-92067200D01*
X332238095Y-92067200D02*
X332190476Y-92019580D01*
X204238095Y-92114819D02*
X204238095Y-91114819D01*
X204238095Y-91591009D02*
X204809523Y-91591009D01*
X204809523Y-92114819D02*
X204809523Y-91114819D01*
X205238095Y-91210057D02*
X205285714Y-91162438D01*
X205285714Y-91162438D02*
X205380952Y-91114819D01*
X205380952Y-91114819D02*
X205619047Y-91114819D01*
X205619047Y-91114819D02*
X205714285Y-91162438D01*
X205714285Y-91162438D02*
X205761904Y-91210057D01*
X205761904Y-91210057D02*
X205809523Y-91305295D01*
X205809523Y-91305295D02*
X205809523Y-91400533D01*
X205809523Y-91400533D02*
X205761904Y-91543390D01*
X205761904Y-91543390D02*
X205190476Y-92114819D01*
X205190476Y-92114819D02*
X205809523Y-92114819D01*
G04 #@! TO.C,S6*
X257650000Y-92660000D02*
X263650000Y-92660000D01*
X263650000Y-98660000D01*
X257650000Y-98660000D01*
X257650000Y-92660000D01*
G04 #@! TO.C,S4*
X181680000Y-92660000D02*
X187680000Y-92660000D01*
X187680000Y-98660000D01*
X181680000Y-98660000D01*
X181680000Y-92660000D01*
G04 #@! TO.C,S2*
X130880000Y-92660000D02*
X136880000Y-92660000D01*
X136880000Y-98660000D01*
X130880000Y-98660000D01*
X130880000Y-92660000D01*
G04 #@! TO.C,S7*
X283280000Y-92660000D02*
X289280000Y-92660000D01*
X289280000Y-98660000D01*
X283280000Y-98660000D01*
X283280000Y-92660000D01*
G04 #@! TO.C,S8*
X308680000Y-92660000D02*
X314680000Y-92660000D01*
X314680000Y-98660000D01*
X308680000Y-98660000D01*
X308680000Y-92660000D01*
G04 #@! TO.C,S3*
X156280000Y-92660000D02*
X162280000Y-92660000D01*
X162280000Y-98660000D01*
X156280000Y-98660000D01*
X156280000Y-92660000D01*
G04 #@! TO.C,S1*
X105480000Y-92660000D02*
X111480000Y-92660000D01*
X111480000Y-98660000D01*
X105480000Y-98660000D01*
X105480000Y-92660000D01*
G04 #@! TO.C,S5*
X232480000Y-92660000D02*
X238480000Y-92660000D01*
X238480000Y-98660000D01*
X232480000Y-98660000D01*
X232480000Y-92660000D01*
D14*
G04 #@! TO.C,  *
G36*
X342999271Y-87111145D02*
G01*
X343083637Y-87167998D01*
X343090262Y-90568574D01*
X343096888Y-93969150D01*
X343044061Y-94012600D01*
X343034493Y-94018777D01*
X343019916Y-94024342D01*
X342997836Y-94029325D01*
X342965758Y-94033760D01*
X342921187Y-94037677D01*
X342861628Y-94041109D01*
X342784587Y-94044088D01*
X342687569Y-94046644D01*
X342568078Y-94048812D01*
X342423621Y-94050621D01*
X342251702Y-94052104D01*
X342049827Y-94053293D01*
X341815501Y-94054219D01*
X341546229Y-94054915D01*
X341239516Y-94055412D01*
X340892867Y-94055743D01*
X340503788Y-94055938D01*
X340069785Y-94056030D01*
X339640169Y-94056051D01*
X336289103Y-94056051D01*
X336216526Y-93983474D01*
X336143949Y-93910897D01*
X336143949Y-92735524D01*
X336909215Y-92735524D01*
X336912270Y-92883506D01*
X336919311Y-93019023D01*
X336930323Y-93131748D01*
X336945290Y-93211355D01*
X336955822Y-93238360D01*
X337028842Y-93316640D01*
X337130565Y-93366777D01*
X337247190Y-93386304D01*
X337364915Y-93372755D01*
X337462418Y-93328897D01*
X337540576Y-93248254D01*
X337590073Y-93137529D01*
X337605077Y-93010743D01*
X337603819Y-92989088D01*
X337595733Y-92933825D01*
X337573971Y-92907160D01*
X337523641Y-92896534D01*
X337490919Y-92893871D01*
X337424834Y-92890999D01*
X337394424Y-92902116D01*
X337385836Y-92937601D01*
X337385396Y-92972948D01*
X337373988Y-93086859D01*
X337339374Y-93157616D01*
X337280975Y-93186267D01*
X337266832Y-93187038D01*
X337222364Y-93184514D01*
X337189400Y-93172648D01*
X337166224Y-93145003D01*
X337151124Y-93095141D01*
X337142385Y-93016623D01*
X337138295Y-92903013D01*
X337137138Y-92747870D01*
X337137107Y-92699682D01*
X337137794Y-92538919D01*
X337138683Y-92496207D01*
X337810537Y-92496207D01*
X337811191Y-92670483D01*
X337812197Y-92738883D01*
X337815086Y-92902500D01*
X337818257Y-93024023D01*
X337822696Y-93111009D01*
X337829386Y-93171015D01*
X337839313Y-93211600D01*
X337853460Y-93240322D01*
X337872811Y-93264738D01*
X337881975Y-93274718D01*
X337937747Y-93325789D01*
X337990005Y-93360348D01*
X337993705Y-93361982D01*
X338080626Y-93380771D01*
X338188205Y-93381387D01*
X338291299Y-93364848D01*
X338302577Y-93360841D01*
X338701330Y-93360841D01*
X338986862Y-93360841D01*
X339272395Y-93360841D01*
X339370900Y-93360841D01*
X339669253Y-93360841D01*
X339967605Y-93360841D01*
X340091750Y-93360841D01*
X340414526Y-93360841D01*
X340737302Y-93360841D01*
X340737302Y-93273940D01*
X340737302Y-93187038D01*
X340526256Y-93187038D01*
X340315210Y-93187038D01*
X340315210Y-92975992D01*
X340315210Y-92764946D01*
X340464184Y-92764946D01*
X340613158Y-92764946D01*
X340613158Y-92737066D01*
X340883025Y-92737066D01*
X340885622Y-92885276D01*
X340891814Y-93020758D01*
X340901603Y-93133137D01*
X340914989Y-93212038D01*
X340923831Y-93237300D01*
X340992058Y-93319505D01*
X341087358Y-93369223D01*
X341196823Y-93383415D01*
X341307544Y-93359046D01*
X341349778Y-93337525D01*
X341403535Y-93308710D01*
X341430908Y-93308104D01*
X341442107Y-93325203D01*
X341474672Y-93352310D01*
X341518635Y-93360841D01*
X341581486Y-93360841D01*
X341780118Y-93360841D01*
X342102894Y-93360841D01*
X342425670Y-93360841D01*
X342425670Y-93273940D01*
X342425670Y-93187038D01*
X342214624Y-93187038D01*
X342003578Y-93187038D01*
X342003578Y-92975992D01*
X342003578Y-92764946D01*
X342152552Y-92764946D01*
X342301525Y-92764946D01*
X342301525Y-92665631D01*
X342301525Y-92566315D01*
X342152552Y-92566315D01*
X342003578Y-92566315D01*
X342003578Y-92392512D01*
X342003578Y-92218710D01*
X342203708Y-92218710D01*
X342403839Y-92218710D01*
X342396133Y-92125601D01*
X342388426Y-92032493D01*
X342084272Y-92025521D01*
X341780118Y-92018550D01*
X341780118Y-92689695D01*
X341780118Y-93360841D01*
X341581486Y-93360841D01*
X341581486Y-93025650D01*
X341581486Y-92690460D01*
X341395269Y-92690460D01*
X341209052Y-92690460D01*
X341209052Y-92775712D01*
X341214414Y-92834624D01*
X341238522Y-92860743D01*
X341277332Y-92868820D01*
X341317890Y-92876900D01*
X341337038Y-92897990D01*
X341341323Y-92945815D01*
X341339199Y-92998525D01*
X341325640Y-93100489D01*
X341295534Y-93160733D01*
X341245017Y-93185551D01*
X341223392Y-93187038D01*
X341184354Y-93183755D01*
X341155402Y-93169639D01*
X341135046Y-93138297D01*
X341121793Y-93083331D01*
X341114152Y-92998347D01*
X341110631Y-92876947D01*
X341109739Y-92712738D01*
X341109736Y-92699682D01*
X341109779Y-92689695D01*
X341110424Y-92538919D01*
X341112885Y-92420650D01*
X341117718Y-92337724D01*
X341125519Y-92282993D01*
X341136887Y-92249305D01*
X341148753Y-92232898D01*
X341188932Y-92200375D01*
X341225494Y-92200685D01*
X341276538Y-92231498D01*
X341323255Y-92294028D01*
X341337927Y-92361850D01*
X341345865Y-92420267D01*
X341366702Y-92448335D01*
X341415367Y-92459289D01*
X341451134Y-92462220D01*
X341556657Y-92469854D01*
X341556657Y-92367878D01*
X341536365Y-92234583D01*
X341478711Y-92129113D01*
X341388534Y-92056607D01*
X341270668Y-92022203D01*
X341229300Y-92020078D01*
X341092975Y-92037577D01*
X340989346Y-92089071D01*
X340923940Y-92168239D01*
X340908574Y-92224457D01*
X340896799Y-92319824D01*
X340888615Y-92443965D01*
X340884023Y-92586504D01*
X340883025Y-92737066D01*
X340613158Y-92737066D01*
X340613158Y-92665631D01*
X340613158Y-92566315D01*
X340464184Y-92566315D01*
X340315210Y-92566315D01*
X340315210Y-92392512D01*
X340315210Y-92218710D01*
X340501427Y-92218710D01*
X340687644Y-92218710D01*
X340687644Y-92119394D01*
X340687644Y-92020078D01*
X340389697Y-92020078D01*
X340091750Y-92020078D01*
X340091750Y-92690460D01*
X340091750Y-93360841D01*
X339967605Y-93360841D01*
X339967605Y-93273940D01*
X339967605Y-93187038D01*
X339794260Y-93187038D01*
X339620915Y-93187038D01*
X339615183Y-92690460D01*
X339614251Y-92609766D01*
X339607586Y-92032493D01*
X339495856Y-92032493D01*
X339384125Y-92032493D01*
X339377513Y-92696667D01*
X339370900Y-93360841D01*
X339272395Y-93360841D01*
X339272395Y-93273940D01*
X339272395Y-93187038D01*
X339098593Y-93187038D01*
X338924790Y-93187038D01*
X338924790Y-92603558D01*
X338924790Y-92020078D01*
X338813060Y-92020078D01*
X338701330Y-92020078D01*
X338701330Y-92690460D01*
X338701330Y-93360841D01*
X338302577Y-93360841D01*
X338338649Y-93348025D01*
X338391804Y-93319115D01*
X338432137Y-93284897D01*
X338461392Y-93238514D01*
X338481312Y-93173109D01*
X338493642Y-93081825D01*
X338500124Y-92957804D01*
X338502502Y-92794189D01*
X338502698Y-92702874D01*
X338502633Y-92690460D01*
X338501749Y-92521032D01*
X338497793Y-92381720D01*
X338489170Y-92277826D01*
X338474220Y-92202240D01*
X338451283Y-92147853D01*
X338418698Y-92107553D01*
X338374804Y-92074231D01*
X338352736Y-92060687D01*
X338265930Y-92030696D01*
X338156123Y-92020820D01*
X338045671Y-92030962D01*
X337956932Y-92061022D01*
X337954487Y-92062438D01*
X337905725Y-92095957D01*
X337868782Y-92135902D01*
X337842225Y-92189085D01*
X337824621Y-92262322D01*
X337814536Y-92362425D01*
X337810537Y-92496207D01*
X337138683Y-92496207D01*
X337140256Y-92420650D01*
X337145088Y-92337724D01*
X337152889Y-92282993D01*
X337164257Y-92249305D01*
X337176124Y-92232898D01*
X337235707Y-92198035D01*
X337292428Y-92208415D01*
X337339994Y-92259741D01*
X337372110Y-92347716D01*
X337376143Y-92369445D01*
X337388179Y-92429373D01*
X337409093Y-92457761D01*
X337454293Y-92466396D01*
X337503675Y-92466999D01*
X337615606Y-92466999D01*
X337600233Y-92354841D01*
X337565126Y-92212514D01*
X337503013Y-92111031D01*
X337411465Y-92048086D01*
X337288059Y-92021377D01*
X337247694Y-92020078D01*
X337116089Y-92040148D01*
X337012602Y-92099084D01*
X336954255Y-92170041D01*
X336937154Y-92225461D01*
X336924115Y-92320045D01*
X336915122Y-92443468D01*
X336910160Y-92585403D01*
X336909215Y-92735524D01*
X336143949Y-92735524D01*
X336143949Y-90625520D01*
X336143949Y-90593092D01*
X336143886Y-90111149D01*
X336143776Y-89676397D01*
X336143771Y-89611672D01*
X336938475Y-89611672D01*
X336938475Y-90625520D01*
X336938894Y-90845274D01*
X336940088Y-91049495D01*
X336941968Y-91232858D01*
X336944442Y-91390041D01*
X336947418Y-91515720D01*
X336950807Y-91604573D01*
X336954517Y-91651275D01*
X336956111Y-91657004D01*
X336988871Y-91665521D01*
X337054562Y-91668784D01*
X337111292Y-91667349D01*
X337248837Y-91660059D01*
X337257646Y-90915191D01*
X337266455Y-90170323D01*
X337419034Y-90915191D01*
X337571613Y-91660059D01*
X337658159Y-91660059D01*
X337744706Y-91660059D01*
X337897863Y-90890362D01*
X338051021Y-90120665D01*
X338059606Y-90890362D01*
X338068192Y-91660059D01*
X338217165Y-91660059D01*
X338366139Y-91660059D01*
X338372622Y-90635865D01*
X338374162Y-90392561D01*
X338379104Y-89611672D01*
X338626843Y-89611672D01*
X338626843Y-90392561D01*
X338627785Y-90629156D01*
X338630514Y-90838563D01*
X338634890Y-91016067D01*
X338640768Y-91156952D01*
X338648006Y-91256502D01*
X338654350Y-91301710D01*
X338707483Y-91443954D01*
X338796188Y-91555424D01*
X338915344Y-91633809D01*
X339059831Y-91676795D01*
X339224529Y-91682072D01*
X339238257Y-91679419D01*
X339992434Y-91679419D01*
X340004422Y-91678951D01*
X341358026Y-91678951D01*
X341687009Y-91667526D01*
X341837403Y-91660662D01*
X341949048Y-91651095D01*
X342032838Y-91637292D01*
X342099669Y-91617720D01*
X342130416Y-91605165D01*
X342255765Y-91523065D01*
X342350315Y-91404979D01*
X342400272Y-91287625D01*
X342410993Y-91224245D01*
X342418325Y-91117817D01*
X342422320Y-90966623D01*
X342423028Y-90768943D01*
X342421314Y-90580000D01*
X342418570Y-90389422D01*
X342415601Y-90241634D01*
X342411787Y-90129769D01*
X342406510Y-90046960D01*
X342399149Y-89986340D01*
X342389085Y-89941043D01*
X342375697Y-89904202D01*
X342358367Y-89868951D01*
X342356900Y-89866196D01*
X342299322Y-89785664D01*
X342223223Y-89711410D01*
X342197397Y-89692393D01*
X342154994Y-89665826D01*
X342114783Y-89646957D01*
X342067080Y-89634212D01*
X342002204Y-89626010D01*
X341910473Y-89620775D01*
X341782205Y-89616929D01*
X341726138Y-89615602D01*
X341358026Y-89607117D01*
X341358026Y-90643034D01*
X341358026Y-91678951D01*
X340004422Y-91678951D01*
X340333832Y-91666091D01*
X340516497Y-91655860D01*
X340652388Y-91641106D01*
X340744212Y-91621499D01*
X340767263Y-91613076D01*
X340873516Y-91550816D01*
X340956555Y-91461080D01*
X341019536Y-91349697D01*
X341036349Y-91310959D01*
X341049150Y-91270669D01*
X341058479Y-91221680D01*
X341064873Y-91156848D01*
X341068870Y-91069025D01*
X341071010Y-90951067D01*
X341071829Y-90795827D01*
X341071903Y-90654487D01*
X341071852Y-90643034D01*
X341070940Y-90438911D01*
X341067492Y-90266487D01*
X341060419Y-90130728D01*
X341048581Y-90025148D01*
X341030838Y-89943259D01*
X341006050Y-89878574D01*
X340973077Y-89824607D01*
X340930778Y-89774869D01*
X340914366Y-89758065D01*
X340851393Y-89703497D01*
X340782033Y-89663929D01*
X340697236Y-89637173D01*
X340587953Y-89621044D01*
X340445133Y-89613355D01*
X340309003Y-89611810D01*
X339992434Y-89611672D01*
X339992434Y-90645545D01*
X339992434Y-91679419D01*
X339238257Y-91679419D01*
X339404318Y-91647326D01*
X339413524Y-91644524D01*
X339508569Y-91592333D01*
X339594802Y-91504132D01*
X339661184Y-91393521D01*
X339691809Y-91301710D01*
X339699989Y-91236838D01*
X339706917Y-91127037D01*
X339712451Y-90977022D01*
X339716448Y-90791509D01*
X339718012Y-90645545D01*
X339718765Y-90575213D01*
X339719316Y-90392561D01*
X339719316Y-89611672D01*
X339533099Y-89611672D01*
X339346882Y-89611672D01*
X339346882Y-90447693D01*
X339346666Y-90676217D01*
X339345860Y-90860207D01*
X339344225Y-91004783D01*
X339341522Y-91115069D01*
X339337512Y-91196186D01*
X339331957Y-91253257D01*
X339324617Y-91291403D01*
X339315254Y-91315746D01*
X339305790Y-91329120D01*
X339245333Y-91363841D01*
X339164221Y-91373488D01*
X339084875Y-91357691D01*
X339044683Y-91333435D01*
X339032403Y-91319517D01*
X339022552Y-91298912D01*
X339014864Y-91266466D01*
X339009074Y-91217029D01*
X339004915Y-91145448D01*
X339002122Y-91046570D01*
X339000431Y-90915243D01*
X338999576Y-90746314D01*
X338999291Y-90534633D01*
X338999277Y-90452007D01*
X338999277Y-89611672D01*
X338813060Y-89611672D01*
X338626843Y-89611672D01*
X338379104Y-89611672D01*
X338144627Y-89611672D01*
X338033308Y-89612841D01*
X337962135Y-89617459D01*
X337921625Y-89627195D01*
X337902298Y-89643715D01*
X337897593Y-89655122D01*
X337888992Y-89691749D01*
X337872186Y-89769083D01*
X337848856Y-89879170D01*
X337820684Y-90014053D01*
X337789353Y-90165777D01*
X337780782Y-90207566D01*
X337748851Y-90360545D01*
X337719241Y-90496961D01*
X337693671Y-90609323D01*
X337673861Y-90690137D01*
X337661529Y-90731914D01*
X337659598Y-90735656D01*
X337649586Y-90718736D01*
X337631854Y-90660224D01*
X337608214Y-90567262D01*
X337580477Y-90446993D01*
X337550457Y-90306559D01*
X337549343Y-90301150D01*
X337517846Y-90148242D01*
X337488020Y-90003771D01*
X337462013Y-89878124D01*
X337441975Y-89781689D01*
X337431064Y-89729609D01*
X337406110Y-89611672D01*
X337172293Y-89611672D01*
X336938475Y-89611672D01*
X336143771Y-89611672D01*
X336143743Y-89286370D01*
X336143908Y-88938602D01*
X336144394Y-88630627D01*
X336145323Y-88359977D01*
X336146817Y-88124188D01*
X336148998Y-87920792D01*
X336151989Y-87747323D01*
X336152598Y-87724673D01*
X336938475Y-87724673D01*
X336938475Y-88494370D01*
X336938475Y-89264067D01*
X337062620Y-89264067D01*
X337186765Y-89264067D01*
X337186765Y-88928876D01*
X337186765Y-88593685D01*
X337323324Y-88593685D01*
X337459883Y-88593685D01*
X337459883Y-88928876D01*
X337459883Y-89264067D01*
X337596442Y-89264067D01*
X337733001Y-89264067D01*
X337733001Y-89236212D01*
X337857146Y-89236212D01*
X337880160Y-89253706D01*
X337942631Y-89263089D01*
X337978387Y-89264067D01*
X338099628Y-89264067D01*
X338121153Y-89096471D01*
X338142679Y-88928876D01*
X338291652Y-88928876D01*
X338440626Y-88928876D01*
X338462151Y-89096471D01*
X338483676Y-89264067D01*
X338604917Y-89264067D01*
X338850303Y-89264067D01*
X338986862Y-89264067D01*
X339123422Y-89264067D01*
X340737302Y-89264067D01*
X341097322Y-89264067D01*
X341457341Y-89264067D01*
X341457341Y-89152336D01*
X341457341Y-89040606D01*
X341221467Y-89040606D01*
X340985592Y-89040606D01*
X340985592Y-88817146D01*
X340985592Y-88593685D01*
X341159394Y-88593685D01*
X341333197Y-88593685D01*
X341333197Y-88483090D01*
X341333197Y-88372494D01*
X341165601Y-88365152D01*
X340998006Y-88357811D01*
X340998006Y-88159179D01*
X340998006Y-87960548D01*
X341215259Y-87953374D01*
X341432512Y-87946200D01*
X341432512Y-87835436D01*
X341432512Y-87733668D01*
X341531828Y-87733668D01*
X341539805Y-87759560D01*
X341562025Y-87824814D01*
X341595919Y-87922067D01*
X341638919Y-88043955D01*
X341688458Y-88183115D01*
X341693216Y-88196422D01*
X341854604Y-88647587D01*
X341854604Y-88955827D01*
X341854604Y-89264067D01*
X341978749Y-89264067D01*
X342102894Y-89264067D01*
X342102894Y-88954463D01*
X342102894Y-88644859D01*
X342250192Y-88228216D01*
X342298940Y-88090543D01*
X342342818Y-87967024D01*
X342378795Y-87866159D01*
X342403840Y-87796447D01*
X342414237Y-87768123D01*
X342417990Y-87742430D01*
X342396715Y-87729395D01*
X342340203Y-87724953D01*
X342305055Y-87724673D01*
X342247614Y-87725291D01*
X342205993Y-87732060D01*
X342174825Y-87752353D01*
X342148742Y-87793541D01*
X342122377Y-87862997D01*
X342090362Y-87968094D01*
X342065533Y-88053656D01*
X342034899Y-88154678D01*
X342008001Y-88234920D01*
X341988362Y-88284338D01*
X341980843Y-88295214D01*
X341968181Y-88272790D01*
X341944503Y-88212159D01*
X341913217Y-88122628D01*
X341878486Y-88015888D01*
X341790637Y-87737087D01*
X341661232Y-87729582D01*
X341588776Y-87727381D01*
X341541815Y-87729794D01*
X341531828Y-87733668D01*
X341432512Y-87733668D01*
X341432512Y-87724673D01*
X341084907Y-87724673D01*
X340737302Y-87724673D01*
X340737302Y-88494370D01*
X340737302Y-89264067D01*
X339123422Y-89264067D01*
X339123422Y-88953705D01*
X339123874Y-88824904D01*
X339126091Y-88737693D01*
X339131364Y-88684003D01*
X339140984Y-88655768D01*
X339156240Y-88644922D01*
X339173079Y-88643343D01*
X339222600Y-88642654D01*
X339240349Y-88641825D01*
X339253487Y-88663656D01*
X339276832Y-88724424D01*
X339307260Y-88815232D01*
X339341646Y-88927181D01*
X339347166Y-88945979D01*
X339436370Y-89251652D01*
X339565429Y-89259157D01*
X339637742Y-89260091D01*
X339684574Y-89254418D01*
X339694487Y-89247742D01*
X339687095Y-89218352D01*
X339666853Y-89151195D01*
X339636666Y-89055599D01*
X339599437Y-88940889D01*
X339590604Y-88914059D01*
X339486721Y-88599295D01*
X339552407Y-88521232D01*
X339630529Y-88390873D01*
X339664830Y-88238977D01*
X339654835Y-88068240D01*
X339642486Y-88011186D01*
X339601868Y-87908639D01*
X339535168Y-87831120D01*
X339437641Y-87776397D01*
X339362030Y-87756993D01*
X339723033Y-87756993D01*
X339727376Y-87780538D01*
X339735843Y-87818949D01*
X339752938Y-87899077D01*
X339777207Y-88014018D01*
X339807195Y-88156865D01*
X339841451Y-88320711D01*
X339878521Y-88498652D01*
X339880212Y-88506784D01*
X339917303Y-88684484D01*
X339951648Y-88847742D01*
X339981804Y-88989794D01*
X340006327Y-89103878D01*
X340023772Y-89183232D01*
X340032694Y-89221093D01*
X340032911Y-89221842D01*
X340049677Y-89248352D01*
X340087682Y-89259892D01*
X340159872Y-89259871D01*
X340174383Y-89259085D01*
X340302549Y-89251652D01*
X340443936Y-88581271D01*
X340462203Y-88494370D01*
X340481931Y-88400519D01*
X340517257Y-88231334D01*
X340548388Y-88081102D01*
X340573803Y-87957213D01*
X340591975Y-87867056D01*
X340601382Y-87818019D01*
X340601423Y-87817781D01*
X340617522Y-87724673D01*
X340493887Y-87724673D01*
X340418616Y-87727564D01*
X340378949Y-87740035D01*
X340360980Y-87767788D01*
X340357608Y-87780538D01*
X340349445Y-87821968D01*
X340334355Y-87903569D01*
X340313919Y-88016588D01*
X340289720Y-88152271D01*
X340263341Y-88301866D01*
X340263285Y-88302182D01*
X340237158Y-88445622D01*
X340212779Y-88569188D01*
X340191708Y-88665762D01*
X340175508Y-88728223D01*
X340165741Y-88749454D01*
X340165233Y-88749103D01*
X340156023Y-88719732D01*
X340140247Y-88649370D01*
X340119508Y-88546009D01*
X340095411Y-88417639D01*
X340069556Y-88272252D01*
X340069323Y-88270909D01*
X340043501Y-88123344D01*
X340019782Y-87990707D01*
X339999737Y-87881547D01*
X339984933Y-87804412D01*
X339977023Y-87768123D01*
X339957264Y-87740926D01*
X339910812Y-87727721D01*
X339839096Y-87724673D01*
X339765672Y-87726402D01*
X339730709Y-87735313D01*
X339723033Y-87756993D01*
X339362030Y-87756993D01*
X339304539Y-87742239D01*
X339131115Y-87726413D01*
X339033131Y-87724673D01*
X338850303Y-87724673D01*
X338850303Y-88494370D01*
X338850303Y-89264067D01*
X338604917Y-89264067D01*
X338683462Y-89258525D01*
X338722927Y-89243061D01*
X338726159Y-89235259D01*
X338721844Y-89204717D01*
X338709819Y-89132971D01*
X338691467Y-89027634D01*
X338668167Y-88896319D01*
X338641302Y-88746642D01*
X338612253Y-88586215D01*
X338595490Y-88494370D01*
X338582400Y-88422653D01*
X338553126Y-88263570D01*
X338525810Y-88116579D01*
X338501836Y-87989294D01*
X338482582Y-87889330D01*
X338475774Y-87855025D01*
X338449520Y-87724673D01*
X338291652Y-87724673D01*
X338133785Y-87724673D01*
X338107948Y-87855025D01*
X338089972Y-87947710D01*
X338066926Y-88069536D01*
X338040182Y-88212952D01*
X338011111Y-88370406D01*
X337981084Y-88534349D01*
X337951471Y-88697230D01*
X337923644Y-88851498D01*
X337898974Y-88989602D01*
X337878833Y-89103993D01*
X337864590Y-89187119D01*
X337857618Y-89231429D01*
X337857146Y-89236212D01*
X337733001Y-89236212D01*
X337733001Y-88493072D01*
X337733001Y-87722078D01*
X337602649Y-87729582D01*
X337472297Y-87737087D01*
X337465348Y-88053656D01*
X337458399Y-88370225D01*
X337322582Y-88370225D01*
X337186765Y-88370225D01*
X337186765Y-88047449D01*
X337186765Y-87724673D01*
X337062620Y-87724673D01*
X336938475Y-87724673D01*
X336152598Y-87724673D01*
X336155912Y-87601316D01*
X336160888Y-87480303D01*
X336167041Y-87381818D01*
X336174492Y-87303396D01*
X336183364Y-87242570D01*
X336193778Y-87196873D01*
X336205858Y-87163839D01*
X336219724Y-87141003D01*
X336235500Y-87125897D01*
X336253308Y-87116055D01*
X336273269Y-87109012D01*
X336295507Y-87102301D01*
X336317301Y-87094612D01*
X336335248Y-87088766D01*
X336360045Y-87083507D01*
X336394239Y-87078806D01*
X336440380Y-87074631D01*
X336501015Y-87070952D01*
X336578694Y-87067738D01*
X336675964Y-87064959D01*
X336795374Y-87062584D01*
X336939474Y-87060582D01*
X337110810Y-87058922D01*
X337311933Y-87057574D01*
X337545390Y-87056508D01*
X337813729Y-87055691D01*
X338119500Y-87055095D01*
X338465251Y-87054687D01*
X338853530Y-87054438D01*
X339286887Y-87054317D01*
X339666489Y-87054292D01*
X342914905Y-87054292D01*
X342999271Y-87111145D01*
G37*
G36*
X338209810Y-92209122D02*
G01*
X338240221Y-92232898D01*
X338254821Y-92255037D01*
X338265384Y-92292583D01*
X338272507Y-92352687D01*
X338276788Y-92442498D01*
X338278824Y-92569167D01*
X338279238Y-92699682D01*
X338278535Y-92866831D01*
X338275335Y-92990756D01*
X338268001Y-93077884D01*
X338254895Y-93134642D01*
X338234381Y-93167457D01*
X338204822Y-93182754D01*
X338164580Y-93186962D01*
X338155093Y-93187038D01*
X338094544Y-93176199D01*
X338060743Y-93157244D01*
X338048380Y-93124765D01*
X338039471Y-93053537D01*
X338033811Y-92940391D01*
X338031192Y-92782159D01*
X338030948Y-92701756D01*
X338031429Y-92544854D01*
X338033359Y-92430054D01*
X338037473Y-92349807D01*
X338044507Y-92296565D01*
X338055193Y-92262776D01*
X338070267Y-92240891D01*
X338076354Y-92234973D01*
X338144438Y-92197430D01*
X338209810Y-92209122D01*
G37*
G36*
X340552691Y-89915581D02*
G01*
X340612040Y-89937979D01*
X340651530Y-89970563D01*
X340712473Y-90031506D01*
X340712473Y-90614947D01*
X340711885Y-90818801D01*
X340709428Y-90978801D01*
X340704066Y-91100743D01*
X340694761Y-91190422D01*
X340680475Y-91253636D01*
X340660172Y-91296180D01*
X340632814Y-91323852D01*
X340597363Y-91342446D01*
X340581201Y-91348461D01*
X340501544Y-91367975D01*
X340424472Y-91373883D01*
X340368630Y-91365396D01*
X340356592Y-91357973D01*
X340352355Y-91329820D01*
X340348520Y-91258392D01*
X340345229Y-91150072D01*
X340342627Y-91011242D01*
X340340858Y-90848287D01*
X340340068Y-90667587D01*
X340340039Y-90625520D01*
X340340039Y-89909619D01*
X340465313Y-89909619D01*
X340552691Y-89915581D01*
G37*
G36*
X341938788Y-89922837D02*
G01*
X342007035Y-89957083D01*
X342065650Y-90004547D01*
X342065650Y-90626775D01*
X342065505Y-90818629D01*
X342064737Y-90967064D01*
X342062851Y-91078317D01*
X342059351Y-91158626D01*
X342053739Y-91214229D01*
X342045520Y-91251365D01*
X342034196Y-91276270D01*
X342019273Y-91295183D01*
X342011857Y-91302795D01*
X341933173Y-91348645D01*
X341831847Y-91368716D01*
X341705631Y-91380844D01*
X341705631Y-90645232D01*
X341705631Y-89909619D01*
X341827025Y-89909619D01*
X341938788Y-89922837D01*
G37*
G36*
X338298163Y-88078603D02*
G01*
X338310412Y-88142890D01*
X338326536Y-88234775D01*
X338338806Y-88308153D01*
X338357663Y-88421455D01*
X338375042Y-88523062D01*
X338388449Y-88598525D01*
X338393442Y-88624722D01*
X338399060Y-88666171D01*
X338385870Y-88686151D01*
X338342236Y-88692489D01*
X338291952Y-88693001D01*
X338221956Y-88690297D01*
X338190750Y-88679170D01*
X338187621Y-88655094D01*
X338189063Y-88649551D01*
X338197631Y-88608363D01*
X338211319Y-88529886D01*
X338228134Y-88425977D01*
X338243510Y-88325752D01*
X338260561Y-88215842D01*
X338275421Y-88127463D01*
X338286427Y-88070023D01*
X338291763Y-88052634D01*
X338298163Y-88078603D01*
G37*
G36*
X339301104Y-87964067D02*
G01*
X339360384Y-88014157D01*
X339390872Y-88101831D01*
X339396540Y-88184008D01*
X339383960Y-88298997D01*
X339344416Y-88374086D01*
X339275199Y-88412704D01*
X339210323Y-88419883D01*
X339123422Y-88419883D01*
X339123422Y-88184008D01*
X339123422Y-87948133D01*
X339210323Y-87948133D01*
X339301104Y-87964067D01*
G37*
D15*
G04 #@! TO.C,J2*
X130187599Y-102645000D02*
G75*
G02*
X129425599Y-102645000I-381000J0D01*
G01*
X129425599Y-102645000D02*
G75*
G02*
X130187599Y-102645000I381000J0D01*
G01*
G04 #@! TO.C,J6*
X257187599Y-102645000D02*
G75*
G02*
X256425599Y-102645000I-381000J0D01*
G01*
X256425599Y-102645000D02*
G75*
G02*
X257187599Y-102645000I381000J0D01*
G01*
G04 #@! TO.C,J4*
X180987599Y-102645000D02*
G75*
G02*
X180225599Y-102645000I-381000J0D01*
G01*
X180225599Y-102645000D02*
G75*
G02*
X180987599Y-102645000I381000J0D01*
G01*
G04 #@! TO.C,J1*
X104787599Y-102645000D02*
G75*
G02*
X104025599Y-102645000I-381000J0D01*
G01*
X104025599Y-102645000D02*
G75*
G02*
X104787599Y-102645000I381000J0D01*
G01*
G04 #@! TO.C,J8*
X307987599Y-102645000D02*
G75*
G02*
X307225599Y-102645000I-381000J0D01*
G01*
X307225599Y-102645000D02*
G75*
G02*
X307987599Y-102645000I381000J0D01*
G01*
G04 #@! TO.C,J7*
X282587599Y-102645000D02*
G75*
G02*
X281825599Y-102645000I-381000J0D01*
G01*
X281825599Y-102645000D02*
G75*
G02*
X282587599Y-102645000I381000J0D01*
G01*
G04 #@! TO.C,J3*
X155587599Y-102645000D02*
G75*
G02*
X154825599Y-102645000I-381000J0D01*
G01*
X154825599Y-102645000D02*
G75*
G02*
X155587599Y-102645000I381000J0D01*
G01*
G04 #@! TO.C,J5*
X231787599Y-102645000D02*
G75*
G02*
X231025599Y-102645000I-381000J0D01*
G01*
X231025599Y-102645000D02*
G75*
G02*
X231787599Y-102645000I381000J0D01*
G01*
G04 #@! TD*
%LPC*%
D16*
G04 #@! TO.C,S6*
X259150000Y-94160000D03*
X259150000Y-97160000D03*
D17*
X260650000Y-95660000D03*
D16*
X262150000Y-94160000D03*
X262150000Y-97160000D03*
G04 #@! TD*
G04 #@! TO.C,S4*
X183180000Y-94160000D03*
X183180000Y-97160000D03*
D17*
X184680000Y-95660000D03*
D16*
X186180000Y-94160000D03*
X186180000Y-97160000D03*
G04 #@! TD*
G04 #@! TO.C,S2*
X132380000Y-94160000D03*
X132380000Y-97160000D03*
D17*
X133880000Y-95660000D03*
D16*
X135380000Y-94160000D03*
X135380000Y-97160000D03*
G04 #@! TD*
G04 #@! TO.C,S7*
X284780000Y-94160000D03*
X284780000Y-97160000D03*
D17*
X286280000Y-95660000D03*
D16*
X287780000Y-94160000D03*
X287780000Y-97160000D03*
G04 #@! TD*
G04 #@! TO.C,S8*
X310180000Y-94160000D03*
X310180000Y-97160000D03*
D17*
X311680000Y-95660000D03*
D16*
X313180000Y-94160000D03*
X313180000Y-97160000D03*
G04 #@! TD*
G04 #@! TO.C,S3*
X157780000Y-94160000D03*
X157780000Y-97160000D03*
D17*
X159280000Y-95660000D03*
D16*
X160780000Y-94160000D03*
X160780000Y-97160000D03*
G04 #@! TD*
G04 #@! TO.C,S1*
X106980000Y-94160000D03*
X106980000Y-97160000D03*
D17*
X108480000Y-95660000D03*
D16*
X109980000Y-94160000D03*
X109980000Y-97160000D03*
G04 #@! TD*
G04 #@! TO.C,S5*
X233980000Y-94160000D03*
X233980000Y-97160000D03*
D17*
X235480000Y-95660000D03*
D16*
X236980000Y-94160000D03*
X236980000Y-97160000D03*
G04 #@! TD*
D18*
G04 #@! TO.C,H1*
X78000000Y-95660000D03*
G04 #@! TD*
D19*
G04 #@! TO.C,L1*
X95373600Y-103457800D03*
D20*
X95373600Y-88217800D03*
G04 #@! TD*
G04 #@! TO.C,L3*
X146072000Y-88167000D03*
D19*
X146072000Y-103407000D03*
G04 #@! TD*
D20*
G04 #@! TO.C,L7*
X273199000Y-88167000D03*
D19*
X273199000Y-103407000D03*
G04 #@! TD*
D20*
G04 #@! TO.C,L2*
X120672000Y-88167000D03*
D19*
X120672000Y-103407000D03*
G04 #@! TD*
D18*
G04 #@! TO.C,H3*
X332000000Y-95660000D03*
G04 #@! TD*
D20*
G04 #@! TO.C,L5*
X222322800Y-88268600D03*
D19*
X222322800Y-103508600D03*
G04 #@! TD*
D18*
G04 #@! TO.C,H2*
X205000000Y-95660000D03*
G04 #@! TD*
D20*
G04 #@! TO.C,L8*
X298472000Y-88167000D03*
D19*
X298472000Y-103407000D03*
G04 #@! TD*
D20*
G04 #@! TO.C,L4*
X171319600Y-88268600D03*
D19*
X171319600Y-103508600D03*
G04 #@! TD*
G04 #@! TO.C,L6*
X247468800Y-103508600D03*
D20*
X247468800Y-88268600D03*
G04 #@! TD*
D21*
G04 #@! TO.C,J2*
X132514999Y-102645000D03*
X134515000Y-102645000D03*
G04 #@! TD*
G04 #@! TO.C,J6*
X259514999Y-102645000D03*
X261515000Y-102645000D03*
G04 #@! TD*
G04 #@! TO.C,J4*
X183314999Y-102645000D03*
X185315000Y-102645000D03*
G04 #@! TD*
G04 #@! TO.C,J1*
X107114999Y-102645000D03*
X109115000Y-102645000D03*
G04 #@! TD*
G04 #@! TO.C,J8*
X310314999Y-102645000D03*
X312315000Y-102645000D03*
G04 #@! TD*
G04 #@! TO.C,J7*
X284914999Y-102645000D03*
X286915000Y-102645000D03*
G04 #@! TD*
G04 #@! TO.C,J3*
X157914999Y-102645000D03*
X159915000Y-102645000D03*
G04 #@! TD*
G04 #@! TO.C,J5*
X234114999Y-102645000D03*
X236115000Y-102645000D03*
G04 #@! TD*
%LPD*%
M02*
