M48
; DRILL file {KiCad 8.0.8} date 2025-03-20T18:17:03-0700
; FORMAT={-:-/ absolute / metric / decimal}
; #@! TF.CreationDate,2025-03-20T18:17:03-07:00
; #@! TF.GenerationSoftware,Kicad,Pcbnew,8.0.8
; #@! TF.FileFunction,Plated,1,2,PTH
FMAT,2
METRIC
; #@! TA.AperFunction,Plated,PTH,ViaDrill
T1C0.300
; #@! TA.AperFunction,Plated,PTH,ComponentDrill
T2C0.813
; #@! TA.AperFunction,Plated,PTH,ComponentDrill
T3C0.940
; #@! TA.AperFunction,Plated,PTH,ComponentDrill
T4C1.100
; #@! TA.AperFunction,Plated,PTH,ComponentDrill
T5C2.050
%
G90
G05
T1
X103.527Y-98.149
X103.984Y-93.171
X103.984Y-95.533
X128.8Y-95.279
X128.902Y-93.349
X129.333Y-98.302
X154.134Y-98.2
X154.302Y-95.533
X154.378Y-93.323
X179.524Y-95.304
X179.829Y-98.048
X180.514Y-94.034
X230.73Y-95.584
X230.73Y-98.911
X231.213Y-93.323
X255.749Y-95.203
X255.775Y-98.53
X256.333Y-93.323
X281.238Y-95.241
X281.454Y-98.784
X281.733Y-93.476
X306.854Y-98.556
X306.905Y-94.974
X307.235Y-93.145
T2
X107.115Y-102.645
X109.115Y-102.645
X132.515Y-102.645
X134.515Y-102.645
X157.915Y-102.645
X159.915Y-102.645
X183.315Y-102.645
X185.315Y-102.645
X234.115Y-102.645
X236.115Y-102.645
X259.515Y-102.645
X261.515Y-102.645
X284.915Y-102.645
X286.915Y-102.645
X310.315Y-102.645
X312.315Y-102.645
T3
X95.374Y-88.218
X95.374Y-103.458
X120.672Y-88.167
X120.672Y-103.407
X146.072Y-88.167
X146.072Y-103.407
X171.32Y-88.269
X171.32Y-103.509
X222.323Y-88.269
X222.323Y-103.509
X247.469Y-88.269
X247.469Y-103.509
X273.199Y-88.167
X273.199Y-103.407
X298.472Y-88.167
X298.472Y-103.407
T4
X108.48Y-95.66
X133.88Y-95.66
X159.28Y-95.66
X184.68Y-95.66
X235.48Y-95.66
X260.65Y-95.66
X286.28Y-95.66
X311.68Y-95.66
T5
X106.98Y-94.16
X106.98Y-97.16
X109.98Y-94.16
X109.98Y-97.16
X132.38Y-94.16
X132.38Y-97.16
X135.38Y-94.16
X135.38Y-97.16
X157.78Y-94.16
X157.78Y-97.16
X160.78Y-94.16
X160.78Y-97.16
X183.18Y-94.16
X183.18Y-97.16
X186.18Y-94.16
X186.18Y-97.16
X233.98Y-94.16
X233.98Y-97.16
X236.98Y-94.16
X236.98Y-97.16
X259.15Y-94.16
X259.15Y-97.16
X262.15Y-94.16
X262.15Y-97.16
X284.78Y-94.16
X284.78Y-97.16
X287.78Y-94.16
X287.78Y-97.16
X310.18Y-94.16
X310.18Y-97.16
X313.18Y-94.16
X313.18Y-97.16
M30
