G04 #@! TF.GenerationSoftware,KiCad,Pcbnew,8.0.8*
G04 #@! TF.CreationDate,2025-03-20T18:17:03-07:00*
G04 #@! TF.ProjectId,Output Board,4f757470-7574-4204-926f-6172642e6b69,rev?*
G04 #@! TF.SameCoordinates,Original*
G04 #@! TF.FileFunction,Legend,Bot*
G04 #@! TF.FilePolarity,Positive*
%FSLAX46Y46*%
G04 Gerber Fmt 4.6, Leading zero omitted, Abs format (unit mm)*
G04 Created by KiCad (PCBNEW 8.0.8) date 2025-03-20 18:17:03*
%MOMM*%
%LPD*%
G01*
G04 APERTURE LIST*
G04 Aperture macros list*
%AMRoundRect*
0 Rectangle with rounded corners*
0 $1 Rounding radius*
0 $2 $3 $4 $5 $6 $7 $8 $9 X,Y pos of 4 corners*
0 Add a 4 corners polygon primitive as box body*
4,1,4,$2,$3,$4,$5,$6,$7,$8,$9,$2,$3,0*
0 Add four circle primitives for the rounded corners*
1,1,$1+$1,$2,$3*
1,1,$1+$1,$4,$5*
1,1,$1+$1,$6,$7*
1,1,$1+$1,$8,$9*
0 Add four rect primitives between the rounded corners*
20,1,$1+$1,$2,$3,$4,$5,0*
20,1,$1+$1,$4,$5,$6,$7,0*
20,1,$1+$1,$6,$7,$8,$9,0*
20,1,$1+$1,$8,$9,$2,$3,0*%
G04 Aperture macros list end*
%ADD10C,0.150000*%
%ADD11C,0.120000*%
%ADD12C,0.152400*%
%ADD13C,0.508000*%
%ADD14C,2.604000*%
%ADD15C,1.350000*%
%ADD16RoundRect,0.250000X-0.262500X-0.450000X0.262500X-0.450000X0.262500X0.450000X-0.262500X0.450000X0*%
%ADD17RoundRect,0.250000X-0.250000X-0.475000X0.250000X-0.475000X0.250000X0.475000X-0.250000X0.475000X0*%
%ADD18C,3.000000*%
%ADD19C,1.447800*%
%ADD20R,1.447800X1.447800*%
%ADD21C,1.320800*%
G04 APERTURE END LIST*
D10*
X279334666Y-94489219D02*
X279667999Y-94013028D01*
X279906094Y-94489219D02*
X279906094Y-93489219D01*
X279906094Y-93489219D02*
X279525142Y-93489219D01*
X279525142Y-93489219D02*
X279429904Y-93536838D01*
X279429904Y-93536838D02*
X279382285Y-93584457D01*
X279382285Y-93584457D02*
X279334666Y-93679695D01*
X279334666Y-93679695D02*
X279334666Y-93822552D01*
X279334666Y-93822552D02*
X279382285Y-93917790D01*
X279382285Y-93917790D02*
X279429904Y-93965409D01*
X279429904Y-93965409D02*
X279525142Y-94013028D01*
X279525142Y-94013028D02*
X279906094Y-94013028D01*
X279001332Y-93489219D02*
X278334666Y-93489219D01*
X278334666Y-93489219D02*
X278763237Y-94489219D01*
X229036257Y-97899180D02*
X229083876Y-97946800D01*
X229083876Y-97946800D02*
X229226733Y-97994419D01*
X229226733Y-97994419D02*
X229321971Y-97994419D01*
X229321971Y-97994419D02*
X229464828Y-97946800D01*
X229464828Y-97946800D02*
X229560066Y-97851561D01*
X229560066Y-97851561D02*
X229607685Y-97756323D01*
X229607685Y-97756323D02*
X229655304Y-97565847D01*
X229655304Y-97565847D02*
X229655304Y-97422990D01*
X229655304Y-97422990D02*
X229607685Y-97232514D01*
X229607685Y-97232514D02*
X229560066Y-97137276D01*
X229560066Y-97137276D02*
X229464828Y-97042038D01*
X229464828Y-97042038D02*
X229321971Y-96994419D01*
X229321971Y-96994419D02*
X229226733Y-96994419D01*
X229226733Y-96994419D02*
X229083876Y-97042038D01*
X229083876Y-97042038D02*
X229036257Y-97089657D01*
X228083876Y-97994419D02*
X228655304Y-97994419D01*
X228369590Y-97994419D02*
X228369590Y-96994419D01*
X228369590Y-96994419D02*
X228464828Y-97137276D01*
X228464828Y-97137276D02*
X228560066Y-97232514D01*
X228560066Y-97232514D02*
X228655304Y-97280133D01*
X227464828Y-96994419D02*
X227369590Y-96994419D01*
X227369590Y-96994419D02*
X227274352Y-97042038D01*
X227274352Y-97042038D02*
X227226733Y-97089657D01*
X227226733Y-97089657D02*
X227179114Y-97184895D01*
X227179114Y-97184895D02*
X227131495Y-97375371D01*
X227131495Y-97375371D02*
X227131495Y-97613466D01*
X227131495Y-97613466D02*
X227179114Y-97803942D01*
X227179114Y-97803942D02*
X227226733Y-97899180D01*
X227226733Y-97899180D02*
X227274352Y-97946800D01*
X227274352Y-97946800D02*
X227369590Y-97994419D01*
X227369590Y-97994419D02*
X227464828Y-97994419D01*
X227464828Y-97994419D02*
X227560066Y-97946800D01*
X227560066Y-97946800D02*
X227607685Y-97899180D01*
X227607685Y-97899180D02*
X227655304Y-97803942D01*
X227655304Y-97803942D02*
X227702923Y-97613466D01*
X227702923Y-97613466D02*
X227702923Y-97375371D01*
X227702923Y-97375371D02*
X227655304Y-97184895D01*
X227655304Y-97184895D02*
X227607685Y-97089657D01*
X227607685Y-97089657D02*
X227560066Y-97042038D01*
X227560066Y-97042038D02*
X227464828Y-96994419D01*
X95828419Y-95518733D02*
X95828419Y-95042543D01*
X95828419Y-95042543D02*
X94828419Y-95042543D01*
X95828419Y-96375876D02*
X95828419Y-95804448D01*
X95828419Y-96090162D02*
X94828419Y-96090162D01*
X94828419Y-96090162D02*
X94971276Y-95994924D01*
X94971276Y-95994924D02*
X95066514Y-95899686D01*
X95066514Y-95899686D02*
X95114133Y-95804448D01*
X305134657Y-97594380D02*
X305182276Y-97642000D01*
X305182276Y-97642000D02*
X305325133Y-97689619D01*
X305325133Y-97689619D02*
X305420371Y-97689619D01*
X305420371Y-97689619D02*
X305563228Y-97642000D01*
X305563228Y-97642000D02*
X305658466Y-97546761D01*
X305658466Y-97546761D02*
X305706085Y-97451523D01*
X305706085Y-97451523D02*
X305753704Y-97261047D01*
X305753704Y-97261047D02*
X305753704Y-97118190D01*
X305753704Y-97118190D02*
X305706085Y-96927714D01*
X305706085Y-96927714D02*
X305658466Y-96832476D01*
X305658466Y-96832476D02*
X305563228Y-96737238D01*
X305563228Y-96737238D02*
X305420371Y-96689619D01*
X305420371Y-96689619D02*
X305325133Y-96689619D01*
X305325133Y-96689619D02*
X305182276Y-96737238D01*
X305182276Y-96737238D02*
X305134657Y-96784857D01*
X304182276Y-97689619D02*
X304753704Y-97689619D01*
X304467990Y-97689619D02*
X304467990Y-96689619D01*
X304467990Y-96689619D02*
X304563228Y-96832476D01*
X304563228Y-96832476D02*
X304658466Y-96927714D01*
X304658466Y-96927714D02*
X304753704Y-96975333D01*
X303325133Y-96689619D02*
X303515609Y-96689619D01*
X303515609Y-96689619D02*
X303610847Y-96737238D01*
X303610847Y-96737238D02*
X303658466Y-96784857D01*
X303658466Y-96784857D02*
X303753704Y-96927714D01*
X303753704Y-96927714D02*
X303801323Y-97118190D01*
X303801323Y-97118190D02*
X303801323Y-97499142D01*
X303801323Y-97499142D02*
X303753704Y-97594380D01*
X303753704Y-97594380D02*
X303706085Y-97642000D01*
X303706085Y-97642000D02*
X303610847Y-97689619D01*
X303610847Y-97689619D02*
X303420371Y-97689619D01*
X303420371Y-97689619D02*
X303325133Y-97642000D01*
X303325133Y-97642000D02*
X303277514Y-97594380D01*
X303277514Y-97594380D02*
X303229895Y-97499142D01*
X303229895Y-97499142D02*
X303229895Y-97261047D01*
X303229895Y-97261047D02*
X303277514Y-97165809D01*
X303277514Y-97165809D02*
X303325133Y-97118190D01*
X303325133Y-97118190D02*
X303420371Y-97070571D01*
X303420371Y-97070571D02*
X303610847Y-97070571D01*
X303610847Y-97070571D02*
X303706085Y-97118190D01*
X303706085Y-97118190D02*
X303753704Y-97165809D01*
X303753704Y-97165809D02*
X303801323Y-97261047D01*
X228534666Y-90812580D02*
X228582285Y-90860200D01*
X228582285Y-90860200D02*
X228725142Y-90907819D01*
X228725142Y-90907819D02*
X228820380Y-90907819D01*
X228820380Y-90907819D02*
X228963237Y-90860200D01*
X228963237Y-90860200D02*
X229058475Y-90764961D01*
X229058475Y-90764961D02*
X229106094Y-90669723D01*
X229106094Y-90669723D02*
X229153713Y-90479247D01*
X229153713Y-90479247D02*
X229153713Y-90336390D01*
X229153713Y-90336390D02*
X229106094Y-90145914D01*
X229106094Y-90145914D02*
X229058475Y-90050676D01*
X229058475Y-90050676D02*
X228963237Y-89955438D01*
X228963237Y-89955438D02*
X228820380Y-89907819D01*
X228820380Y-89907819D02*
X228725142Y-89907819D01*
X228725142Y-89907819D02*
X228582285Y-89955438D01*
X228582285Y-89955438D02*
X228534666Y-90003057D01*
X228058475Y-90907819D02*
X227867999Y-90907819D01*
X227867999Y-90907819D02*
X227772761Y-90860200D01*
X227772761Y-90860200D02*
X227725142Y-90812580D01*
X227725142Y-90812580D02*
X227629904Y-90669723D01*
X227629904Y-90669723D02*
X227582285Y-90479247D01*
X227582285Y-90479247D02*
X227582285Y-90098295D01*
X227582285Y-90098295D02*
X227629904Y-90003057D01*
X227629904Y-90003057D02*
X227677523Y-89955438D01*
X227677523Y-89955438D02*
X227772761Y-89907819D01*
X227772761Y-89907819D02*
X227963237Y-89907819D01*
X227963237Y-89907819D02*
X228058475Y-89955438D01*
X228058475Y-89955438D02*
X228106094Y-90003057D01*
X228106094Y-90003057D02*
X228153713Y-90098295D01*
X228153713Y-90098295D02*
X228153713Y-90336390D01*
X228153713Y-90336390D02*
X228106094Y-90431628D01*
X228106094Y-90431628D02*
X228058475Y-90479247D01*
X228058475Y-90479247D02*
X227963237Y-90526866D01*
X227963237Y-90526866D02*
X227772761Y-90526866D01*
X227772761Y-90526866D02*
X227677523Y-90479247D01*
X227677523Y-90479247D02*
X227629904Y-90431628D01*
X227629904Y-90431628D02*
X227582285Y-90336390D01*
X305210857Y-90685580D02*
X305258476Y-90733200D01*
X305258476Y-90733200D02*
X305401333Y-90780819D01*
X305401333Y-90780819D02*
X305496571Y-90780819D01*
X305496571Y-90780819D02*
X305639428Y-90733200D01*
X305639428Y-90733200D02*
X305734666Y-90637961D01*
X305734666Y-90637961D02*
X305782285Y-90542723D01*
X305782285Y-90542723D02*
X305829904Y-90352247D01*
X305829904Y-90352247D02*
X305829904Y-90209390D01*
X305829904Y-90209390D02*
X305782285Y-90018914D01*
X305782285Y-90018914D02*
X305734666Y-89923676D01*
X305734666Y-89923676D02*
X305639428Y-89828438D01*
X305639428Y-89828438D02*
X305496571Y-89780819D01*
X305496571Y-89780819D02*
X305401333Y-89780819D01*
X305401333Y-89780819D02*
X305258476Y-89828438D01*
X305258476Y-89828438D02*
X305210857Y-89876057D01*
X304258476Y-90780819D02*
X304829904Y-90780819D01*
X304544190Y-90780819D02*
X304544190Y-89780819D01*
X304544190Y-89780819D02*
X304639428Y-89923676D01*
X304639428Y-89923676D02*
X304734666Y-90018914D01*
X304734666Y-90018914D02*
X304829904Y-90066533D01*
X303353714Y-89780819D02*
X303829904Y-89780819D01*
X303829904Y-89780819D02*
X303877523Y-90257009D01*
X303877523Y-90257009D02*
X303829904Y-90209390D01*
X303829904Y-90209390D02*
X303734666Y-90161771D01*
X303734666Y-90161771D02*
X303496571Y-90161771D01*
X303496571Y-90161771D02*
X303401333Y-90209390D01*
X303401333Y-90209390D02*
X303353714Y-90257009D01*
X303353714Y-90257009D02*
X303306095Y-90352247D01*
X303306095Y-90352247D02*
X303306095Y-90590342D01*
X303306095Y-90590342D02*
X303353714Y-90685580D01*
X303353714Y-90685580D02*
X303401333Y-90733200D01*
X303401333Y-90733200D02*
X303496571Y-90780819D01*
X303496571Y-90780819D02*
X303734666Y-90780819D01*
X303734666Y-90780819D02*
X303829904Y-90733200D01*
X303829904Y-90733200D02*
X303877523Y-90685580D01*
X146501419Y-95594933D02*
X146501419Y-95118743D01*
X146501419Y-95118743D02*
X145501419Y-95118743D01*
X145501419Y-95833029D02*
X145501419Y-96452076D01*
X145501419Y-96452076D02*
X145882371Y-96118743D01*
X145882371Y-96118743D02*
X145882371Y-96261600D01*
X145882371Y-96261600D02*
X145929990Y-96356838D01*
X145929990Y-96356838D02*
X145977609Y-96404457D01*
X145977609Y-96404457D02*
X146072847Y-96452076D01*
X146072847Y-96452076D02*
X146310942Y-96452076D01*
X146310942Y-96452076D02*
X146406180Y-96404457D01*
X146406180Y-96404457D02*
X146453800Y-96356838D01*
X146453800Y-96356838D02*
X146501419Y-96261600D01*
X146501419Y-96261600D02*
X146501419Y-95975886D01*
X146501419Y-95975886D02*
X146453800Y-95880648D01*
X146453800Y-95880648D02*
X146406180Y-95833029D01*
X101610866Y-90837980D02*
X101658485Y-90885600D01*
X101658485Y-90885600D02*
X101801342Y-90933219D01*
X101801342Y-90933219D02*
X101896580Y-90933219D01*
X101896580Y-90933219D02*
X102039437Y-90885600D01*
X102039437Y-90885600D02*
X102134675Y-90790361D01*
X102134675Y-90790361D02*
X102182294Y-90695123D01*
X102182294Y-90695123D02*
X102229913Y-90504647D01*
X102229913Y-90504647D02*
X102229913Y-90361790D01*
X102229913Y-90361790D02*
X102182294Y-90171314D01*
X102182294Y-90171314D02*
X102134675Y-90076076D01*
X102134675Y-90076076D02*
X102039437Y-89980838D01*
X102039437Y-89980838D02*
X101896580Y-89933219D01*
X101896580Y-89933219D02*
X101801342Y-89933219D01*
X101801342Y-89933219D02*
X101658485Y-89980838D01*
X101658485Y-89980838D02*
X101610866Y-90028457D01*
X100658485Y-90933219D02*
X101229913Y-90933219D01*
X100944199Y-90933219D02*
X100944199Y-89933219D01*
X100944199Y-89933219D02*
X101039437Y-90076076D01*
X101039437Y-90076076D02*
X101134675Y-90171314D01*
X101134675Y-90171314D02*
X101229913Y-90218933D01*
X228509266Y-94489219D02*
X228842599Y-94013028D01*
X229080694Y-94489219D02*
X229080694Y-93489219D01*
X229080694Y-93489219D02*
X228699742Y-93489219D01*
X228699742Y-93489219D02*
X228604504Y-93536838D01*
X228604504Y-93536838D02*
X228556885Y-93584457D01*
X228556885Y-93584457D02*
X228509266Y-93679695D01*
X228509266Y-93679695D02*
X228509266Y-93822552D01*
X228509266Y-93822552D02*
X228556885Y-93917790D01*
X228556885Y-93917790D02*
X228604504Y-93965409D01*
X228604504Y-93965409D02*
X228699742Y-94013028D01*
X228699742Y-94013028D02*
X229080694Y-94013028D01*
X227604504Y-93489219D02*
X228080694Y-93489219D01*
X228080694Y-93489219D02*
X228128313Y-93965409D01*
X228128313Y-93965409D02*
X228080694Y-93917790D01*
X228080694Y-93917790D02*
X227985456Y-93870171D01*
X227985456Y-93870171D02*
X227747361Y-93870171D01*
X227747361Y-93870171D02*
X227652123Y-93917790D01*
X227652123Y-93917790D02*
X227604504Y-93965409D01*
X227604504Y-93965409D02*
X227556885Y-94060647D01*
X227556885Y-94060647D02*
X227556885Y-94298742D01*
X227556885Y-94298742D02*
X227604504Y-94393980D01*
X227604504Y-94393980D02*
X227652123Y-94441600D01*
X227652123Y-94441600D02*
X227747361Y-94489219D01*
X227747361Y-94489219D02*
X227985456Y-94489219D01*
X227985456Y-94489219D02*
X228080694Y-94441600D01*
X228080694Y-94441600D02*
X228128313Y-94393980D01*
X273653819Y-95645733D02*
X273653819Y-95169543D01*
X273653819Y-95169543D02*
X272653819Y-95169543D01*
X272653819Y-95883829D02*
X272653819Y-96550495D01*
X272653819Y-96550495D02*
X273653819Y-96121924D01*
X152360066Y-97949980D02*
X152407685Y-97997600D01*
X152407685Y-97997600D02*
X152550542Y-98045219D01*
X152550542Y-98045219D02*
X152645780Y-98045219D01*
X152645780Y-98045219D02*
X152788637Y-97997600D01*
X152788637Y-97997600D02*
X152883875Y-97902361D01*
X152883875Y-97902361D02*
X152931494Y-97807123D01*
X152931494Y-97807123D02*
X152979113Y-97616647D01*
X152979113Y-97616647D02*
X152979113Y-97473790D01*
X152979113Y-97473790D02*
X152931494Y-97283314D01*
X152931494Y-97283314D02*
X152883875Y-97188076D01*
X152883875Y-97188076D02*
X152788637Y-97092838D01*
X152788637Y-97092838D02*
X152645780Y-97045219D01*
X152645780Y-97045219D02*
X152550542Y-97045219D01*
X152550542Y-97045219D02*
X152407685Y-97092838D01*
X152407685Y-97092838D02*
X152360066Y-97140457D01*
X151502923Y-97045219D02*
X151693399Y-97045219D01*
X151693399Y-97045219D02*
X151788637Y-97092838D01*
X151788637Y-97092838D02*
X151836256Y-97140457D01*
X151836256Y-97140457D02*
X151931494Y-97283314D01*
X151931494Y-97283314D02*
X151979113Y-97473790D01*
X151979113Y-97473790D02*
X151979113Y-97854742D01*
X151979113Y-97854742D02*
X151931494Y-97949980D01*
X151931494Y-97949980D02*
X151883875Y-97997600D01*
X151883875Y-97997600D02*
X151788637Y-98045219D01*
X151788637Y-98045219D02*
X151598161Y-98045219D01*
X151598161Y-98045219D02*
X151502923Y-97997600D01*
X151502923Y-97997600D02*
X151455304Y-97949980D01*
X151455304Y-97949980D02*
X151407685Y-97854742D01*
X151407685Y-97854742D02*
X151407685Y-97616647D01*
X151407685Y-97616647D02*
X151455304Y-97521409D01*
X151455304Y-97521409D02*
X151502923Y-97473790D01*
X151502923Y-97473790D02*
X151598161Y-97426171D01*
X151598161Y-97426171D02*
X151788637Y-97426171D01*
X151788637Y-97426171D02*
X151883875Y-97473790D01*
X151883875Y-97473790D02*
X151931494Y-97521409D01*
X151931494Y-97521409D02*
X151979113Y-97616647D01*
X101636266Y-94514619D02*
X101969599Y-94038428D01*
X102207694Y-94514619D02*
X102207694Y-93514619D01*
X102207694Y-93514619D02*
X101826742Y-93514619D01*
X101826742Y-93514619D02*
X101731504Y-93562238D01*
X101731504Y-93562238D02*
X101683885Y-93609857D01*
X101683885Y-93609857D02*
X101636266Y-93705095D01*
X101636266Y-93705095D02*
X101636266Y-93847952D01*
X101636266Y-93847952D02*
X101683885Y-93943190D01*
X101683885Y-93943190D02*
X101731504Y-93990809D01*
X101731504Y-93990809D02*
X101826742Y-94038428D01*
X101826742Y-94038428D02*
X102207694Y-94038428D01*
X100683885Y-94514619D02*
X101255313Y-94514619D01*
X100969599Y-94514619D02*
X100969599Y-93514619D01*
X100969599Y-93514619D02*
X101064837Y-93657476D01*
X101064837Y-93657476D02*
X101160075Y-93752714D01*
X101160075Y-93752714D02*
X101255313Y-93800333D01*
X121050619Y-95620333D02*
X121050619Y-95144143D01*
X121050619Y-95144143D02*
X120050619Y-95144143D01*
X120145857Y-95906048D02*
X120098238Y-95953667D01*
X120098238Y-95953667D02*
X120050619Y-96048905D01*
X120050619Y-96048905D02*
X120050619Y-96287000D01*
X120050619Y-96287000D02*
X120098238Y-96382238D01*
X120098238Y-96382238D02*
X120145857Y-96429857D01*
X120145857Y-96429857D02*
X120241095Y-96477476D01*
X120241095Y-96477476D02*
X120336333Y-96477476D01*
X120336333Y-96477476D02*
X120479190Y-96429857D01*
X120479190Y-96429857D02*
X121050619Y-95858429D01*
X121050619Y-95858429D02*
X121050619Y-96477476D01*
X126934666Y-90812580D02*
X126982285Y-90860200D01*
X126982285Y-90860200D02*
X127125142Y-90907819D01*
X127125142Y-90907819D02*
X127220380Y-90907819D01*
X127220380Y-90907819D02*
X127363237Y-90860200D01*
X127363237Y-90860200D02*
X127458475Y-90764961D01*
X127458475Y-90764961D02*
X127506094Y-90669723D01*
X127506094Y-90669723D02*
X127553713Y-90479247D01*
X127553713Y-90479247D02*
X127553713Y-90336390D01*
X127553713Y-90336390D02*
X127506094Y-90145914D01*
X127506094Y-90145914D02*
X127458475Y-90050676D01*
X127458475Y-90050676D02*
X127363237Y-89955438D01*
X127363237Y-89955438D02*
X127220380Y-89907819D01*
X127220380Y-89907819D02*
X127125142Y-89907819D01*
X127125142Y-89907819D02*
X126982285Y-89955438D01*
X126982285Y-89955438D02*
X126934666Y-90003057D01*
X126601332Y-89907819D02*
X125982285Y-89907819D01*
X125982285Y-89907819D02*
X126315618Y-90288771D01*
X126315618Y-90288771D02*
X126172761Y-90288771D01*
X126172761Y-90288771D02*
X126077523Y-90336390D01*
X126077523Y-90336390D02*
X126029904Y-90384009D01*
X126029904Y-90384009D02*
X125982285Y-90479247D01*
X125982285Y-90479247D02*
X125982285Y-90717342D01*
X125982285Y-90717342D02*
X126029904Y-90812580D01*
X126029904Y-90812580D02*
X126077523Y-90860200D01*
X126077523Y-90860200D02*
X126172761Y-90907819D01*
X126172761Y-90907819D02*
X126458475Y-90907819D01*
X126458475Y-90907819D02*
X126553713Y-90860200D01*
X126553713Y-90860200D02*
X126601332Y-90812580D01*
X177760066Y-97873780D02*
X177807685Y-97921400D01*
X177807685Y-97921400D02*
X177950542Y-97969019D01*
X177950542Y-97969019D02*
X178045780Y-97969019D01*
X178045780Y-97969019D02*
X178188637Y-97921400D01*
X178188637Y-97921400D02*
X178283875Y-97826161D01*
X178283875Y-97826161D02*
X178331494Y-97730923D01*
X178331494Y-97730923D02*
X178379113Y-97540447D01*
X178379113Y-97540447D02*
X178379113Y-97397590D01*
X178379113Y-97397590D02*
X178331494Y-97207114D01*
X178331494Y-97207114D02*
X178283875Y-97111876D01*
X178283875Y-97111876D02*
X178188637Y-97016638D01*
X178188637Y-97016638D02*
X178045780Y-96969019D01*
X178045780Y-96969019D02*
X177950542Y-96969019D01*
X177950542Y-96969019D02*
X177807685Y-97016638D01*
X177807685Y-97016638D02*
X177760066Y-97064257D01*
X177188637Y-97397590D02*
X177283875Y-97349971D01*
X177283875Y-97349971D02*
X177331494Y-97302352D01*
X177331494Y-97302352D02*
X177379113Y-97207114D01*
X177379113Y-97207114D02*
X177379113Y-97159495D01*
X177379113Y-97159495D02*
X177331494Y-97064257D01*
X177331494Y-97064257D02*
X177283875Y-97016638D01*
X177283875Y-97016638D02*
X177188637Y-96969019D01*
X177188637Y-96969019D02*
X176998161Y-96969019D01*
X176998161Y-96969019D02*
X176902923Y-97016638D01*
X176902923Y-97016638D02*
X176855304Y-97064257D01*
X176855304Y-97064257D02*
X176807685Y-97159495D01*
X176807685Y-97159495D02*
X176807685Y-97207114D01*
X176807685Y-97207114D02*
X176855304Y-97302352D01*
X176855304Y-97302352D02*
X176902923Y-97349971D01*
X176902923Y-97349971D02*
X176998161Y-97397590D01*
X176998161Y-97397590D02*
X177188637Y-97397590D01*
X177188637Y-97397590D02*
X177283875Y-97445209D01*
X177283875Y-97445209D02*
X177331494Y-97492828D01*
X177331494Y-97492828D02*
X177379113Y-97588066D01*
X177379113Y-97588066D02*
X177379113Y-97778542D01*
X177379113Y-97778542D02*
X177331494Y-97873780D01*
X177331494Y-97873780D02*
X177283875Y-97921400D01*
X177283875Y-97921400D02*
X177188637Y-97969019D01*
X177188637Y-97969019D02*
X176998161Y-97969019D01*
X176998161Y-97969019D02*
X176902923Y-97921400D01*
X176902923Y-97921400D02*
X176855304Y-97873780D01*
X176855304Y-97873780D02*
X176807685Y-97778542D01*
X176807685Y-97778542D02*
X176807685Y-97588066D01*
X176807685Y-97588066D02*
X176855304Y-97492828D01*
X176855304Y-97492828D02*
X176902923Y-97445209D01*
X176902923Y-97445209D02*
X176998161Y-97397590D01*
X304734666Y-94235219D02*
X305067999Y-93759028D01*
X305306094Y-94235219D02*
X305306094Y-93235219D01*
X305306094Y-93235219D02*
X304925142Y-93235219D01*
X304925142Y-93235219D02*
X304829904Y-93282838D01*
X304829904Y-93282838D02*
X304782285Y-93330457D01*
X304782285Y-93330457D02*
X304734666Y-93425695D01*
X304734666Y-93425695D02*
X304734666Y-93568552D01*
X304734666Y-93568552D02*
X304782285Y-93663790D01*
X304782285Y-93663790D02*
X304829904Y-93711409D01*
X304829904Y-93711409D02*
X304925142Y-93759028D01*
X304925142Y-93759028D02*
X305306094Y-93759028D01*
X304163237Y-93663790D02*
X304258475Y-93616171D01*
X304258475Y-93616171D02*
X304306094Y-93568552D01*
X304306094Y-93568552D02*
X304353713Y-93473314D01*
X304353713Y-93473314D02*
X304353713Y-93425695D01*
X304353713Y-93425695D02*
X304306094Y-93330457D01*
X304306094Y-93330457D02*
X304258475Y-93282838D01*
X304258475Y-93282838D02*
X304163237Y-93235219D01*
X304163237Y-93235219D02*
X303972761Y-93235219D01*
X303972761Y-93235219D02*
X303877523Y-93282838D01*
X303877523Y-93282838D02*
X303829904Y-93330457D01*
X303829904Y-93330457D02*
X303782285Y-93425695D01*
X303782285Y-93425695D02*
X303782285Y-93473314D01*
X303782285Y-93473314D02*
X303829904Y-93568552D01*
X303829904Y-93568552D02*
X303877523Y-93616171D01*
X303877523Y-93616171D02*
X303972761Y-93663790D01*
X303972761Y-93663790D02*
X304163237Y-93663790D01*
X304163237Y-93663790D02*
X304258475Y-93711409D01*
X304258475Y-93711409D02*
X304306094Y-93759028D01*
X304306094Y-93759028D02*
X304353713Y-93854266D01*
X304353713Y-93854266D02*
X304353713Y-94044742D01*
X304353713Y-94044742D02*
X304306094Y-94139980D01*
X304306094Y-94139980D02*
X304258475Y-94187600D01*
X304258475Y-94187600D02*
X304163237Y-94235219D01*
X304163237Y-94235219D02*
X303972761Y-94235219D01*
X303972761Y-94235219D02*
X303877523Y-94187600D01*
X303877523Y-94187600D02*
X303829904Y-94139980D01*
X303829904Y-94139980D02*
X303782285Y-94044742D01*
X303782285Y-94044742D02*
X303782285Y-93854266D01*
X303782285Y-93854266D02*
X303829904Y-93759028D01*
X303829904Y-93759028D02*
X303877523Y-93711409D01*
X303877523Y-93711409D02*
X303972761Y-93663790D01*
X177683866Y-94438419D02*
X178017199Y-93962228D01*
X178255294Y-94438419D02*
X178255294Y-93438419D01*
X178255294Y-93438419D02*
X177874342Y-93438419D01*
X177874342Y-93438419D02*
X177779104Y-93486038D01*
X177779104Y-93486038D02*
X177731485Y-93533657D01*
X177731485Y-93533657D02*
X177683866Y-93628895D01*
X177683866Y-93628895D02*
X177683866Y-93771752D01*
X177683866Y-93771752D02*
X177731485Y-93866990D01*
X177731485Y-93866990D02*
X177779104Y-93914609D01*
X177779104Y-93914609D02*
X177874342Y-93962228D01*
X177874342Y-93962228D02*
X178255294Y-93962228D01*
X176826723Y-93771752D02*
X176826723Y-94438419D01*
X177064818Y-93390800D02*
X177302913Y-94105085D01*
X177302913Y-94105085D02*
X176683866Y-94105085D01*
X101610866Y-97899180D02*
X101658485Y-97946800D01*
X101658485Y-97946800D02*
X101801342Y-97994419D01*
X101801342Y-97994419D02*
X101896580Y-97994419D01*
X101896580Y-97994419D02*
X102039437Y-97946800D01*
X102039437Y-97946800D02*
X102134675Y-97851561D01*
X102134675Y-97851561D02*
X102182294Y-97756323D01*
X102182294Y-97756323D02*
X102229913Y-97565847D01*
X102229913Y-97565847D02*
X102229913Y-97422990D01*
X102229913Y-97422990D02*
X102182294Y-97232514D01*
X102182294Y-97232514D02*
X102134675Y-97137276D01*
X102134675Y-97137276D02*
X102039437Y-97042038D01*
X102039437Y-97042038D02*
X101896580Y-96994419D01*
X101896580Y-96994419D02*
X101801342Y-96994419D01*
X101801342Y-96994419D02*
X101658485Y-97042038D01*
X101658485Y-97042038D02*
X101610866Y-97089657D01*
X101229913Y-97089657D02*
X101182294Y-97042038D01*
X101182294Y-97042038D02*
X101087056Y-96994419D01*
X101087056Y-96994419D02*
X100848961Y-96994419D01*
X100848961Y-96994419D02*
X100753723Y-97042038D01*
X100753723Y-97042038D02*
X100706104Y-97089657D01*
X100706104Y-97089657D02*
X100658485Y-97184895D01*
X100658485Y-97184895D02*
X100658485Y-97280133D01*
X100658485Y-97280133D02*
X100706104Y-97422990D01*
X100706104Y-97422990D02*
X101277532Y-97994419D01*
X101277532Y-97994419D02*
X100658485Y-97994419D01*
X152393766Y-94489219D02*
X152727099Y-94013028D01*
X152965194Y-94489219D02*
X152965194Y-93489219D01*
X152965194Y-93489219D02*
X152584242Y-93489219D01*
X152584242Y-93489219D02*
X152489004Y-93536838D01*
X152489004Y-93536838D02*
X152441385Y-93584457D01*
X152441385Y-93584457D02*
X152393766Y-93679695D01*
X152393766Y-93679695D02*
X152393766Y-93822552D01*
X152393766Y-93822552D02*
X152441385Y-93917790D01*
X152441385Y-93917790D02*
X152489004Y-93965409D01*
X152489004Y-93965409D02*
X152584242Y-94013028D01*
X152584242Y-94013028D02*
X152965194Y-94013028D01*
X152060432Y-93489219D02*
X151441385Y-93489219D01*
X151441385Y-93489219D02*
X151774718Y-93870171D01*
X151774718Y-93870171D02*
X151631861Y-93870171D01*
X151631861Y-93870171D02*
X151536623Y-93917790D01*
X151536623Y-93917790D02*
X151489004Y-93965409D01*
X151489004Y-93965409D02*
X151441385Y-94060647D01*
X151441385Y-94060647D02*
X151441385Y-94298742D01*
X151441385Y-94298742D02*
X151489004Y-94393980D01*
X151489004Y-94393980D02*
X151536623Y-94441600D01*
X151536623Y-94441600D02*
X151631861Y-94489219D01*
X151631861Y-94489219D02*
X151917575Y-94489219D01*
X151917575Y-94489219D02*
X152012813Y-94441600D01*
X152012813Y-94441600D02*
X152060432Y-94393980D01*
X222777619Y-95798133D02*
X222777619Y-95321943D01*
X222777619Y-95321943D02*
X221777619Y-95321943D01*
X221777619Y-96607657D02*
X221777619Y-96131467D01*
X221777619Y-96131467D02*
X222253809Y-96083848D01*
X222253809Y-96083848D02*
X222206190Y-96131467D01*
X222206190Y-96131467D02*
X222158571Y-96226705D01*
X222158571Y-96226705D02*
X222158571Y-96464800D01*
X222158571Y-96464800D02*
X222206190Y-96560038D01*
X222206190Y-96560038D02*
X222253809Y-96607657D01*
X222253809Y-96607657D02*
X222349047Y-96655276D01*
X222349047Y-96655276D02*
X222587142Y-96655276D01*
X222587142Y-96655276D02*
X222682380Y-96607657D01*
X222682380Y-96607657D02*
X222730000Y-96560038D01*
X222730000Y-96560038D02*
X222777619Y-96464800D01*
X222777619Y-96464800D02*
X222777619Y-96226705D01*
X222777619Y-96226705D02*
X222730000Y-96131467D01*
X222730000Y-96131467D02*
X222682380Y-96083848D01*
X254233057Y-90812580D02*
X254280676Y-90860200D01*
X254280676Y-90860200D02*
X254423533Y-90907819D01*
X254423533Y-90907819D02*
X254518771Y-90907819D01*
X254518771Y-90907819D02*
X254661628Y-90860200D01*
X254661628Y-90860200D02*
X254756866Y-90764961D01*
X254756866Y-90764961D02*
X254804485Y-90669723D01*
X254804485Y-90669723D02*
X254852104Y-90479247D01*
X254852104Y-90479247D02*
X254852104Y-90336390D01*
X254852104Y-90336390D02*
X254804485Y-90145914D01*
X254804485Y-90145914D02*
X254756866Y-90050676D01*
X254756866Y-90050676D02*
X254661628Y-89955438D01*
X254661628Y-89955438D02*
X254518771Y-89907819D01*
X254518771Y-89907819D02*
X254423533Y-89907819D01*
X254423533Y-89907819D02*
X254280676Y-89955438D01*
X254280676Y-89955438D02*
X254233057Y-90003057D01*
X253280676Y-90907819D02*
X253852104Y-90907819D01*
X253566390Y-90907819D02*
X253566390Y-89907819D01*
X253566390Y-89907819D02*
X253661628Y-90050676D01*
X253661628Y-90050676D02*
X253756866Y-90145914D01*
X253756866Y-90145914D02*
X253852104Y-90193533D01*
X252328295Y-90907819D02*
X252899723Y-90907819D01*
X252614009Y-90907819D02*
X252614009Y-89907819D01*
X252614009Y-89907819D02*
X252709247Y-90050676D01*
X252709247Y-90050676D02*
X252804485Y-90145914D01*
X252804485Y-90145914D02*
X252899723Y-90193533D01*
X177607666Y-90787180D02*
X177655285Y-90834800D01*
X177655285Y-90834800D02*
X177798142Y-90882419D01*
X177798142Y-90882419D02*
X177893380Y-90882419D01*
X177893380Y-90882419D02*
X178036237Y-90834800D01*
X178036237Y-90834800D02*
X178131475Y-90739561D01*
X178131475Y-90739561D02*
X178179094Y-90644323D01*
X178179094Y-90644323D02*
X178226713Y-90453847D01*
X178226713Y-90453847D02*
X178226713Y-90310990D01*
X178226713Y-90310990D02*
X178179094Y-90120514D01*
X178179094Y-90120514D02*
X178131475Y-90025276D01*
X178131475Y-90025276D02*
X178036237Y-89930038D01*
X178036237Y-89930038D02*
X177893380Y-89882419D01*
X177893380Y-89882419D02*
X177798142Y-89882419D01*
X177798142Y-89882419D02*
X177655285Y-89930038D01*
X177655285Y-89930038D02*
X177607666Y-89977657D01*
X177274332Y-89882419D02*
X176607666Y-89882419D01*
X176607666Y-89882419D02*
X177036237Y-90882419D01*
X254258457Y-97772180D02*
X254306076Y-97819800D01*
X254306076Y-97819800D02*
X254448933Y-97867419D01*
X254448933Y-97867419D02*
X254544171Y-97867419D01*
X254544171Y-97867419D02*
X254687028Y-97819800D01*
X254687028Y-97819800D02*
X254782266Y-97724561D01*
X254782266Y-97724561D02*
X254829885Y-97629323D01*
X254829885Y-97629323D02*
X254877504Y-97438847D01*
X254877504Y-97438847D02*
X254877504Y-97295990D01*
X254877504Y-97295990D02*
X254829885Y-97105514D01*
X254829885Y-97105514D02*
X254782266Y-97010276D01*
X254782266Y-97010276D02*
X254687028Y-96915038D01*
X254687028Y-96915038D02*
X254544171Y-96867419D01*
X254544171Y-96867419D02*
X254448933Y-96867419D01*
X254448933Y-96867419D02*
X254306076Y-96915038D01*
X254306076Y-96915038D02*
X254258457Y-96962657D01*
X253306076Y-97867419D02*
X253877504Y-97867419D01*
X253591790Y-97867419D02*
X253591790Y-96867419D01*
X253591790Y-96867419D02*
X253687028Y-97010276D01*
X253687028Y-97010276D02*
X253782266Y-97105514D01*
X253782266Y-97105514D02*
X253877504Y-97153133D01*
X252925123Y-96962657D02*
X252877504Y-96915038D01*
X252877504Y-96915038D02*
X252782266Y-96867419D01*
X252782266Y-96867419D02*
X252544171Y-96867419D01*
X252544171Y-96867419D02*
X252448933Y-96915038D01*
X252448933Y-96915038D02*
X252401314Y-96962657D01*
X252401314Y-96962657D02*
X252353695Y-97057895D01*
X252353695Y-97057895D02*
X252353695Y-97153133D01*
X252353695Y-97153133D02*
X252401314Y-97295990D01*
X252401314Y-97295990D02*
X252972742Y-97867419D01*
X252972742Y-97867419D02*
X252353695Y-97867419D01*
X126909266Y-94489219D02*
X127242599Y-94013028D01*
X127480694Y-94489219D02*
X127480694Y-93489219D01*
X127480694Y-93489219D02*
X127099742Y-93489219D01*
X127099742Y-93489219D02*
X127004504Y-93536838D01*
X127004504Y-93536838D02*
X126956885Y-93584457D01*
X126956885Y-93584457D02*
X126909266Y-93679695D01*
X126909266Y-93679695D02*
X126909266Y-93822552D01*
X126909266Y-93822552D02*
X126956885Y-93917790D01*
X126956885Y-93917790D02*
X127004504Y-93965409D01*
X127004504Y-93965409D02*
X127099742Y-94013028D01*
X127099742Y-94013028D02*
X127480694Y-94013028D01*
X126528313Y-93584457D02*
X126480694Y-93536838D01*
X126480694Y-93536838D02*
X126385456Y-93489219D01*
X126385456Y-93489219D02*
X126147361Y-93489219D01*
X126147361Y-93489219D02*
X126052123Y-93536838D01*
X126052123Y-93536838D02*
X126004504Y-93584457D01*
X126004504Y-93584457D02*
X125956885Y-93679695D01*
X125956885Y-93679695D02*
X125956885Y-93774933D01*
X125956885Y-93774933D02*
X126004504Y-93917790D01*
X126004504Y-93917790D02*
X126575932Y-94489219D01*
X126575932Y-94489219D02*
X125956885Y-94489219D01*
X298926819Y-95645733D02*
X298926819Y-95169543D01*
X298926819Y-95169543D02*
X297926819Y-95169543D01*
X298355390Y-96121924D02*
X298307771Y-96026686D01*
X298307771Y-96026686D02*
X298260152Y-95979067D01*
X298260152Y-95979067D02*
X298164914Y-95931448D01*
X298164914Y-95931448D02*
X298117295Y-95931448D01*
X298117295Y-95931448D02*
X298022057Y-95979067D01*
X298022057Y-95979067D02*
X297974438Y-96026686D01*
X297974438Y-96026686D02*
X297926819Y-96121924D01*
X297926819Y-96121924D02*
X297926819Y-96312400D01*
X297926819Y-96312400D02*
X297974438Y-96407638D01*
X297974438Y-96407638D02*
X298022057Y-96455257D01*
X298022057Y-96455257D02*
X298117295Y-96502876D01*
X298117295Y-96502876D02*
X298164914Y-96502876D01*
X298164914Y-96502876D02*
X298260152Y-96455257D01*
X298260152Y-96455257D02*
X298307771Y-96407638D01*
X298307771Y-96407638D02*
X298355390Y-96312400D01*
X298355390Y-96312400D02*
X298355390Y-96121924D01*
X298355390Y-96121924D02*
X298403009Y-96026686D01*
X298403009Y-96026686D02*
X298450628Y-95979067D01*
X298450628Y-95979067D02*
X298545866Y-95931448D01*
X298545866Y-95931448D02*
X298736342Y-95931448D01*
X298736342Y-95931448D02*
X298831580Y-95979067D01*
X298831580Y-95979067D02*
X298879200Y-96026686D01*
X298879200Y-96026686D02*
X298926819Y-96121924D01*
X298926819Y-96121924D02*
X298926819Y-96312400D01*
X298926819Y-96312400D02*
X298879200Y-96407638D01*
X298879200Y-96407638D02*
X298831580Y-96455257D01*
X298831580Y-96455257D02*
X298736342Y-96502876D01*
X298736342Y-96502876D02*
X298545866Y-96502876D01*
X298545866Y-96502876D02*
X298450628Y-96455257D01*
X298450628Y-96455257D02*
X298403009Y-96407638D01*
X298403009Y-96407638D02*
X298355390Y-96312400D01*
X171774419Y-95721933D02*
X171774419Y-95245743D01*
X171774419Y-95245743D02*
X170774419Y-95245743D01*
X171107752Y-96483838D02*
X171774419Y-96483838D01*
X170726800Y-96245743D02*
X171441085Y-96007648D01*
X171441085Y-96007648D02*
X171441085Y-96626695D01*
X152360066Y-90812580D02*
X152407685Y-90860200D01*
X152407685Y-90860200D02*
X152550542Y-90907819D01*
X152550542Y-90907819D02*
X152645780Y-90907819D01*
X152645780Y-90907819D02*
X152788637Y-90860200D01*
X152788637Y-90860200D02*
X152883875Y-90764961D01*
X152883875Y-90764961D02*
X152931494Y-90669723D01*
X152931494Y-90669723D02*
X152979113Y-90479247D01*
X152979113Y-90479247D02*
X152979113Y-90336390D01*
X152979113Y-90336390D02*
X152931494Y-90145914D01*
X152931494Y-90145914D02*
X152883875Y-90050676D01*
X152883875Y-90050676D02*
X152788637Y-89955438D01*
X152788637Y-89955438D02*
X152645780Y-89907819D01*
X152645780Y-89907819D02*
X152550542Y-89907819D01*
X152550542Y-89907819D02*
X152407685Y-89955438D01*
X152407685Y-89955438D02*
X152360066Y-90003057D01*
X151455304Y-89907819D02*
X151931494Y-89907819D01*
X151931494Y-89907819D02*
X151979113Y-90384009D01*
X151979113Y-90384009D02*
X151931494Y-90336390D01*
X151931494Y-90336390D02*
X151836256Y-90288771D01*
X151836256Y-90288771D02*
X151598161Y-90288771D01*
X151598161Y-90288771D02*
X151502923Y-90336390D01*
X151502923Y-90336390D02*
X151455304Y-90384009D01*
X151455304Y-90384009D02*
X151407685Y-90479247D01*
X151407685Y-90479247D02*
X151407685Y-90717342D01*
X151407685Y-90717342D02*
X151455304Y-90812580D01*
X151455304Y-90812580D02*
X151502923Y-90860200D01*
X151502923Y-90860200D02*
X151598161Y-90907819D01*
X151598161Y-90907819D02*
X151836256Y-90907819D01*
X151836256Y-90907819D02*
X151931494Y-90860200D01*
X151931494Y-90860200D02*
X151979113Y-90812580D01*
X279810857Y-97899180D02*
X279858476Y-97946800D01*
X279858476Y-97946800D02*
X280001333Y-97994419D01*
X280001333Y-97994419D02*
X280096571Y-97994419D01*
X280096571Y-97994419D02*
X280239428Y-97946800D01*
X280239428Y-97946800D02*
X280334666Y-97851561D01*
X280334666Y-97851561D02*
X280382285Y-97756323D01*
X280382285Y-97756323D02*
X280429904Y-97565847D01*
X280429904Y-97565847D02*
X280429904Y-97422990D01*
X280429904Y-97422990D02*
X280382285Y-97232514D01*
X280382285Y-97232514D02*
X280334666Y-97137276D01*
X280334666Y-97137276D02*
X280239428Y-97042038D01*
X280239428Y-97042038D02*
X280096571Y-96994419D01*
X280096571Y-96994419D02*
X280001333Y-96994419D01*
X280001333Y-96994419D02*
X279858476Y-97042038D01*
X279858476Y-97042038D02*
X279810857Y-97089657D01*
X278858476Y-97994419D02*
X279429904Y-97994419D01*
X279144190Y-97994419D02*
X279144190Y-96994419D01*
X279144190Y-96994419D02*
X279239428Y-97137276D01*
X279239428Y-97137276D02*
X279334666Y-97232514D01*
X279334666Y-97232514D02*
X279429904Y-97280133D01*
X278001333Y-97327752D02*
X278001333Y-97994419D01*
X278239428Y-96946800D02*
X278477523Y-97661085D01*
X278477523Y-97661085D02*
X277858476Y-97661085D01*
X126883866Y-97873780D02*
X126931485Y-97921400D01*
X126931485Y-97921400D02*
X127074342Y-97969019D01*
X127074342Y-97969019D02*
X127169580Y-97969019D01*
X127169580Y-97969019D02*
X127312437Y-97921400D01*
X127312437Y-97921400D02*
X127407675Y-97826161D01*
X127407675Y-97826161D02*
X127455294Y-97730923D01*
X127455294Y-97730923D02*
X127502913Y-97540447D01*
X127502913Y-97540447D02*
X127502913Y-97397590D01*
X127502913Y-97397590D02*
X127455294Y-97207114D01*
X127455294Y-97207114D02*
X127407675Y-97111876D01*
X127407675Y-97111876D02*
X127312437Y-97016638D01*
X127312437Y-97016638D02*
X127169580Y-96969019D01*
X127169580Y-96969019D02*
X127074342Y-96969019D01*
X127074342Y-96969019D02*
X126931485Y-97016638D01*
X126931485Y-97016638D02*
X126883866Y-97064257D01*
X126026723Y-97302352D02*
X126026723Y-97969019D01*
X126264818Y-96921400D02*
X126502913Y-97635685D01*
X126502913Y-97635685D02*
X125883866Y-97635685D01*
X248025219Y-95645733D02*
X248025219Y-95169543D01*
X248025219Y-95169543D02*
X247025219Y-95169543D01*
X247025219Y-96407638D02*
X247025219Y-96217162D01*
X247025219Y-96217162D02*
X247072838Y-96121924D01*
X247072838Y-96121924D02*
X247120457Y-96074305D01*
X247120457Y-96074305D02*
X247263314Y-95979067D01*
X247263314Y-95979067D02*
X247453790Y-95931448D01*
X247453790Y-95931448D02*
X247834742Y-95931448D01*
X247834742Y-95931448D02*
X247929980Y-95979067D01*
X247929980Y-95979067D02*
X247977600Y-96026686D01*
X247977600Y-96026686D02*
X248025219Y-96121924D01*
X248025219Y-96121924D02*
X248025219Y-96312400D01*
X248025219Y-96312400D02*
X247977600Y-96407638D01*
X247977600Y-96407638D02*
X247929980Y-96455257D01*
X247929980Y-96455257D02*
X247834742Y-96502876D01*
X247834742Y-96502876D02*
X247596647Y-96502876D01*
X247596647Y-96502876D02*
X247501409Y-96455257D01*
X247501409Y-96455257D02*
X247453790Y-96407638D01*
X247453790Y-96407638D02*
X247406171Y-96312400D01*
X247406171Y-96312400D02*
X247406171Y-96121924D01*
X247406171Y-96121924D02*
X247453790Y-96026686D01*
X247453790Y-96026686D02*
X247501409Y-95979067D01*
X247501409Y-95979067D02*
X247596647Y-95931448D01*
X253784166Y-94438419D02*
X254117499Y-93962228D01*
X254355594Y-94438419D02*
X254355594Y-93438419D01*
X254355594Y-93438419D02*
X253974642Y-93438419D01*
X253974642Y-93438419D02*
X253879404Y-93486038D01*
X253879404Y-93486038D02*
X253831785Y-93533657D01*
X253831785Y-93533657D02*
X253784166Y-93628895D01*
X253784166Y-93628895D02*
X253784166Y-93771752D01*
X253784166Y-93771752D02*
X253831785Y-93866990D01*
X253831785Y-93866990D02*
X253879404Y-93914609D01*
X253879404Y-93914609D02*
X253974642Y-93962228D01*
X253974642Y-93962228D02*
X254355594Y-93962228D01*
X252927023Y-93438419D02*
X253117499Y-93438419D01*
X253117499Y-93438419D02*
X253212737Y-93486038D01*
X253212737Y-93486038D02*
X253260356Y-93533657D01*
X253260356Y-93533657D02*
X253355594Y-93676514D01*
X253355594Y-93676514D02*
X253403213Y-93866990D01*
X253403213Y-93866990D02*
X253403213Y-94247942D01*
X253403213Y-94247942D02*
X253355594Y-94343180D01*
X253355594Y-94343180D02*
X253307975Y-94390800D01*
X253307975Y-94390800D02*
X253212737Y-94438419D01*
X253212737Y-94438419D02*
X253022261Y-94438419D01*
X253022261Y-94438419D02*
X252927023Y-94390800D01*
X252927023Y-94390800D02*
X252879404Y-94343180D01*
X252879404Y-94343180D02*
X252831785Y-94247942D01*
X252831785Y-94247942D02*
X252831785Y-94009847D01*
X252831785Y-94009847D02*
X252879404Y-93914609D01*
X252879404Y-93914609D02*
X252927023Y-93866990D01*
X252927023Y-93866990D02*
X253022261Y-93819371D01*
X253022261Y-93819371D02*
X253212737Y-93819371D01*
X253212737Y-93819371D02*
X253307975Y-93866990D01*
X253307975Y-93866990D02*
X253355594Y-93914609D01*
X253355594Y-93914609D02*
X253403213Y-94009847D01*
X279810857Y-90787180D02*
X279858476Y-90834800D01*
X279858476Y-90834800D02*
X280001333Y-90882419D01*
X280001333Y-90882419D02*
X280096571Y-90882419D01*
X280096571Y-90882419D02*
X280239428Y-90834800D01*
X280239428Y-90834800D02*
X280334666Y-90739561D01*
X280334666Y-90739561D02*
X280382285Y-90644323D01*
X280382285Y-90644323D02*
X280429904Y-90453847D01*
X280429904Y-90453847D02*
X280429904Y-90310990D01*
X280429904Y-90310990D02*
X280382285Y-90120514D01*
X280382285Y-90120514D02*
X280334666Y-90025276D01*
X280334666Y-90025276D02*
X280239428Y-89930038D01*
X280239428Y-89930038D02*
X280096571Y-89882419D01*
X280096571Y-89882419D02*
X280001333Y-89882419D01*
X280001333Y-89882419D02*
X279858476Y-89930038D01*
X279858476Y-89930038D02*
X279810857Y-89977657D01*
X278858476Y-90882419D02*
X279429904Y-90882419D01*
X279144190Y-90882419D02*
X279144190Y-89882419D01*
X279144190Y-89882419D02*
X279239428Y-90025276D01*
X279239428Y-90025276D02*
X279334666Y-90120514D01*
X279334666Y-90120514D02*
X279429904Y-90168133D01*
X278525142Y-89882419D02*
X277906095Y-89882419D01*
X277906095Y-89882419D02*
X278239428Y-90263371D01*
X278239428Y-90263371D02*
X278096571Y-90263371D01*
X278096571Y-90263371D02*
X278001333Y-90310990D01*
X278001333Y-90310990D02*
X277953714Y-90358609D01*
X277953714Y-90358609D02*
X277906095Y-90453847D01*
X277906095Y-90453847D02*
X277906095Y-90691942D01*
X277906095Y-90691942D02*
X277953714Y-90787180D01*
X277953714Y-90787180D02*
X278001333Y-90834800D01*
X278001333Y-90834800D02*
X278096571Y-90882419D01*
X278096571Y-90882419D02*
X278382285Y-90882419D01*
X278382285Y-90882419D02*
X278477523Y-90834800D01*
X278477523Y-90834800D02*
X278525142Y-90787180D01*
X138023333Y-102099819D02*
X138023333Y-102814104D01*
X138023333Y-102814104D02*
X138070952Y-102956961D01*
X138070952Y-102956961D02*
X138166190Y-103052200D01*
X138166190Y-103052200D02*
X138309047Y-103099819D01*
X138309047Y-103099819D02*
X138404285Y-103099819D01*
X137594761Y-102195057D02*
X137547142Y-102147438D01*
X137547142Y-102147438D02*
X137451904Y-102099819D01*
X137451904Y-102099819D02*
X137213809Y-102099819D01*
X137213809Y-102099819D02*
X137118571Y-102147438D01*
X137118571Y-102147438D02*
X137070952Y-102195057D01*
X137070952Y-102195057D02*
X137023333Y-102290295D01*
X137023333Y-102290295D02*
X137023333Y-102385533D01*
X137023333Y-102385533D02*
X137070952Y-102528390D01*
X137070952Y-102528390D02*
X137642380Y-103099819D01*
X137642380Y-103099819D02*
X137023333Y-103099819D01*
X265023333Y-102099819D02*
X265023333Y-102814104D01*
X265023333Y-102814104D02*
X265070952Y-102956961D01*
X265070952Y-102956961D02*
X265166190Y-103052200D01*
X265166190Y-103052200D02*
X265309047Y-103099819D01*
X265309047Y-103099819D02*
X265404285Y-103099819D01*
X264118571Y-102099819D02*
X264309047Y-102099819D01*
X264309047Y-102099819D02*
X264404285Y-102147438D01*
X264404285Y-102147438D02*
X264451904Y-102195057D01*
X264451904Y-102195057D02*
X264547142Y-102337914D01*
X264547142Y-102337914D02*
X264594761Y-102528390D01*
X264594761Y-102528390D02*
X264594761Y-102909342D01*
X264594761Y-102909342D02*
X264547142Y-103004580D01*
X264547142Y-103004580D02*
X264499523Y-103052200D01*
X264499523Y-103052200D02*
X264404285Y-103099819D01*
X264404285Y-103099819D02*
X264213809Y-103099819D01*
X264213809Y-103099819D02*
X264118571Y-103052200D01*
X264118571Y-103052200D02*
X264070952Y-103004580D01*
X264070952Y-103004580D02*
X264023333Y-102909342D01*
X264023333Y-102909342D02*
X264023333Y-102671247D01*
X264023333Y-102671247D02*
X264070952Y-102576009D01*
X264070952Y-102576009D02*
X264118571Y-102528390D01*
X264118571Y-102528390D02*
X264213809Y-102480771D01*
X264213809Y-102480771D02*
X264404285Y-102480771D01*
X264404285Y-102480771D02*
X264499523Y-102528390D01*
X264499523Y-102528390D02*
X264547142Y-102576009D01*
X264547142Y-102576009D02*
X264594761Y-102671247D01*
X188823333Y-102099819D02*
X188823333Y-102814104D01*
X188823333Y-102814104D02*
X188870952Y-102956961D01*
X188870952Y-102956961D02*
X188966190Y-103052200D01*
X188966190Y-103052200D02*
X189109047Y-103099819D01*
X189109047Y-103099819D02*
X189204285Y-103099819D01*
X187918571Y-102433152D02*
X187918571Y-103099819D01*
X188156666Y-102052200D02*
X188394761Y-102766485D01*
X188394761Y-102766485D02*
X187775714Y-102766485D01*
X112623333Y-102099819D02*
X112623333Y-102814104D01*
X112623333Y-102814104D02*
X112670952Y-102956961D01*
X112670952Y-102956961D02*
X112766190Y-103052200D01*
X112766190Y-103052200D02*
X112909047Y-103099819D01*
X112909047Y-103099819D02*
X113004285Y-103099819D01*
X111623333Y-103099819D02*
X112194761Y-103099819D01*
X111909047Y-103099819D02*
X111909047Y-102099819D01*
X111909047Y-102099819D02*
X112004285Y-102242676D01*
X112004285Y-102242676D02*
X112099523Y-102337914D01*
X112099523Y-102337914D02*
X112194761Y-102385533D01*
X315823333Y-102099819D02*
X315823333Y-102814104D01*
X315823333Y-102814104D02*
X315870952Y-102956961D01*
X315870952Y-102956961D02*
X315966190Y-103052200D01*
X315966190Y-103052200D02*
X316109047Y-103099819D01*
X316109047Y-103099819D02*
X316204285Y-103099819D01*
X315204285Y-102528390D02*
X315299523Y-102480771D01*
X315299523Y-102480771D02*
X315347142Y-102433152D01*
X315347142Y-102433152D02*
X315394761Y-102337914D01*
X315394761Y-102337914D02*
X315394761Y-102290295D01*
X315394761Y-102290295D02*
X315347142Y-102195057D01*
X315347142Y-102195057D02*
X315299523Y-102147438D01*
X315299523Y-102147438D02*
X315204285Y-102099819D01*
X315204285Y-102099819D02*
X315013809Y-102099819D01*
X315013809Y-102099819D02*
X314918571Y-102147438D01*
X314918571Y-102147438D02*
X314870952Y-102195057D01*
X314870952Y-102195057D02*
X314823333Y-102290295D01*
X314823333Y-102290295D02*
X314823333Y-102337914D01*
X314823333Y-102337914D02*
X314870952Y-102433152D01*
X314870952Y-102433152D02*
X314918571Y-102480771D01*
X314918571Y-102480771D02*
X315013809Y-102528390D01*
X315013809Y-102528390D02*
X315204285Y-102528390D01*
X315204285Y-102528390D02*
X315299523Y-102576009D01*
X315299523Y-102576009D02*
X315347142Y-102623628D01*
X315347142Y-102623628D02*
X315394761Y-102718866D01*
X315394761Y-102718866D02*
X315394761Y-102909342D01*
X315394761Y-102909342D02*
X315347142Y-103004580D01*
X315347142Y-103004580D02*
X315299523Y-103052200D01*
X315299523Y-103052200D02*
X315204285Y-103099819D01*
X315204285Y-103099819D02*
X315013809Y-103099819D01*
X315013809Y-103099819D02*
X314918571Y-103052200D01*
X314918571Y-103052200D02*
X314870952Y-103004580D01*
X314870952Y-103004580D02*
X314823333Y-102909342D01*
X314823333Y-102909342D02*
X314823333Y-102718866D01*
X314823333Y-102718866D02*
X314870952Y-102623628D01*
X314870952Y-102623628D02*
X314918571Y-102576009D01*
X314918571Y-102576009D02*
X315013809Y-102528390D01*
X290423333Y-102099819D02*
X290423333Y-102814104D01*
X290423333Y-102814104D02*
X290470952Y-102956961D01*
X290470952Y-102956961D02*
X290566190Y-103052200D01*
X290566190Y-103052200D02*
X290709047Y-103099819D01*
X290709047Y-103099819D02*
X290804285Y-103099819D01*
X290042380Y-102099819D02*
X289375714Y-102099819D01*
X289375714Y-102099819D02*
X289804285Y-103099819D01*
X163423333Y-102099819D02*
X163423333Y-102814104D01*
X163423333Y-102814104D02*
X163470952Y-102956961D01*
X163470952Y-102956961D02*
X163566190Y-103052200D01*
X163566190Y-103052200D02*
X163709047Y-103099819D01*
X163709047Y-103099819D02*
X163804285Y-103099819D01*
X163042380Y-102099819D02*
X162423333Y-102099819D01*
X162423333Y-102099819D02*
X162756666Y-102480771D01*
X162756666Y-102480771D02*
X162613809Y-102480771D01*
X162613809Y-102480771D02*
X162518571Y-102528390D01*
X162518571Y-102528390D02*
X162470952Y-102576009D01*
X162470952Y-102576009D02*
X162423333Y-102671247D01*
X162423333Y-102671247D02*
X162423333Y-102909342D01*
X162423333Y-102909342D02*
X162470952Y-103004580D01*
X162470952Y-103004580D02*
X162518571Y-103052200D01*
X162518571Y-103052200D02*
X162613809Y-103099819D01*
X162613809Y-103099819D02*
X162899523Y-103099819D01*
X162899523Y-103099819D02*
X162994761Y-103052200D01*
X162994761Y-103052200D02*
X163042380Y-103004580D01*
X239623333Y-102099819D02*
X239623333Y-102814104D01*
X239623333Y-102814104D02*
X239670952Y-102956961D01*
X239670952Y-102956961D02*
X239766190Y-103052200D01*
X239766190Y-103052200D02*
X239909047Y-103099819D01*
X239909047Y-103099819D02*
X240004285Y-103099819D01*
X238670952Y-102099819D02*
X239147142Y-102099819D01*
X239147142Y-102099819D02*
X239194761Y-102576009D01*
X239194761Y-102576009D02*
X239147142Y-102528390D01*
X239147142Y-102528390D02*
X239051904Y-102480771D01*
X239051904Y-102480771D02*
X238813809Y-102480771D01*
X238813809Y-102480771D02*
X238718571Y-102528390D01*
X238718571Y-102528390D02*
X238670952Y-102576009D01*
X238670952Y-102576009D02*
X238623333Y-102671247D01*
X238623333Y-102671247D02*
X238623333Y-102909342D01*
X238623333Y-102909342D02*
X238670952Y-103004580D01*
X238670952Y-103004580D02*
X238718571Y-103052200D01*
X238718571Y-103052200D02*
X238813809Y-103099819D01*
X238813809Y-103099819D02*
X239051904Y-103099819D01*
X239051904Y-103099819D02*
X239147142Y-103052200D01*
X239147142Y-103052200D02*
X239194761Y-103004580D01*
D11*
G04 #@! TO.C,R7*
X279395064Y-96395000D02*
X278940936Y-96395000D01*
X279395064Y-94925000D02*
X278940936Y-94925000D01*
G04 #@! TO.C,C10*
X228629252Y-99951000D02*
X228106748Y-99951000D01*
X228629252Y-98481000D02*
X228106748Y-98481000D01*
D12*
G04 #@! TO.C,L1*
X93138400Y-90821300D02*
X93138400Y-100854300D01*
X97608800Y-90821300D02*
X93138400Y-90821300D01*
X96008600Y-86604900D02*
X94738600Y-86604900D01*
X95373600Y-87161160D02*
X95373600Y-85969900D01*
X93138400Y-100854300D02*
X97608800Y-100854300D01*
X97608800Y-100854300D02*
X97608800Y-90821300D01*
D11*
G04 #@! TO.C,C16*
X304753052Y-99620800D02*
X304230548Y-99620800D01*
X304753052Y-98150800D02*
X304230548Y-98150800D01*
G04 #@! TO.C,C9*
X228629252Y-92839000D02*
X228106748Y-92839000D01*
X228629252Y-91369000D02*
X228106748Y-91369000D01*
G04 #@! TO.C,C15*
X304829252Y-92788200D02*
X304306748Y-92788200D01*
X304829252Y-91318200D02*
X304306748Y-91318200D01*
D12*
G04 #@! TO.C,L3*
X148307200Y-100803500D02*
X148307200Y-90770500D01*
X143836800Y-100803500D02*
X148307200Y-100803500D01*
X146072000Y-87110360D02*
X146072000Y-85919100D01*
X146707000Y-86554100D02*
X145437000Y-86554100D01*
X148307200Y-90770500D02*
X143836800Y-90770500D01*
X143836800Y-90770500D02*
X143836800Y-100803500D01*
D11*
G04 #@! TO.C,C1*
X101756252Y-92889800D02*
X101233748Y-92889800D01*
X101756252Y-91419800D02*
X101233748Y-91419800D01*
G04 #@! TO.C,R5*
X228595064Y-96395000D02*
X228140936Y-96395000D01*
X228595064Y-94925000D02*
X228140936Y-94925000D01*
D12*
G04 #@! TO.C,L7*
X275434200Y-100803500D02*
X275434200Y-90770500D01*
X270963800Y-100803500D02*
X275434200Y-100803500D01*
X273199000Y-87110360D02*
X273199000Y-85919100D01*
X273834000Y-86554100D02*
X272564000Y-86554100D01*
X275434200Y-90770500D02*
X270963800Y-90770500D01*
X270963800Y-90770500D02*
X270963800Y-100803500D01*
D11*
G04 #@! TO.C,C6*
X152429252Y-99951000D02*
X151906748Y-99951000D01*
X152429252Y-98481000D02*
X151906748Y-98481000D01*
G04 #@! TO.C,R1*
X101722064Y-96395000D02*
X101267936Y-96395000D01*
X101722064Y-94925000D02*
X101267936Y-94925000D01*
D12*
G04 #@! TO.C,L2*
X122907200Y-100803500D02*
X122907200Y-90770500D01*
X118436800Y-100803500D02*
X122907200Y-100803500D01*
X120672000Y-87110360D02*
X120672000Y-85919100D01*
X121307000Y-86554100D02*
X120037000Y-86554100D01*
X122907200Y-90770500D02*
X118436800Y-90770500D01*
X118436800Y-90770500D02*
X118436800Y-100803500D01*
D11*
G04 #@! TO.C,C3*
X126991752Y-92889800D02*
X126469248Y-92889800D01*
X126991752Y-91419800D02*
X126469248Y-91419800D01*
G04 #@! TO.C,C8*
X177846352Y-99951000D02*
X177323848Y-99951000D01*
X177846352Y-98481000D02*
X177323848Y-98481000D01*
G04 #@! TO.C,R8*
X304795064Y-96166400D02*
X304340936Y-96166400D01*
X304795064Y-94696400D02*
X304340936Y-94696400D01*
G04 #@! TO.C,R4*
X177746164Y-96395000D02*
X177292036Y-96395000D01*
X177746164Y-94925000D02*
X177292036Y-94925000D01*
G04 #@! TO.C,C2*
X101756252Y-99951000D02*
X101233748Y-99951000D01*
X101756252Y-98481000D02*
X101233748Y-98481000D01*
G04 #@! TO.C,R3*
X152395064Y-96395000D02*
X151940936Y-96395000D01*
X152395064Y-94925000D02*
X151940936Y-94925000D01*
D12*
G04 #@! TO.C,L5*
X224558000Y-100905100D02*
X224558000Y-90872100D01*
X220087600Y-100905100D02*
X224558000Y-100905100D01*
X222322800Y-87211960D02*
X222322800Y-86020700D01*
X222957800Y-86655700D02*
X221687800Y-86655700D01*
X224558000Y-90872100D02*
X220087600Y-90872100D01*
X220087600Y-90872100D02*
X220087600Y-100905100D01*
D11*
G04 #@! TO.C,C11*
X253853352Y-92839000D02*
X253330848Y-92839000D01*
X253853352Y-91369000D02*
X253330848Y-91369000D01*
G04 #@! TO.C,C7*
X177780352Y-92839000D02*
X177257848Y-92839000D01*
X177780352Y-91369000D02*
X177257848Y-91369000D01*
G04 #@! TO.C,C12*
X253878752Y-99798600D02*
X253356248Y-99798600D01*
X253878752Y-98328600D02*
X253356248Y-98328600D01*
G04 #@! TO.C,R2*
X126995064Y-96395000D02*
X126540936Y-96395000D01*
X126995064Y-94925000D02*
X126540936Y-94925000D01*
D12*
G04 #@! TO.C,L8*
X300707200Y-100803500D02*
X300707200Y-90770500D01*
X296236800Y-100803500D02*
X300707200Y-100803500D01*
X298472000Y-87110360D02*
X298472000Y-85919100D01*
X299107000Y-86554100D02*
X297837000Y-86554100D01*
X300707200Y-90770500D02*
X296236800Y-90770500D01*
X296236800Y-90770500D02*
X296236800Y-100803500D01*
G04 #@! TO.C,L4*
X173554800Y-100905100D02*
X173554800Y-90872100D01*
X169084400Y-100905100D02*
X173554800Y-100905100D01*
X171319600Y-87211960D02*
X171319600Y-86020700D01*
X171954600Y-86655700D02*
X170684600Y-86655700D01*
X173554800Y-90872100D02*
X169084400Y-90872100D01*
X169084400Y-90872100D02*
X169084400Y-100905100D01*
D11*
G04 #@! TO.C,C5*
X152429252Y-91369000D02*
X151906748Y-91369000D01*
X152429252Y-92839000D02*
X151906748Y-92839000D01*
G04 #@! TO.C,C14*
X279429252Y-98481000D02*
X278906748Y-98481000D01*
X279429252Y-99951000D02*
X278906748Y-99951000D01*
G04 #@! TO.C,C4*
X126991752Y-99925600D02*
X126469248Y-99925600D01*
X126991752Y-98455600D02*
X126469248Y-98455600D01*
D12*
G04 #@! TO.C,L6*
X245233600Y-90872100D02*
X245233600Y-100905100D01*
X249704000Y-90872100D02*
X245233600Y-90872100D01*
X248103800Y-86655700D02*
X246833800Y-86655700D01*
X247468800Y-87211960D02*
X247468800Y-86020700D01*
X245233600Y-100905100D02*
X249704000Y-100905100D01*
X249704000Y-100905100D02*
X249704000Y-90872100D01*
D11*
G04 #@! TO.C,R6*
X253844564Y-96318800D02*
X253390436Y-96318800D01*
X253844564Y-94848800D02*
X253390436Y-94848800D01*
G04 #@! TO.C,C13*
X279429252Y-92839000D02*
X278906748Y-92839000D01*
X279429252Y-91369000D02*
X278906748Y-91369000D01*
D12*
G04 #@! TO.C,J2*
X130441599Y-99718001D02*
X130441599Y-104467801D01*
X130441599Y-104467801D02*
X136588399Y-104467801D01*
X136588399Y-99718001D02*
X130441599Y-99718001D01*
X136588399Y-104467801D02*
X136588399Y-99718001D01*
D13*
X130187599Y-102645000D02*
G75*
G02*
X129425599Y-102645000I-381000J0D01*
G01*
X129425599Y-102645000D02*
G75*
G02*
X130187599Y-102645000I381000J0D01*
G01*
D12*
G04 #@! TO.C,J6*
X257441599Y-99718001D02*
X257441599Y-104467801D01*
X257441599Y-104467801D02*
X263588399Y-104467801D01*
X263588399Y-99718001D02*
X257441599Y-99718001D01*
X263588399Y-104467801D02*
X263588399Y-99718001D01*
D13*
X257187599Y-102645000D02*
G75*
G02*
X256425599Y-102645000I-381000J0D01*
G01*
X256425599Y-102645000D02*
G75*
G02*
X257187599Y-102645000I381000J0D01*
G01*
D12*
G04 #@! TO.C,J4*
X181241599Y-99718001D02*
X181241599Y-104467801D01*
X181241599Y-104467801D02*
X187388399Y-104467801D01*
X187388399Y-99718001D02*
X181241599Y-99718001D01*
X187388399Y-104467801D02*
X187388399Y-99718001D01*
D13*
X180987599Y-102645000D02*
G75*
G02*
X180225599Y-102645000I-381000J0D01*
G01*
X180225599Y-102645000D02*
G75*
G02*
X180987599Y-102645000I381000J0D01*
G01*
D12*
G04 #@! TO.C,J1*
X105041599Y-99718001D02*
X105041599Y-104467801D01*
X105041599Y-104467801D02*
X111188399Y-104467801D01*
X111188399Y-99718001D02*
X105041599Y-99718001D01*
X111188399Y-104467801D02*
X111188399Y-99718001D01*
D13*
X104787599Y-102645000D02*
G75*
G02*
X104025599Y-102645000I-381000J0D01*
G01*
X104025599Y-102645000D02*
G75*
G02*
X104787599Y-102645000I381000J0D01*
G01*
D12*
G04 #@! TO.C,J8*
X308241599Y-99718001D02*
X308241599Y-104467801D01*
X308241599Y-104467801D02*
X314388399Y-104467801D01*
X314388399Y-99718001D02*
X308241599Y-99718001D01*
X314388399Y-104467801D02*
X314388399Y-99718001D01*
D13*
X307987599Y-102645000D02*
G75*
G02*
X307225599Y-102645000I-381000J0D01*
G01*
X307225599Y-102645000D02*
G75*
G02*
X307987599Y-102645000I381000J0D01*
G01*
D12*
G04 #@! TO.C,J7*
X282841599Y-99718001D02*
X282841599Y-104467801D01*
X282841599Y-104467801D02*
X288988399Y-104467801D01*
X288988399Y-99718001D02*
X282841599Y-99718001D01*
X288988399Y-104467801D02*
X288988399Y-99718001D01*
D13*
X282587599Y-102645000D02*
G75*
G02*
X281825599Y-102645000I-381000J0D01*
G01*
X281825599Y-102645000D02*
G75*
G02*
X282587599Y-102645000I381000J0D01*
G01*
D12*
G04 #@! TO.C,J3*
X155841599Y-99718001D02*
X155841599Y-104467801D01*
X155841599Y-104467801D02*
X161988399Y-104467801D01*
X161988399Y-99718001D02*
X155841599Y-99718001D01*
X161988399Y-104467801D02*
X161988399Y-99718001D01*
D13*
X155587599Y-102645000D02*
G75*
G02*
X154825599Y-102645000I-381000J0D01*
G01*
X154825599Y-102645000D02*
G75*
G02*
X155587599Y-102645000I381000J0D01*
G01*
D12*
G04 #@! TO.C,J5*
X232041599Y-99718001D02*
X232041599Y-104467801D01*
X232041599Y-104467801D02*
X238188399Y-104467801D01*
X238188399Y-99718001D02*
X232041599Y-99718001D01*
X238188399Y-104467801D02*
X238188399Y-99718001D01*
D13*
X231787599Y-102645000D02*
G75*
G02*
X231025599Y-102645000I-381000J0D01*
G01*
X231025599Y-102645000D02*
G75*
G02*
X231787599Y-102645000I381000J0D01*
G01*
G04 #@! TD*
%LPC*%
D14*
G04 #@! TO.C,S6*
X259150000Y-94160000D03*
X259150000Y-97160000D03*
D15*
X260650000Y-95660000D03*
D14*
X262150000Y-94160000D03*
X262150000Y-97160000D03*
G04 #@! TD*
G04 #@! TO.C,S4*
X183180000Y-94160000D03*
X183180000Y-97160000D03*
D15*
X184680000Y-95660000D03*
D14*
X186180000Y-94160000D03*
X186180000Y-97160000D03*
G04 #@! TD*
G04 #@! TO.C,S2*
X132380000Y-94160000D03*
X132380000Y-97160000D03*
D15*
X133880000Y-95660000D03*
D14*
X135380000Y-94160000D03*
X135380000Y-97160000D03*
G04 #@! TD*
G04 #@! TO.C,S7*
X284780000Y-94160000D03*
X284780000Y-97160000D03*
D15*
X286280000Y-95660000D03*
D14*
X287780000Y-94160000D03*
X287780000Y-97160000D03*
G04 #@! TD*
G04 #@! TO.C,S8*
X310180000Y-94160000D03*
X310180000Y-97160000D03*
D15*
X311680000Y-95660000D03*
D14*
X313180000Y-94160000D03*
X313180000Y-97160000D03*
G04 #@! TD*
G04 #@! TO.C,S3*
X157780000Y-94160000D03*
X157780000Y-97160000D03*
D15*
X159280000Y-95660000D03*
D14*
X160780000Y-94160000D03*
X160780000Y-97160000D03*
G04 #@! TD*
G04 #@! TO.C,S1*
X106980000Y-94160000D03*
X106980000Y-97160000D03*
D15*
X108480000Y-95660000D03*
D14*
X109980000Y-94160000D03*
X109980000Y-97160000D03*
G04 #@! TD*
G04 #@! TO.C,S5*
X233980000Y-94160000D03*
X233980000Y-97160000D03*
D15*
X235480000Y-95660000D03*
D14*
X236980000Y-94160000D03*
X236980000Y-97160000D03*
G04 #@! TD*
D16*
G04 #@! TO.C,R7*
X278255500Y-95660000D03*
X280080500Y-95660000D03*
G04 #@! TD*
D17*
G04 #@! TO.C,C10*
X227418000Y-99216000D03*
X229318000Y-99216000D03*
G04 #@! TD*
D18*
G04 #@! TO.C,H1*
X78000000Y-95660000D03*
G04 #@! TD*
D19*
G04 #@! TO.C,L1*
X95373600Y-103457800D03*
D20*
X95373600Y-88217800D03*
G04 #@! TD*
D17*
G04 #@! TO.C,C16*
X303541800Y-98885800D03*
X305441800Y-98885800D03*
G04 #@! TD*
G04 #@! TO.C,C9*
X227418000Y-92104000D03*
X229318000Y-92104000D03*
G04 #@! TD*
G04 #@! TO.C,C15*
X303618000Y-92053200D03*
X305518000Y-92053200D03*
G04 #@! TD*
D20*
G04 #@! TO.C,L3*
X146072000Y-88167000D03*
D19*
X146072000Y-103407000D03*
G04 #@! TD*
D17*
G04 #@! TO.C,C1*
X100545000Y-92154800D03*
X102445000Y-92154800D03*
G04 #@! TD*
D16*
G04 #@! TO.C,R5*
X227455500Y-95660000D03*
X229280500Y-95660000D03*
G04 #@! TD*
D20*
G04 #@! TO.C,L7*
X273199000Y-88167000D03*
D19*
X273199000Y-103407000D03*
G04 #@! TD*
D17*
G04 #@! TO.C,C6*
X151218000Y-99216000D03*
X153118000Y-99216000D03*
G04 #@! TD*
D16*
G04 #@! TO.C,R1*
X100582500Y-95660000D03*
X102407500Y-95660000D03*
G04 #@! TD*
D20*
G04 #@! TO.C,L2*
X120672000Y-88167000D03*
D19*
X120672000Y-103407000D03*
G04 #@! TD*
D17*
G04 #@! TO.C,C3*
X125780500Y-92154800D03*
X127680500Y-92154800D03*
G04 #@! TD*
D18*
G04 #@! TO.C,H3*
X332000000Y-95660000D03*
G04 #@! TD*
D17*
G04 #@! TO.C,C8*
X176635100Y-99216000D03*
X178535100Y-99216000D03*
G04 #@! TD*
D16*
G04 #@! TO.C,R8*
X303655500Y-95431400D03*
X305480500Y-95431400D03*
G04 #@! TD*
G04 #@! TO.C,R4*
X176606600Y-95660000D03*
X178431600Y-95660000D03*
G04 #@! TD*
D17*
G04 #@! TO.C,C2*
X100545000Y-99216000D03*
X102445000Y-99216000D03*
G04 #@! TD*
D16*
G04 #@! TO.C,R3*
X151255500Y-95660000D03*
X153080500Y-95660000D03*
G04 #@! TD*
D20*
G04 #@! TO.C,L5*
X222322800Y-88268600D03*
D19*
X222322800Y-103508600D03*
G04 #@! TD*
D17*
G04 #@! TO.C,C11*
X252642100Y-92104000D03*
X254542100Y-92104000D03*
G04 #@! TD*
G04 #@! TO.C,C7*
X176569100Y-92104000D03*
X178469100Y-92104000D03*
G04 #@! TD*
G04 #@! TO.C,C12*
X252667500Y-99063600D03*
X254567500Y-99063600D03*
G04 #@! TD*
D18*
G04 #@! TO.C,H2*
X205000000Y-95660000D03*
G04 #@! TD*
D16*
G04 #@! TO.C,R2*
X125855500Y-95660000D03*
X127680500Y-95660000D03*
G04 #@! TD*
D20*
G04 #@! TO.C,L8*
X298472000Y-88167000D03*
D19*
X298472000Y-103407000D03*
G04 #@! TD*
D20*
G04 #@! TO.C,L4*
X171319600Y-88268600D03*
D19*
X171319600Y-103508600D03*
G04 #@! TD*
D17*
G04 #@! TO.C,C5*
X153118000Y-92104000D03*
X151218000Y-92104000D03*
G04 #@! TD*
G04 #@! TO.C,C14*
X280118000Y-99216000D03*
X278218000Y-99216000D03*
G04 #@! TD*
G04 #@! TO.C,C4*
X125780500Y-99190600D03*
X127680500Y-99190600D03*
G04 #@! TD*
D19*
G04 #@! TO.C,L6*
X247468800Y-103508600D03*
D20*
X247468800Y-88268600D03*
G04 #@! TD*
D16*
G04 #@! TO.C,R6*
X252705000Y-95583800D03*
X254530000Y-95583800D03*
G04 #@! TD*
D17*
G04 #@! TO.C,C13*
X278218000Y-92104000D03*
X280118000Y-92104000D03*
G04 #@! TD*
D21*
G04 #@! TO.C,J2*
X132514999Y-102645000D03*
X134515000Y-102645000D03*
G04 #@! TD*
G04 #@! TO.C,J6*
X259514999Y-102645000D03*
X261515000Y-102645000D03*
G04 #@! TD*
G04 #@! TO.C,J4*
X183314999Y-102645000D03*
X185315000Y-102645000D03*
G04 #@! TD*
G04 #@! TO.C,J1*
X107114999Y-102645000D03*
X109115000Y-102645000D03*
G04 #@! TD*
G04 #@! TO.C,J8*
X310314999Y-102645000D03*
X312315000Y-102645000D03*
G04 #@! TD*
G04 #@! TO.C,J7*
X284914999Y-102645000D03*
X286915000Y-102645000D03*
G04 #@! TD*
G04 #@! TO.C,J3*
X157914999Y-102645000D03*
X159915000Y-102645000D03*
G04 #@! TD*
G04 #@! TO.C,J5*
X234114999Y-102645000D03*
X236115000Y-102645000D03*
G04 #@! TD*
%LPD*%
M02*
