%TF.GenerationSoftware,KiCad,Pcbnew,8.0.8*%
%TF.CreationDate,2025-03-20T18:17:03-07:00*%
%TF.ProjectId,Output Board,4f757470-7574-4204-926f-6172642e6b69,rev?*%
%TF.SameCoordinates,Original*%
%TF.FileFunction,Drillmap*%
%TF.FilePolarity,Positive*%
%FSLAX45Y45*%
G04 Gerber Fmt 4.5, Leading zero omitted, Abs format (unit mm)*
G04 Created by KiCad (PCBNEW 8.0.8) date 2025-03-20 18:17:03*
%MOMM*%
%LPD*%
G01*
G04 APERTURE LIST*
%ADD10C,0.050000*%
%ADD11C,2.000000*%
%ADD12C,0.200000*%
%ADD13C,0.100000*%
%ADD14C,0.110000*%
%ADD15C,0.205000*%
G04 APERTURE END LIST*
D10*
X6530000Y-10582000D02*
X6530000Y-3082000D01*
X34470000Y-10582000D02*
X34470000Y-3082000D01*
X34470000Y-3082000D02*
X6530000Y-3082000D01*
D11*
X6530000Y-8550000D02*
X34470000Y-8550000D01*
D10*
X6530000Y-10582000D02*
X34470000Y-10582000D01*
D12*
D13*
X10337700Y-9799920D02*
X10367700Y-9829920D01*
X10367700Y-9799920D02*
X10337700Y-9829920D01*
X10383420Y-9302080D02*
X10413420Y-9332080D01*
X10413420Y-9302080D02*
X10383420Y-9332080D01*
X10383420Y-9538300D02*
X10413420Y-9568300D01*
X10413420Y-9538300D02*
X10383420Y-9568300D01*
X12865000Y-9512900D02*
X12895000Y-9542900D01*
X12895000Y-9512900D02*
X12865000Y-9542900D01*
X12875160Y-9319860D02*
X12905160Y-9349860D01*
X12905160Y-9319860D02*
X12875160Y-9349860D01*
X12918340Y-9815160D02*
X12948340Y-9845160D01*
X12948340Y-9815160D02*
X12918340Y-9845160D01*
X15398400Y-9805000D02*
X15428400Y-9835000D01*
X15428400Y-9805000D02*
X15398400Y-9835000D01*
X15415160Y-9538300D02*
X15445160Y-9568300D01*
X15445160Y-9538300D02*
X15415160Y-9568300D01*
X15422780Y-9317320D02*
X15452780Y-9347320D01*
X15452780Y-9317320D02*
X15422780Y-9347320D01*
X17937380Y-9515440D02*
X17967380Y-9545440D01*
X17967380Y-9515440D02*
X17937380Y-9545440D01*
X17967860Y-9789760D02*
X17997860Y-9819760D01*
X17997860Y-9789760D02*
X17967860Y-9819760D01*
X18036440Y-9388440D02*
X18066440Y-9418440D01*
X18066440Y-9388440D02*
X18036440Y-9418440D01*
X23058020Y-9543380D02*
X23088020Y-9573380D01*
X23088020Y-9543380D02*
X23058020Y-9573380D01*
X23058020Y-9876120D02*
X23088020Y-9906120D01*
X23088020Y-9876120D02*
X23058020Y-9906120D01*
X23106280Y-9317320D02*
X23136280Y-9347320D01*
X23136280Y-9317320D02*
X23106280Y-9347320D01*
X25559920Y-9505280D02*
X25589920Y-9535280D01*
X25589920Y-9505280D02*
X25559920Y-9535280D01*
X25562460Y-9838020D02*
X25592460Y-9868020D01*
X25592460Y-9838020D02*
X25562460Y-9868020D01*
X25618340Y-9317320D02*
X25648340Y-9347320D01*
X25648340Y-9317320D02*
X25618340Y-9347320D01*
X28108810Y-9509090D02*
X28138810Y-9539090D01*
X28138810Y-9509090D02*
X28108810Y-9539090D01*
X28130400Y-9863420D02*
X28160400Y-9893420D01*
X28160400Y-9863420D02*
X28130400Y-9893420D01*
X28158340Y-9332560D02*
X28188340Y-9362560D01*
X28188340Y-9332560D02*
X28158340Y-9362560D01*
X30670400Y-9840560D02*
X30700400Y-9870560D01*
X30700400Y-9840560D02*
X30670400Y-9870560D01*
X30675480Y-9482420D02*
X30705480Y-9512420D01*
X30705480Y-9482420D02*
X30675480Y-9512420D01*
X30708500Y-9299540D02*
X30738500Y-9329540D01*
X30738500Y-9299540D02*
X30708500Y-9329540D01*
X10752140Y-10264500D02*
G75*
G02*
X10670860Y-10264500I-40640J0D01*
G01*
X10670860Y-10264500D02*
G75*
G02*
X10752140Y-10264500I40640J0D01*
G01*
X10952140Y-10264500D02*
G75*
G02*
X10870860Y-10264500I-40640J0D01*
G01*
X10870860Y-10264500D02*
G75*
G02*
X10952140Y-10264500I40640J0D01*
G01*
X13292140Y-10264500D02*
G75*
G02*
X13210860Y-10264500I-40640J0D01*
G01*
X13210860Y-10264500D02*
G75*
G02*
X13292140Y-10264500I40640J0D01*
G01*
X13492140Y-10264500D02*
G75*
G02*
X13410860Y-10264500I-40640J0D01*
G01*
X13410860Y-10264500D02*
G75*
G02*
X13492140Y-10264500I40640J0D01*
G01*
X15832140Y-10264500D02*
G75*
G02*
X15750860Y-10264500I-40640J0D01*
G01*
X15750860Y-10264500D02*
G75*
G02*
X15832140Y-10264500I40640J0D01*
G01*
X16032140Y-10264500D02*
G75*
G02*
X15950860Y-10264500I-40640J0D01*
G01*
X15950860Y-10264500D02*
G75*
G02*
X16032140Y-10264500I40640J0D01*
G01*
X18372140Y-10264500D02*
G75*
G02*
X18290860Y-10264500I-40640J0D01*
G01*
X18290860Y-10264500D02*
G75*
G02*
X18372140Y-10264500I40640J0D01*
G01*
X18572140Y-10264500D02*
G75*
G02*
X18490860Y-10264500I-40640J0D01*
G01*
X18490860Y-10264500D02*
G75*
G02*
X18572140Y-10264500I40640J0D01*
G01*
X23452140Y-10264500D02*
G75*
G02*
X23370860Y-10264500I-40640J0D01*
G01*
X23370860Y-10264500D02*
G75*
G02*
X23452140Y-10264500I40640J0D01*
G01*
X23652140Y-10264500D02*
G75*
G02*
X23570860Y-10264500I-40640J0D01*
G01*
X23570860Y-10264500D02*
G75*
G02*
X23652140Y-10264500I40640J0D01*
G01*
X25992140Y-10264500D02*
G75*
G02*
X25910860Y-10264500I-40640J0D01*
G01*
X25910860Y-10264500D02*
G75*
G02*
X25992140Y-10264500I40640J0D01*
G01*
X26192140Y-10264500D02*
G75*
G02*
X26110860Y-10264500I-40640J0D01*
G01*
X26110860Y-10264500D02*
G75*
G02*
X26192140Y-10264500I40640J0D01*
G01*
X28532140Y-10264500D02*
G75*
G02*
X28450860Y-10264500I-40640J0D01*
G01*
X28450860Y-10264500D02*
G75*
G02*
X28532140Y-10264500I40640J0D01*
G01*
X28732140Y-10264500D02*
G75*
G02*
X28650860Y-10264500I-40640J0D01*
G01*
X28650860Y-10264500D02*
G75*
G02*
X28732140Y-10264500I40640J0D01*
G01*
X31072140Y-10264500D02*
G75*
G02*
X30990860Y-10264500I-40640J0D01*
G01*
X30990860Y-10264500D02*
G75*
G02*
X31072140Y-10264500I40640J0D01*
G01*
X31272140Y-10264500D02*
G75*
G02*
X31190860Y-10264500I-40640J0D01*
G01*
X31190860Y-10264500D02*
G75*
G02*
X31272140Y-10264500I40640J0D01*
G01*
X9537360Y-8774790D02*
X9537360Y-8868770D01*
X9490370Y-8821780D02*
X9584350Y-8821780D01*
X9537360Y-10298790D02*
X9537360Y-10392770D01*
X9490370Y-10345780D02*
X9584350Y-10345780D01*
X12067200Y-8769710D02*
X12067200Y-8863690D01*
X12020210Y-8816700D02*
X12114190Y-8816700D01*
X12067200Y-10293710D02*
X12067200Y-10387690D01*
X12020210Y-10340700D02*
X12114190Y-10340700D01*
X14607200Y-8769710D02*
X14607200Y-8863690D01*
X14560210Y-8816700D02*
X14654190Y-8816700D01*
X14607200Y-10293710D02*
X14607200Y-10387690D01*
X14560210Y-10340700D02*
X14654190Y-10340700D01*
X17131960Y-8779870D02*
X17131960Y-8873850D01*
X17084970Y-8826860D02*
X17178950Y-8826860D01*
X17131960Y-10303870D02*
X17131960Y-10397850D01*
X17084970Y-10350860D02*
X17178950Y-10350860D01*
X22232280Y-8779870D02*
X22232280Y-8873850D01*
X22185290Y-8826860D02*
X22279270Y-8826860D01*
X22232280Y-10303870D02*
X22232280Y-10397850D01*
X22185290Y-10350860D02*
X22279270Y-10350860D01*
X24746880Y-8779870D02*
X24746880Y-8873850D01*
X24699890Y-8826860D02*
X24793870Y-8826860D01*
X24746880Y-10303870D02*
X24746880Y-10397850D01*
X24699890Y-10350860D02*
X24793870Y-10350860D01*
X27319900Y-8769710D02*
X27319900Y-8863690D01*
X27272910Y-8816700D02*
X27366890Y-8816700D01*
X27319900Y-10293710D02*
X27319900Y-10387690D01*
X27272910Y-10340700D02*
X27366890Y-10340700D01*
X29847200Y-8769710D02*
X29847200Y-8863690D01*
X29800210Y-8816700D02*
X29894190Y-8816700D01*
X29847200Y-10293710D02*
X29847200Y-10387690D01*
X29800210Y-10340700D02*
X29894190Y-10340700D01*
D14*
X10886891Y-9604891D02*
X10886891Y-9527109D01*
X10809109Y-9527109D01*
X10809109Y-9604891D01*
X10886891Y-9604891D01*
X13426891Y-9604891D02*
X13426891Y-9527109D01*
X13349109Y-9527109D01*
X13349109Y-9604891D01*
X13426891Y-9604891D01*
X15966891Y-9604891D02*
X15966891Y-9527109D01*
X15889109Y-9527109D01*
X15889109Y-9604891D01*
X15966891Y-9604891D01*
X18506891Y-9604891D02*
X18506891Y-9527109D01*
X18429109Y-9527109D01*
X18429109Y-9604891D01*
X18506891Y-9604891D01*
X23586891Y-9604891D02*
X23586891Y-9527109D01*
X23509109Y-9527109D01*
X23509109Y-9604891D01*
X23586891Y-9604891D01*
X26103891Y-9604891D02*
X26103891Y-9527109D01*
X26026109Y-9527109D01*
X26026109Y-9604891D01*
X26103891Y-9604891D01*
X28666891Y-9604891D02*
X28666891Y-9527109D01*
X28589109Y-9527109D01*
X28589109Y-9604891D01*
X28666891Y-9604891D01*
X31206891Y-9604891D02*
X31206891Y-9527109D01*
X31129109Y-9527109D01*
X31129109Y-9604891D01*
X31206891Y-9604891D01*
D15*
X10698000Y-9518500D02*
X10800500Y-9416000D01*
X10698000Y-9313500D01*
X10595500Y-9416000D01*
X10698000Y-9518500D01*
X10698000Y-9818500D02*
X10800500Y-9716000D01*
X10698000Y-9613500D01*
X10595500Y-9716000D01*
X10698000Y-9818500D01*
X10998000Y-9518500D02*
X11100500Y-9416000D01*
X10998000Y-9313500D01*
X10895500Y-9416000D01*
X10998000Y-9518500D01*
X10998000Y-9818500D02*
X11100500Y-9716000D01*
X10998000Y-9613500D01*
X10895500Y-9716000D01*
X10998000Y-9818500D01*
X13238000Y-9518500D02*
X13340500Y-9416000D01*
X13238000Y-9313500D01*
X13135500Y-9416000D01*
X13238000Y-9518500D01*
X13238000Y-9818500D02*
X13340500Y-9716000D01*
X13238000Y-9613500D01*
X13135500Y-9716000D01*
X13238000Y-9818500D01*
X13538000Y-9518500D02*
X13640500Y-9416000D01*
X13538000Y-9313500D01*
X13435500Y-9416000D01*
X13538000Y-9518500D01*
X13538000Y-9818500D02*
X13640500Y-9716000D01*
X13538000Y-9613500D01*
X13435500Y-9716000D01*
X13538000Y-9818500D01*
X15778000Y-9518500D02*
X15880500Y-9416000D01*
X15778000Y-9313500D01*
X15675500Y-9416000D01*
X15778000Y-9518500D01*
X15778000Y-9818500D02*
X15880500Y-9716000D01*
X15778000Y-9613500D01*
X15675500Y-9716000D01*
X15778000Y-9818500D01*
X16078000Y-9518500D02*
X16180500Y-9416000D01*
X16078000Y-9313500D01*
X15975500Y-9416000D01*
X16078000Y-9518500D01*
X16078000Y-9818500D02*
X16180500Y-9716000D01*
X16078000Y-9613500D01*
X15975500Y-9716000D01*
X16078000Y-9818500D01*
X18318000Y-9518500D02*
X18420500Y-9416000D01*
X18318000Y-9313500D01*
X18215500Y-9416000D01*
X18318000Y-9518500D01*
X18318000Y-9818500D02*
X18420500Y-9716000D01*
X18318000Y-9613500D01*
X18215500Y-9716000D01*
X18318000Y-9818500D01*
X18618000Y-9518500D02*
X18720500Y-9416000D01*
X18618000Y-9313500D01*
X18515500Y-9416000D01*
X18618000Y-9518500D01*
X18618000Y-9818500D02*
X18720500Y-9716000D01*
X18618000Y-9613500D01*
X18515500Y-9716000D01*
X18618000Y-9818500D01*
X23398000Y-9518500D02*
X23500500Y-9416000D01*
X23398000Y-9313500D01*
X23295500Y-9416000D01*
X23398000Y-9518500D01*
X23398000Y-9818500D02*
X23500500Y-9716000D01*
X23398000Y-9613500D01*
X23295500Y-9716000D01*
X23398000Y-9818500D01*
X23698000Y-9518500D02*
X23800500Y-9416000D01*
X23698000Y-9313500D01*
X23595500Y-9416000D01*
X23698000Y-9518500D01*
X23698000Y-9818500D02*
X23800500Y-9716000D01*
X23698000Y-9613500D01*
X23595500Y-9716000D01*
X23698000Y-9818500D01*
X25915000Y-9518500D02*
X26017500Y-9416000D01*
X25915000Y-9313500D01*
X25812500Y-9416000D01*
X25915000Y-9518500D01*
X25915000Y-9818500D02*
X26017500Y-9716000D01*
X25915000Y-9613500D01*
X25812500Y-9716000D01*
X25915000Y-9818500D01*
X26215000Y-9518500D02*
X26317500Y-9416000D01*
X26215000Y-9313500D01*
X26112500Y-9416000D01*
X26215000Y-9518500D01*
X26215000Y-9818500D02*
X26317500Y-9716000D01*
X26215000Y-9613500D01*
X26112500Y-9716000D01*
X26215000Y-9818500D01*
X28478000Y-9518500D02*
X28580500Y-9416000D01*
X28478000Y-9313500D01*
X28375500Y-9416000D01*
X28478000Y-9518500D01*
X28478000Y-9818500D02*
X28580500Y-9716000D01*
X28478000Y-9613500D01*
X28375500Y-9716000D01*
X28478000Y-9818500D01*
X28778000Y-9518500D02*
X28880500Y-9416000D01*
X28778000Y-9313500D01*
X28675500Y-9416000D01*
X28778000Y-9518500D01*
X28778000Y-9818500D02*
X28880500Y-9716000D01*
X28778000Y-9613500D01*
X28675500Y-9716000D01*
X28778000Y-9818500D01*
X31018000Y-9518500D02*
X31120500Y-9416000D01*
X31018000Y-9313500D01*
X30915500Y-9416000D01*
X31018000Y-9518500D01*
X31018000Y-9818500D02*
X31120500Y-9716000D01*
X31018000Y-9613500D01*
X30915500Y-9716000D01*
X31018000Y-9818500D01*
X31318000Y-9518500D02*
X31420500Y-9416000D01*
X31318000Y-9313500D01*
X31215500Y-9416000D01*
X31318000Y-9518500D01*
X31318000Y-9818500D02*
X31420500Y-9716000D01*
X31318000Y-9613500D01*
X31215500Y-9716000D01*
X31318000Y-9818500D01*
D12*
X6690777Y-10895984D02*
X6690777Y-10695984D01*
X6690777Y-10695984D02*
X6738396Y-10695984D01*
X6738396Y-10695984D02*
X6766967Y-10705508D01*
X6766967Y-10705508D02*
X6786015Y-10724555D01*
X6786015Y-10724555D02*
X6795539Y-10743603D01*
X6795539Y-10743603D02*
X6805062Y-10781698D01*
X6805062Y-10781698D02*
X6805062Y-10810270D01*
X6805062Y-10810270D02*
X6795539Y-10848365D01*
X6795539Y-10848365D02*
X6786015Y-10867412D01*
X6786015Y-10867412D02*
X6766967Y-10886460D01*
X6766967Y-10886460D02*
X6738396Y-10895984D01*
X6738396Y-10895984D02*
X6690777Y-10895984D01*
X6890777Y-10895984D02*
X6890777Y-10762650D01*
X6890777Y-10800746D02*
X6900301Y-10781698D01*
X6900301Y-10781698D02*
X6909824Y-10772174D01*
X6909824Y-10772174D02*
X6928872Y-10762650D01*
X6928872Y-10762650D02*
X6947920Y-10762650D01*
X7014586Y-10895984D02*
X7014586Y-10762650D01*
X7014586Y-10695984D02*
X7005062Y-10705508D01*
X7005062Y-10705508D02*
X7014586Y-10715031D01*
X7014586Y-10715031D02*
X7024110Y-10705508D01*
X7024110Y-10705508D02*
X7014586Y-10695984D01*
X7014586Y-10695984D02*
X7014586Y-10715031D01*
X7138396Y-10895984D02*
X7119348Y-10886460D01*
X7119348Y-10886460D02*
X7109824Y-10867412D01*
X7109824Y-10867412D02*
X7109824Y-10695984D01*
X7243158Y-10895984D02*
X7224110Y-10886460D01*
X7224110Y-10886460D02*
X7214586Y-10867412D01*
X7214586Y-10867412D02*
X7214586Y-10695984D01*
X7471729Y-10895984D02*
X7471729Y-10695984D01*
X7471729Y-10695984D02*
X7538396Y-10838841D01*
X7538396Y-10838841D02*
X7605062Y-10695984D01*
X7605062Y-10695984D02*
X7605062Y-10895984D01*
X7786015Y-10895984D02*
X7786015Y-10791222D01*
X7786015Y-10791222D02*
X7776491Y-10772174D01*
X7776491Y-10772174D02*
X7757443Y-10762650D01*
X7757443Y-10762650D02*
X7719348Y-10762650D01*
X7719348Y-10762650D02*
X7700301Y-10772174D01*
X7786015Y-10886460D02*
X7766967Y-10895984D01*
X7766967Y-10895984D02*
X7719348Y-10895984D01*
X7719348Y-10895984D02*
X7700301Y-10886460D01*
X7700301Y-10886460D02*
X7690777Y-10867412D01*
X7690777Y-10867412D02*
X7690777Y-10848365D01*
X7690777Y-10848365D02*
X7700301Y-10829317D01*
X7700301Y-10829317D02*
X7719348Y-10819793D01*
X7719348Y-10819793D02*
X7766967Y-10819793D01*
X7766967Y-10819793D02*
X7786015Y-10810270D01*
X7881253Y-10762650D02*
X7881253Y-10962650D01*
X7881253Y-10772174D02*
X7900301Y-10762650D01*
X7900301Y-10762650D02*
X7938396Y-10762650D01*
X7938396Y-10762650D02*
X7957443Y-10772174D01*
X7957443Y-10772174D02*
X7966967Y-10781698D01*
X7966967Y-10781698D02*
X7976491Y-10800746D01*
X7976491Y-10800746D02*
X7976491Y-10857889D01*
X7976491Y-10857889D02*
X7966967Y-10876936D01*
X7966967Y-10876936D02*
X7957443Y-10886460D01*
X7957443Y-10886460D02*
X7938396Y-10895984D01*
X7938396Y-10895984D02*
X7900301Y-10895984D01*
X7900301Y-10895984D02*
X7881253Y-10886460D01*
X8062205Y-10876936D02*
X8071729Y-10886460D01*
X8071729Y-10886460D02*
X8062205Y-10895984D01*
X8062205Y-10895984D02*
X8052682Y-10886460D01*
X8052682Y-10886460D02*
X8062205Y-10876936D01*
X8062205Y-10876936D02*
X8062205Y-10895984D01*
X8062205Y-10772174D02*
X8071729Y-10781698D01*
X8071729Y-10781698D02*
X8062205Y-10791222D01*
X8062205Y-10791222D02*
X8052682Y-10781698D01*
X8052682Y-10781698D02*
X8062205Y-10772174D01*
X8062205Y-10772174D02*
X8062205Y-10791222D01*
D13*
X6400000Y-11209500D02*
X6430000Y-11239500D01*
X6430000Y-11209500D02*
X6400000Y-11239500D01*
D12*
X6728872Y-11115984D02*
X6747920Y-11115984D01*
X6747920Y-11115984D02*
X6766967Y-11125508D01*
X6766967Y-11125508D02*
X6776491Y-11135031D01*
X6776491Y-11135031D02*
X6786015Y-11154079D01*
X6786015Y-11154079D02*
X6795539Y-11192174D01*
X6795539Y-11192174D02*
X6795539Y-11239793D01*
X6795539Y-11239793D02*
X6786015Y-11277888D01*
X6786015Y-11277888D02*
X6776491Y-11296936D01*
X6776491Y-11296936D02*
X6766967Y-11306460D01*
X6766967Y-11306460D02*
X6747920Y-11315984D01*
X6747920Y-11315984D02*
X6728872Y-11315984D01*
X6728872Y-11315984D02*
X6709824Y-11306460D01*
X6709824Y-11306460D02*
X6700301Y-11296936D01*
X6700301Y-11296936D02*
X6690777Y-11277888D01*
X6690777Y-11277888D02*
X6681253Y-11239793D01*
X6681253Y-11239793D02*
X6681253Y-11192174D01*
X6681253Y-11192174D02*
X6690777Y-11154079D01*
X6690777Y-11154079D02*
X6700301Y-11135031D01*
X6700301Y-11135031D02*
X6709824Y-11125508D01*
X6709824Y-11125508D02*
X6728872Y-11115984D01*
X6881253Y-11296936D02*
X6890777Y-11306460D01*
X6890777Y-11306460D02*
X6881253Y-11315984D01*
X6881253Y-11315984D02*
X6871729Y-11306460D01*
X6871729Y-11306460D02*
X6881253Y-11296936D01*
X6881253Y-11296936D02*
X6881253Y-11315984D01*
X6957443Y-11115984D02*
X7081253Y-11115984D01*
X7081253Y-11115984D02*
X7014586Y-11192174D01*
X7014586Y-11192174D02*
X7043158Y-11192174D01*
X7043158Y-11192174D02*
X7062205Y-11201698D01*
X7062205Y-11201698D02*
X7071729Y-11211222D01*
X7071729Y-11211222D02*
X7081253Y-11230269D01*
X7081253Y-11230269D02*
X7081253Y-11277888D01*
X7081253Y-11277888D02*
X7071729Y-11296936D01*
X7071729Y-11296936D02*
X7062205Y-11306460D01*
X7062205Y-11306460D02*
X7043158Y-11315984D01*
X7043158Y-11315984D02*
X6986015Y-11315984D01*
X6986015Y-11315984D02*
X6966967Y-11306460D01*
X6966967Y-11306460D02*
X6957443Y-11296936D01*
X7205062Y-11115984D02*
X7224110Y-11115984D01*
X7224110Y-11115984D02*
X7243158Y-11125508D01*
X7243158Y-11125508D02*
X7252682Y-11135031D01*
X7252682Y-11135031D02*
X7262205Y-11154079D01*
X7262205Y-11154079D02*
X7271729Y-11192174D01*
X7271729Y-11192174D02*
X7271729Y-11239793D01*
X7271729Y-11239793D02*
X7262205Y-11277888D01*
X7262205Y-11277888D02*
X7252682Y-11296936D01*
X7252682Y-11296936D02*
X7243158Y-11306460D01*
X7243158Y-11306460D02*
X7224110Y-11315984D01*
X7224110Y-11315984D02*
X7205062Y-11315984D01*
X7205062Y-11315984D02*
X7186015Y-11306460D01*
X7186015Y-11306460D02*
X7176491Y-11296936D01*
X7176491Y-11296936D02*
X7166967Y-11277888D01*
X7166967Y-11277888D02*
X7157443Y-11239793D01*
X7157443Y-11239793D02*
X7157443Y-11192174D01*
X7157443Y-11192174D02*
X7166967Y-11154079D01*
X7166967Y-11154079D02*
X7176491Y-11135031D01*
X7176491Y-11135031D02*
X7186015Y-11125508D01*
X7186015Y-11125508D02*
X7205062Y-11115984D01*
X7395539Y-11115984D02*
X7414586Y-11115984D01*
X7414586Y-11115984D02*
X7433634Y-11125508D01*
X7433634Y-11125508D02*
X7443158Y-11135031D01*
X7443158Y-11135031D02*
X7452682Y-11154079D01*
X7452682Y-11154079D02*
X7462205Y-11192174D01*
X7462205Y-11192174D02*
X7462205Y-11239793D01*
X7462205Y-11239793D02*
X7452682Y-11277888D01*
X7452682Y-11277888D02*
X7443158Y-11296936D01*
X7443158Y-11296936D02*
X7433634Y-11306460D01*
X7433634Y-11306460D02*
X7414586Y-11315984D01*
X7414586Y-11315984D02*
X7395539Y-11315984D01*
X7395539Y-11315984D02*
X7376491Y-11306460D01*
X7376491Y-11306460D02*
X7366967Y-11296936D01*
X7366967Y-11296936D02*
X7357443Y-11277888D01*
X7357443Y-11277888D02*
X7347920Y-11239793D01*
X7347920Y-11239793D02*
X7347920Y-11192174D01*
X7347920Y-11192174D02*
X7357443Y-11154079D01*
X7357443Y-11154079D02*
X7366967Y-11135031D01*
X7366967Y-11135031D02*
X7376491Y-11125508D01*
X7376491Y-11125508D02*
X7395539Y-11115984D01*
X7547920Y-11315984D02*
X7547920Y-11182650D01*
X7547920Y-11201698D02*
X7557443Y-11192174D01*
X7557443Y-11192174D02*
X7576491Y-11182650D01*
X7576491Y-11182650D02*
X7605063Y-11182650D01*
X7605063Y-11182650D02*
X7624110Y-11192174D01*
X7624110Y-11192174D02*
X7633634Y-11211222D01*
X7633634Y-11211222D02*
X7633634Y-11315984D01*
X7633634Y-11211222D02*
X7643158Y-11192174D01*
X7643158Y-11192174D02*
X7662205Y-11182650D01*
X7662205Y-11182650D02*
X7690777Y-11182650D01*
X7690777Y-11182650D02*
X7709824Y-11192174D01*
X7709824Y-11192174D02*
X7719348Y-11211222D01*
X7719348Y-11211222D02*
X7719348Y-11315984D01*
X7814586Y-11315984D02*
X7814586Y-11182650D01*
X7814586Y-11201698D02*
X7824110Y-11192174D01*
X7824110Y-11192174D02*
X7843158Y-11182650D01*
X7843158Y-11182650D02*
X7871729Y-11182650D01*
X7871729Y-11182650D02*
X7890777Y-11192174D01*
X7890777Y-11192174D02*
X7900301Y-11211222D01*
X7900301Y-11211222D02*
X7900301Y-11315984D01*
X7900301Y-11211222D02*
X7909824Y-11192174D01*
X7909824Y-11192174D02*
X7928872Y-11182650D01*
X7928872Y-11182650D02*
X7957443Y-11182650D01*
X7957443Y-11182650D02*
X7976491Y-11192174D01*
X7976491Y-11192174D02*
X7986015Y-11211222D01*
X7986015Y-11211222D02*
X7986015Y-11315984D01*
X8376491Y-11106460D02*
X8205063Y-11363603D01*
X8633634Y-11115984D02*
X8652682Y-11115984D01*
X8652682Y-11115984D02*
X8671729Y-11125508D01*
X8671729Y-11125508D02*
X8681253Y-11135031D01*
X8681253Y-11135031D02*
X8690777Y-11154079D01*
X8690777Y-11154079D02*
X8700301Y-11192174D01*
X8700301Y-11192174D02*
X8700301Y-11239793D01*
X8700301Y-11239793D02*
X8690777Y-11277888D01*
X8690777Y-11277888D02*
X8681253Y-11296936D01*
X8681253Y-11296936D02*
X8671729Y-11306460D01*
X8671729Y-11306460D02*
X8652682Y-11315984D01*
X8652682Y-11315984D02*
X8633634Y-11315984D01*
X8633634Y-11315984D02*
X8614587Y-11306460D01*
X8614587Y-11306460D02*
X8605063Y-11296936D01*
X8605063Y-11296936D02*
X8595539Y-11277888D01*
X8595539Y-11277888D02*
X8586015Y-11239793D01*
X8586015Y-11239793D02*
X8586015Y-11192174D01*
X8586015Y-11192174D02*
X8595539Y-11154079D01*
X8595539Y-11154079D02*
X8605063Y-11135031D01*
X8605063Y-11135031D02*
X8614587Y-11125508D01*
X8614587Y-11125508D02*
X8633634Y-11115984D01*
X8786015Y-11296936D02*
X8795539Y-11306460D01*
X8795539Y-11306460D02*
X8786015Y-11315984D01*
X8786015Y-11315984D02*
X8776491Y-11306460D01*
X8776491Y-11306460D02*
X8786015Y-11296936D01*
X8786015Y-11296936D02*
X8786015Y-11315984D01*
X8919348Y-11115984D02*
X8938396Y-11115984D01*
X8938396Y-11115984D02*
X8957444Y-11125508D01*
X8957444Y-11125508D02*
X8966968Y-11135031D01*
X8966968Y-11135031D02*
X8976491Y-11154079D01*
X8976491Y-11154079D02*
X8986015Y-11192174D01*
X8986015Y-11192174D02*
X8986015Y-11239793D01*
X8986015Y-11239793D02*
X8976491Y-11277888D01*
X8976491Y-11277888D02*
X8966968Y-11296936D01*
X8966968Y-11296936D02*
X8957444Y-11306460D01*
X8957444Y-11306460D02*
X8938396Y-11315984D01*
X8938396Y-11315984D02*
X8919348Y-11315984D01*
X8919348Y-11315984D02*
X8900301Y-11306460D01*
X8900301Y-11306460D02*
X8890777Y-11296936D01*
X8890777Y-11296936D02*
X8881253Y-11277888D01*
X8881253Y-11277888D02*
X8871729Y-11239793D01*
X8871729Y-11239793D02*
X8871729Y-11192174D01*
X8871729Y-11192174D02*
X8881253Y-11154079D01*
X8881253Y-11154079D02*
X8890777Y-11135031D01*
X8890777Y-11135031D02*
X8900301Y-11125508D01*
X8900301Y-11125508D02*
X8919348Y-11115984D01*
X9176491Y-11315984D02*
X9062206Y-11315984D01*
X9119348Y-11315984D02*
X9119348Y-11115984D01*
X9119348Y-11115984D02*
X9100301Y-11144555D01*
X9100301Y-11144555D02*
X9081253Y-11163603D01*
X9081253Y-11163603D02*
X9062206Y-11173127D01*
X9366968Y-11315984D02*
X9252682Y-11315984D01*
X9309825Y-11315984D02*
X9309825Y-11115984D01*
X9309825Y-11115984D02*
X9290777Y-11144555D01*
X9290777Y-11144555D02*
X9271729Y-11163603D01*
X9271729Y-11163603D02*
X9252682Y-11173127D01*
X9481253Y-11201698D02*
X9462206Y-11192174D01*
X9462206Y-11192174D02*
X9452682Y-11182650D01*
X9452682Y-11182650D02*
X9443158Y-11163603D01*
X9443158Y-11163603D02*
X9443158Y-11154079D01*
X9443158Y-11154079D02*
X9452682Y-11135031D01*
X9452682Y-11135031D02*
X9462206Y-11125508D01*
X9462206Y-11125508D02*
X9481253Y-11115984D01*
X9481253Y-11115984D02*
X9519349Y-11115984D01*
X9519349Y-11115984D02*
X9538396Y-11125508D01*
X9538396Y-11125508D02*
X9547920Y-11135031D01*
X9547920Y-11135031D02*
X9557444Y-11154079D01*
X9557444Y-11154079D02*
X9557444Y-11163603D01*
X9557444Y-11163603D02*
X9547920Y-11182650D01*
X9547920Y-11182650D02*
X9538396Y-11192174D01*
X9538396Y-11192174D02*
X9519349Y-11201698D01*
X9519349Y-11201698D02*
X9481253Y-11201698D01*
X9481253Y-11201698D02*
X9462206Y-11211222D01*
X9462206Y-11211222D02*
X9452682Y-11220746D01*
X9452682Y-11220746D02*
X9443158Y-11239793D01*
X9443158Y-11239793D02*
X9443158Y-11277888D01*
X9443158Y-11277888D02*
X9452682Y-11296936D01*
X9452682Y-11296936D02*
X9462206Y-11306460D01*
X9462206Y-11306460D02*
X9481253Y-11315984D01*
X9481253Y-11315984D02*
X9519349Y-11315984D01*
X9519349Y-11315984D02*
X9538396Y-11306460D01*
X9538396Y-11306460D02*
X9547920Y-11296936D01*
X9547920Y-11296936D02*
X9557444Y-11277888D01*
X9557444Y-11277888D02*
X9557444Y-11239793D01*
X9557444Y-11239793D02*
X9547920Y-11220746D01*
X9547920Y-11220746D02*
X9538396Y-11211222D01*
X9538396Y-11211222D02*
X9519349Y-11201698D01*
X9633634Y-11115984D02*
X9633634Y-11154079D01*
X9709825Y-11115984D02*
X9709825Y-11154079D01*
X10005063Y-11392174D02*
X9995539Y-11382650D01*
X9995539Y-11382650D02*
X9976491Y-11354079D01*
X9976491Y-11354079D02*
X9966968Y-11335031D01*
X9966968Y-11335031D02*
X9957444Y-11306460D01*
X9957444Y-11306460D02*
X9947920Y-11258841D01*
X9947920Y-11258841D02*
X9947920Y-11220746D01*
X9947920Y-11220746D02*
X9957444Y-11173127D01*
X9957444Y-11173127D02*
X9966968Y-11144555D01*
X9966968Y-11144555D02*
X9976491Y-11125508D01*
X9976491Y-11125508D02*
X9995539Y-11096936D01*
X9995539Y-11096936D02*
X10005063Y-11087412D01*
X10071730Y-11135031D02*
X10081253Y-11125508D01*
X10081253Y-11125508D02*
X10100301Y-11115984D01*
X10100301Y-11115984D02*
X10147920Y-11115984D01*
X10147920Y-11115984D02*
X10166968Y-11125508D01*
X10166968Y-11125508D02*
X10176491Y-11135031D01*
X10176491Y-11135031D02*
X10186015Y-11154079D01*
X10186015Y-11154079D02*
X10186015Y-11173127D01*
X10186015Y-11173127D02*
X10176491Y-11201698D01*
X10176491Y-11201698D02*
X10062206Y-11315984D01*
X10062206Y-11315984D02*
X10186015Y-11315984D01*
X10357444Y-11182650D02*
X10357444Y-11315984D01*
X10309825Y-11106460D02*
X10262206Y-11249317D01*
X10262206Y-11249317D02*
X10386015Y-11249317D01*
X10614587Y-11315984D02*
X10614587Y-11115984D01*
X10700301Y-11315984D02*
X10700301Y-11211222D01*
X10700301Y-11211222D02*
X10690777Y-11192174D01*
X10690777Y-11192174D02*
X10671730Y-11182650D01*
X10671730Y-11182650D02*
X10643158Y-11182650D01*
X10643158Y-11182650D02*
X10624111Y-11192174D01*
X10624111Y-11192174D02*
X10614587Y-11201698D01*
X10824111Y-11315984D02*
X10805063Y-11306460D01*
X10805063Y-11306460D02*
X10795539Y-11296936D01*
X10795539Y-11296936D02*
X10786015Y-11277888D01*
X10786015Y-11277888D02*
X10786015Y-11220746D01*
X10786015Y-11220746D02*
X10795539Y-11201698D01*
X10795539Y-11201698D02*
X10805063Y-11192174D01*
X10805063Y-11192174D02*
X10824111Y-11182650D01*
X10824111Y-11182650D02*
X10852682Y-11182650D01*
X10852682Y-11182650D02*
X10871730Y-11192174D01*
X10871730Y-11192174D02*
X10881253Y-11201698D01*
X10881253Y-11201698D02*
X10890777Y-11220746D01*
X10890777Y-11220746D02*
X10890777Y-11277888D01*
X10890777Y-11277888D02*
X10881253Y-11296936D01*
X10881253Y-11296936D02*
X10871730Y-11306460D01*
X10871730Y-11306460D02*
X10852682Y-11315984D01*
X10852682Y-11315984D02*
X10824111Y-11315984D01*
X11005063Y-11315984D02*
X10986015Y-11306460D01*
X10986015Y-11306460D02*
X10976492Y-11287412D01*
X10976492Y-11287412D02*
X10976492Y-11115984D01*
X11157444Y-11306460D02*
X11138396Y-11315984D01*
X11138396Y-11315984D02*
X11100301Y-11315984D01*
X11100301Y-11315984D02*
X11081253Y-11306460D01*
X11081253Y-11306460D02*
X11071730Y-11287412D01*
X11071730Y-11287412D02*
X11071730Y-11211222D01*
X11071730Y-11211222D02*
X11081253Y-11192174D01*
X11081253Y-11192174D02*
X11100301Y-11182650D01*
X11100301Y-11182650D02*
X11138396Y-11182650D01*
X11138396Y-11182650D02*
X11157444Y-11192174D01*
X11157444Y-11192174D02*
X11166968Y-11211222D01*
X11166968Y-11211222D02*
X11166968Y-11230269D01*
X11166968Y-11230269D02*
X11071730Y-11249317D01*
X11243158Y-11306460D02*
X11262206Y-11315984D01*
X11262206Y-11315984D02*
X11300301Y-11315984D01*
X11300301Y-11315984D02*
X11319349Y-11306460D01*
X11319349Y-11306460D02*
X11328872Y-11287412D01*
X11328872Y-11287412D02*
X11328872Y-11277888D01*
X11328872Y-11277888D02*
X11319349Y-11258841D01*
X11319349Y-11258841D02*
X11300301Y-11249317D01*
X11300301Y-11249317D02*
X11271730Y-11249317D01*
X11271730Y-11249317D02*
X11252682Y-11239793D01*
X11252682Y-11239793D02*
X11243158Y-11220746D01*
X11243158Y-11220746D02*
X11243158Y-11211222D01*
X11243158Y-11211222D02*
X11252682Y-11192174D01*
X11252682Y-11192174D02*
X11271730Y-11182650D01*
X11271730Y-11182650D02*
X11300301Y-11182650D01*
X11300301Y-11182650D02*
X11319349Y-11192174D01*
X11395539Y-11392174D02*
X11405063Y-11382650D01*
X11405063Y-11382650D02*
X11424111Y-11354079D01*
X11424111Y-11354079D02*
X11433634Y-11335031D01*
X11433634Y-11335031D02*
X11443158Y-11306460D01*
X11443158Y-11306460D02*
X11452682Y-11258841D01*
X11452682Y-11258841D02*
X11452682Y-11220746D01*
X11452682Y-11220746D02*
X11443158Y-11173127D01*
X11443158Y-11173127D02*
X11433634Y-11144555D01*
X11433634Y-11144555D02*
X11424111Y-11125508D01*
X11424111Y-11125508D02*
X11405063Y-11096936D01*
X11405063Y-11096936D02*
X11395539Y-11087412D01*
D13*
X6430000Y-11488500D02*
G75*
G02*
X6348720Y-11488500I-40640J0D01*
G01*
X6348720Y-11488500D02*
G75*
G02*
X6430000Y-11488500I40640J0D01*
G01*
D12*
X6728872Y-11379984D02*
X6747920Y-11379984D01*
X6747920Y-11379984D02*
X6766967Y-11389508D01*
X6766967Y-11389508D02*
X6776491Y-11399031D01*
X6776491Y-11399031D02*
X6786015Y-11418079D01*
X6786015Y-11418079D02*
X6795539Y-11456174D01*
X6795539Y-11456174D02*
X6795539Y-11503793D01*
X6795539Y-11503793D02*
X6786015Y-11541888D01*
X6786015Y-11541888D02*
X6776491Y-11560936D01*
X6776491Y-11560936D02*
X6766967Y-11570460D01*
X6766967Y-11570460D02*
X6747920Y-11579984D01*
X6747920Y-11579984D02*
X6728872Y-11579984D01*
X6728872Y-11579984D02*
X6709824Y-11570460D01*
X6709824Y-11570460D02*
X6700301Y-11560936D01*
X6700301Y-11560936D02*
X6690777Y-11541888D01*
X6690777Y-11541888D02*
X6681253Y-11503793D01*
X6681253Y-11503793D02*
X6681253Y-11456174D01*
X6681253Y-11456174D02*
X6690777Y-11418079D01*
X6690777Y-11418079D02*
X6700301Y-11399031D01*
X6700301Y-11399031D02*
X6709824Y-11389508D01*
X6709824Y-11389508D02*
X6728872Y-11379984D01*
X6881253Y-11560936D02*
X6890777Y-11570460D01*
X6890777Y-11570460D02*
X6881253Y-11579984D01*
X6881253Y-11579984D02*
X6871729Y-11570460D01*
X6871729Y-11570460D02*
X6881253Y-11560936D01*
X6881253Y-11560936D02*
X6881253Y-11579984D01*
X7005062Y-11465698D02*
X6986015Y-11456174D01*
X6986015Y-11456174D02*
X6976491Y-11446650D01*
X6976491Y-11446650D02*
X6966967Y-11427603D01*
X6966967Y-11427603D02*
X6966967Y-11418079D01*
X6966967Y-11418079D02*
X6976491Y-11399031D01*
X6976491Y-11399031D02*
X6986015Y-11389508D01*
X6986015Y-11389508D02*
X7005062Y-11379984D01*
X7005062Y-11379984D02*
X7043158Y-11379984D01*
X7043158Y-11379984D02*
X7062205Y-11389508D01*
X7062205Y-11389508D02*
X7071729Y-11399031D01*
X7071729Y-11399031D02*
X7081253Y-11418079D01*
X7081253Y-11418079D02*
X7081253Y-11427603D01*
X7081253Y-11427603D02*
X7071729Y-11446650D01*
X7071729Y-11446650D02*
X7062205Y-11456174D01*
X7062205Y-11456174D02*
X7043158Y-11465698D01*
X7043158Y-11465698D02*
X7005062Y-11465698D01*
X7005062Y-11465698D02*
X6986015Y-11475222D01*
X6986015Y-11475222D02*
X6976491Y-11484746D01*
X6976491Y-11484746D02*
X6966967Y-11503793D01*
X6966967Y-11503793D02*
X6966967Y-11541888D01*
X6966967Y-11541888D02*
X6976491Y-11560936D01*
X6976491Y-11560936D02*
X6986015Y-11570460D01*
X6986015Y-11570460D02*
X7005062Y-11579984D01*
X7005062Y-11579984D02*
X7043158Y-11579984D01*
X7043158Y-11579984D02*
X7062205Y-11570460D01*
X7062205Y-11570460D02*
X7071729Y-11560936D01*
X7071729Y-11560936D02*
X7081253Y-11541888D01*
X7081253Y-11541888D02*
X7081253Y-11503793D01*
X7081253Y-11503793D02*
X7071729Y-11484746D01*
X7071729Y-11484746D02*
X7062205Y-11475222D01*
X7062205Y-11475222D02*
X7043158Y-11465698D01*
X7271729Y-11579984D02*
X7157443Y-11579984D01*
X7214586Y-11579984D02*
X7214586Y-11379984D01*
X7214586Y-11379984D02*
X7195539Y-11408555D01*
X7195539Y-11408555D02*
X7176491Y-11427603D01*
X7176491Y-11427603D02*
X7157443Y-11437127D01*
X7338396Y-11379984D02*
X7462205Y-11379984D01*
X7462205Y-11379984D02*
X7395539Y-11456174D01*
X7395539Y-11456174D02*
X7424110Y-11456174D01*
X7424110Y-11456174D02*
X7443158Y-11465698D01*
X7443158Y-11465698D02*
X7452682Y-11475222D01*
X7452682Y-11475222D02*
X7462205Y-11494269D01*
X7462205Y-11494269D02*
X7462205Y-11541888D01*
X7462205Y-11541888D02*
X7452682Y-11560936D01*
X7452682Y-11560936D02*
X7443158Y-11570460D01*
X7443158Y-11570460D02*
X7424110Y-11579984D01*
X7424110Y-11579984D02*
X7366967Y-11579984D01*
X7366967Y-11579984D02*
X7347920Y-11570460D01*
X7347920Y-11570460D02*
X7338396Y-11560936D01*
X7547920Y-11579984D02*
X7547920Y-11446650D01*
X7547920Y-11465698D02*
X7557443Y-11456174D01*
X7557443Y-11456174D02*
X7576491Y-11446650D01*
X7576491Y-11446650D02*
X7605063Y-11446650D01*
X7605063Y-11446650D02*
X7624110Y-11456174D01*
X7624110Y-11456174D02*
X7633634Y-11475222D01*
X7633634Y-11475222D02*
X7633634Y-11579984D01*
X7633634Y-11475222D02*
X7643158Y-11456174D01*
X7643158Y-11456174D02*
X7662205Y-11446650D01*
X7662205Y-11446650D02*
X7690777Y-11446650D01*
X7690777Y-11446650D02*
X7709824Y-11456174D01*
X7709824Y-11456174D02*
X7719348Y-11475222D01*
X7719348Y-11475222D02*
X7719348Y-11579984D01*
X7814586Y-11579984D02*
X7814586Y-11446650D01*
X7814586Y-11465698D02*
X7824110Y-11456174D01*
X7824110Y-11456174D02*
X7843158Y-11446650D01*
X7843158Y-11446650D02*
X7871729Y-11446650D01*
X7871729Y-11446650D02*
X7890777Y-11456174D01*
X7890777Y-11456174D02*
X7900301Y-11475222D01*
X7900301Y-11475222D02*
X7900301Y-11579984D01*
X7900301Y-11475222D02*
X7909824Y-11456174D01*
X7909824Y-11456174D02*
X7928872Y-11446650D01*
X7928872Y-11446650D02*
X7957443Y-11446650D01*
X7957443Y-11446650D02*
X7976491Y-11456174D01*
X7976491Y-11456174D02*
X7986015Y-11475222D01*
X7986015Y-11475222D02*
X7986015Y-11579984D01*
X8376491Y-11370460D02*
X8205063Y-11627603D01*
X8633634Y-11379984D02*
X8652682Y-11379984D01*
X8652682Y-11379984D02*
X8671729Y-11389508D01*
X8671729Y-11389508D02*
X8681253Y-11399031D01*
X8681253Y-11399031D02*
X8690777Y-11418079D01*
X8690777Y-11418079D02*
X8700301Y-11456174D01*
X8700301Y-11456174D02*
X8700301Y-11503793D01*
X8700301Y-11503793D02*
X8690777Y-11541888D01*
X8690777Y-11541888D02*
X8681253Y-11560936D01*
X8681253Y-11560936D02*
X8671729Y-11570460D01*
X8671729Y-11570460D02*
X8652682Y-11579984D01*
X8652682Y-11579984D02*
X8633634Y-11579984D01*
X8633634Y-11579984D02*
X8614587Y-11570460D01*
X8614587Y-11570460D02*
X8605063Y-11560936D01*
X8605063Y-11560936D02*
X8595539Y-11541888D01*
X8595539Y-11541888D02*
X8586015Y-11503793D01*
X8586015Y-11503793D02*
X8586015Y-11456174D01*
X8586015Y-11456174D02*
X8595539Y-11418079D01*
X8595539Y-11418079D02*
X8605063Y-11399031D01*
X8605063Y-11399031D02*
X8614587Y-11389508D01*
X8614587Y-11389508D02*
X8633634Y-11379984D01*
X8786015Y-11560936D02*
X8795539Y-11570460D01*
X8795539Y-11570460D02*
X8786015Y-11579984D01*
X8786015Y-11579984D02*
X8776491Y-11570460D01*
X8776491Y-11570460D02*
X8786015Y-11560936D01*
X8786015Y-11560936D02*
X8786015Y-11579984D01*
X8919348Y-11379984D02*
X8938396Y-11379984D01*
X8938396Y-11379984D02*
X8957444Y-11389508D01*
X8957444Y-11389508D02*
X8966968Y-11399031D01*
X8966968Y-11399031D02*
X8976491Y-11418079D01*
X8976491Y-11418079D02*
X8986015Y-11456174D01*
X8986015Y-11456174D02*
X8986015Y-11503793D01*
X8986015Y-11503793D02*
X8976491Y-11541888D01*
X8976491Y-11541888D02*
X8966968Y-11560936D01*
X8966968Y-11560936D02*
X8957444Y-11570460D01*
X8957444Y-11570460D02*
X8938396Y-11579984D01*
X8938396Y-11579984D02*
X8919348Y-11579984D01*
X8919348Y-11579984D02*
X8900301Y-11570460D01*
X8900301Y-11570460D02*
X8890777Y-11560936D01*
X8890777Y-11560936D02*
X8881253Y-11541888D01*
X8881253Y-11541888D02*
X8871729Y-11503793D01*
X8871729Y-11503793D02*
X8871729Y-11456174D01*
X8871729Y-11456174D02*
X8881253Y-11418079D01*
X8881253Y-11418079D02*
X8890777Y-11399031D01*
X8890777Y-11399031D02*
X8900301Y-11389508D01*
X8900301Y-11389508D02*
X8919348Y-11379984D01*
X9052682Y-11379984D02*
X9176491Y-11379984D01*
X9176491Y-11379984D02*
X9109825Y-11456174D01*
X9109825Y-11456174D02*
X9138396Y-11456174D01*
X9138396Y-11456174D02*
X9157444Y-11465698D01*
X9157444Y-11465698D02*
X9166968Y-11475222D01*
X9166968Y-11475222D02*
X9176491Y-11494269D01*
X9176491Y-11494269D02*
X9176491Y-11541888D01*
X9176491Y-11541888D02*
X9166968Y-11560936D01*
X9166968Y-11560936D02*
X9157444Y-11570460D01*
X9157444Y-11570460D02*
X9138396Y-11579984D01*
X9138396Y-11579984D02*
X9081253Y-11579984D01*
X9081253Y-11579984D02*
X9062206Y-11570460D01*
X9062206Y-11570460D02*
X9052682Y-11560936D01*
X9252682Y-11399031D02*
X9262206Y-11389508D01*
X9262206Y-11389508D02*
X9281253Y-11379984D01*
X9281253Y-11379984D02*
X9328872Y-11379984D01*
X9328872Y-11379984D02*
X9347920Y-11389508D01*
X9347920Y-11389508D02*
X9357444Y-11399031D01*
X9357444Y-11399031D02*
X9366968Y-11418079D01*
X9366968Y-11418079D02*
X9366968Y-11437127D01*
X9366968Y-11437127D02*
X9357444Y-11465698D01*
X9357444Y-11465698D02*
X9243158Y-11579984D01*
X9243158Y-11579984D02*
X9366968Y-11579984D01*
X9490777Y-11379984D02*
X9509825Y-11379984D01*
X9509825Y-11379984D02*
X9528872Y-11389508D01*
X9528872Y-11389508D02*
X9538396Y-11399031D01*
X9538396Y-11399031D02*
X9547920Y-11418079D01*
X9547920Y-11418079D02*
X9557444Y-11456174D01*
X9557444Y-11456174D02*
X9557444Y-11503793D01*
X9557444Y-11503793D02*
X9547920Y-11541888D01*
X9547920Y-11541888D02*
X9538396Y-11560936D01*
X9538396Y-11560936D02*
X9528872Y-11570460D01*
X9528872Y-11570460D02*
X9509825Y-11579984D01*
X9509825Y-11579984D02*
X9490777Y-11579984D01*
X9490777Y-11579984D02*
X9471729Y-11570460D01*
X9471729Y-11570460D02*
X9462206Y-11560936D01*
X9462206Y-11560936D02*
X9452682Y-11541888D01*
X9452682Y-11541888D02*
X9443158Y-11503793D01*
X9443158Y-11503793D02*
X9443158Y-11456174D01*
X9443158Y-11456174D02*
X9452682Y-11418079D01*
X9452682Y-11418079D02*
X9462206Y-11399031D01*
X9462206Y-11399031D02*
X9471729Y-11389508D01*
X9471729Y-11389508D02*
X9490777Y-11379984D01*
X9633634Y-11379984D02*
X9633634Y-11418079D01*
X9709825Y-11379984D02*
X9709825Y-11418079D01*
X10005063Y-11656174D02*
X9995539Y-11646650D01*
X9995539Y-11646650D02*
X9976491Y-11618079D01*
X9976491Y-11618079D02*
X9966968Y-11599031D01*
X9966968Y-11599031D02*
X9957444Y-11570460D01*
X9957444Y-11570460D02*
X9947920Y-11522841D01*
X9947920Y-11522841D02*
X9947920Y-11484746D01*
X9947920Y-11484746D02*
X9957444Y-11437127D01*
X9957444Y-11437127D02*
X9966968Y-11408555D01*
X9966968Y-11408555D02*
X9976491Y-11389508D01*
X9976491Y-11389508D02*
X9995539Y-11360936D01*
X9995539Y-11360936D02*
X10005063Y-11351412D01*
X10186015Y-11579984D02*
X10071730Y-11579984D01*
X10128872Y-11579984D02*
X10128872Y-11379984D01*
X10128872Y-11379984D02*
X10109825Y-11408555D01*
X10109825Y-11408555D02*
X10090777Y-11427603D01*
X10090777Y-11427603D02*
X10071730Y-11437127D01*
X10357444Y-11379984D02*
X10319349Y-11379984D01*
X10319349Y-11379984D02*
X10300301Y-11389508D01*
X10300301Y-11389508D02*
X10290777Y-11399031D01*
X10290777Y-11399031D02*
X10271730Y-11427603D01*
X10271730Y-11427603D02*
X10262206Y-11465698D01*
X10262206Y-11465698D02*
X10262206Y-11541888D01*
X10262206Y-11541888D02*
X10271730Y-11560936D01*
X10271730Y-11560936D02*
X10281253Y-11570460D01*
X10281253Y-11570460D02*
X10300301Y-11579984D01*
X10300301Y-11579984D02*
X10338396Y-11579984D01*
X10338396Y-11579984D02*
X10357444Y-11570460D01*
X10357444Y-11570460D02*
X10366968Y-11560936D01*
X10366968Y-11560936D02*
X10376491Y-11541888D01*
X10376491Y-11541888D02*
X10376491Y-11494269D01*
X10376491Y-11494269D02*
X10366968Y-11475222D01*
X10366968Y-11475222D02*
X10357444Y-11465698D01*
X10357444Y-11465698D02*
X10338396Y-11456174D01*
X10338396Y-11456174D02*
X10300301Y-11456174D01*
X10300301Y-11456174D02*
X10281253Y-11465698D01*
X10281253Y-11465698D02*
X10271730Y-11475222D01*
X10271730Y-11475222D02*
X10262206Y-11494269D01*
X10614587Y-11579984D02*
X10614587Y-11379984D01*
X10700301Y-11579984D02*
X10700301Y-11475222D01*
X10700301Y-11475222D02*
X10690777Y-11456174D01*
X10690777Y-11456174D02*
X10671730Y-11446650D01*
X10671730Y-11446650D02*
X10643158Y-11446650D01*
X10643158Y-11446650D02*
X10624111Y-11456174D01*
X10624111Y-11456174D02*
X10614587Y-11465698D01*
X10824111Y-11579984D02*
X10805063Y-11570460D01*
X10805063Y-11570460D02*
X10795539Y-11560936D01*
X10795539Y-11560936D02*
X10786015Y-11541888D01*
X10786015Y-11541888D02*
X10786015Y-11484746D01*
X10786015Y-11484746D02*
X10795539Y-11465698D01*
X10795539Y-11465698D02*
X10805063Y-11456174D01*
X10805063Y-11456174D02*
X10824111Y-11446650D01*
X10824111Y-11446650D02*
X10852682Y-11446650D01*
X10852682Y-11446650D02*
X10871730Y-11456174D01*
X10871730Y-11456174D02*
X10881253Y-11465698D01*
X10881253Y-11465698D02*
X10890777Y-11484746D01*
X10890777Y-11484746D02*
X10890777Y-11541888D01*
X10890777Y-11541888D02*
X10881253Y-11560936D01*
X10881253Y-11560936D02*
X10871730Y-11570460D01*
X10871730Y-11570460D02*
X10852682Y-11579984D01*
X10852682Y-11579984D02*
X10824111Y-11579984D01*
X11005063Y-11579984D02*
X10986015Y-11570460D01*
X10986015Y-11570460D02*
X10976492Y-11551412D01*
X10976492Y-11551412D02*
X10976492Y-11379984D01*
X11157444Y-11570460D02*
X11138396Y-11579984D01*
X11138396Y-11579984D02*
X11100301Y-11579984D01*
X11100301Y-11579984D02*
X11081253Y-11570460D01*
X11081253Y-11570460D02*
X11071730Y-11551412D01*
X11071730Y-11551412D02*
X11071730Y-11475222D01*
X11071730Y-11475222D02*
X11081253Y-11456174D01*
X11081253Y-11456174D02*
X11100301Y-11446650D01*
X11100301Y-11446650D02*
X11138396Y-11446650D01*
X11138396Y-11446650D02*
X11157444Y-11456174D01*
X11157444Y-11456174D02*
X11166968Y-11475222D01*
X11166968Y-11475222D02*
X11166968Y-11494269D01*
X11166968Y-11494269D02*
X11071730Y-11513317D01*
X11243158Y-11570460D02*
X11262206Y-11579984D01*
X11262206Y-11579984D02*
X11300301Y-11579984D01*
X11300301Y-11579984D02*
X11319349Y-11570460D01*
X11319349Y-11570460D02*
X11328872Y-11551412D01*
X11328872Y-11551412D02*
X11328872Y-11541888D01*
X11328872Y-11541888D02*
X11319349Y-11522841D01*
X11319349Y-11522841D02*
X11300301Y-11513317D01*
X11300301Y-11513317D02*
X11271730Y-11513317D01*
X11271730Y-11513317D02*
X11252682Y-11503793D01*
X11252682Y-11503793D02*
X11243158Y-11484746D01*
X11243158Y-11484746D02*
X11243158Y-11475222D01*
X11243158Y-11475222D02*
X11252682Y-11456174D01*
X11252682Y-11456174D02*
X11271730Y-11446650D01*
X11271730Y-11446650D02*
X11300301Y-11446650D01*
X11300301Y-11446650D02*
X11319349Y-11456174D01*
X11395539Y-11656174D02*
X11405063Y-11646650D01*
X11405063Y-11646650D02*
X11424111Y-11618079D01*
X11424111Y-11618079D02*
X11433634Y-11599031D01*
X11433634Y-11599031D02*
X11443158Y-11570460D01*
X11443158Y-11570460D02*
X11452682Y-11522841D01*
X11452682Y-11522841D02*
X11452682Y-11484746D01*
X11452682Y-11484746D02*
X11443158Y-11437127D01*
X11443158Y-11437127D02*
X11433634Y-11408555D01*
X11433634Y-11408555D02*
X11424111Y-11389508D01*
X11424111Y-11389508D02*
X11405063Y-11360936D01*
X11405063Y-11360936D02*
X11395539Y-11351412D01*
D13*
X6383010Y-11705510D02*
X6383010Y-11799490D01*
X6336020Y-11752500D02*
X6430000Y-11752500D01*
D12*
X6728872Y-11643984D02*
X6747920Y-11643984D01*
X6747920Y-11643984D02*
X6766967Y-11653508D01*
X6766967Y-11653508D02*
X6776491Y-11663031D01*
X6776491Y-11663031D02*
X6786015Y-11682079D01*
X6786015Y-11682079D02*
X6795539Y-11720174D01*
X6795539Y-11720174D02*
X6795539Y-11767793D01*
X6795539Y-11767793D02*
X6786015Y-11805888D01*
X6786015Y-11805888D02*
X6776491Y-11824936D01*
X6776491Y-11824936D02*
X6766967Y-11834460D01*
X6766967Y-11834460D02*
X6747920Y-11843984D01*
X6747920Y-11843984D02*
X6728872Y-11843984D01*
X6728872Y-11843984D02*
X6709824Y-11834460D01*
X6709824Y-11834460D02*
X6700301Y-11824936D01*
X6700301Y-11824936D02*
X6690777Y-11805888D01*
X6690777Y-11805888D02*
X6681253Y-11767793D01*
X6681253Y-11767793D02*
X6681253Y-11720174D01*
X6681253Y-11720174D02*
X6690777Y-11682079D01*
X6690777Y-11682079D02*
X6700301Y-11663031D01*
X6700301Y-11663031D02*
X6709824Y-11653508D01*
X6709824Y-11653508D02*
X6728872Y-11643984D01*
X6881253Y-11824936D02*
X6890777Y-11834460D01*
X6890777Y-11834460D02*
X6881253Y-11843984D01*
X6881253Y-11843984D02*
X6871729Y-11834460D01*
X6871729Y-11834460D02*
X6881253Y-11824936D01*
X6881253Y-11824936D02*
X6881253Y-11843984D01*
X6986015Y-11843984D02*
X7024110Y-11843984D01*
X7024110Y-11843984D02*
X7043158Y-11834460D01*
X7043158Y-11834460D02*
X7052682Y-11824936D01*
X7052682Y-11824936D02*
X7071729Y-11796365D01*
X7071729Y-11796365D02*
X7081253Y-11758269D01*
X7081253Y-11758269D02*
X7081253Y-11682079D01*
X7081253Y-11682079D02*
X7071729Y-11663031D01*
X7071729Y-11663031D02*
X7062205Y-11653508D01*
X7062205Y-11653508D02*
X7043158Y-11643984D01*
X7043158Y-11643984D02*
X7005062Y-11643984D01*
X7005062Y-11643984D02*
X6986015Y-11653508D01*
X6986015Y-11653508D02*
X6976491Y-11663031D01*
X6976491Y-11663031D02*
X6966967Y-11682079D01*
X6966967Y-11682079D02*
X6966967Y-11729698D01*
X6966967Y-11729698D02*
X6976491Y-11748746D01*
X6976491Y-11748746D02*
X6986015Y-11758269D01*
X6986015Y-11758269D02*
X7005062Y-11767793D01*
X7005062Y-11767793D02*
X7043158Y-11767793D01*
X7043158Y-11767793D02*
X7062205Y-11758269D01*
X7062205Y-11758269D02*
X7071729Y-11748746D01*
X7071729Y-11748746D02*
X7081253Y-11729698D01*
X7252682Y-11710650D02*
X7252682Y-11843984D01*
X7205062Y-11634460D02*
X7157443Y-11777317D01*
X7157443Y-11777317D02*
X7281253Y-11777317D01*
X7395539Y-11643984D02*
X7414586Y-11643984D01*
X7414586Y-11643984D02*
X7433634Y-11653508D01*
X7433634Y-11653508D02*
X7443158Y-11663031D01*
X7443158Y-11663031D02*
X7452682Y-11682079D01*
X7452682Y-11682079D02*
X7462205Y-11720174D01*
X7462205Y-11720174D02*
X7462205Y-11767793D01*
X7462205Y-11767793D02*
X7452682Y-11805888D01*
X7452682Y-11805888D02*
X7443158Y-11824936D01*
X7443158Y-11824936D02*
X7433634Y-11834460D01*
X7433634Y-11834460D02*
X7414586Y-11843984D01*
X7414586Y-11843984D02*
X7395539Y-11843984D01*
X7395539Y-11843984D02*
X7376491Y-11834460D01*
X7376491Y-11834460D02*
X7366967Y-11824936D01*
X7366967Y-11824936D02*
X7357443Y-11805888D01*
X7357443Y-11805888D02*
X7347920Y-11767793D01*
X7347920Y-11767793D02*
X7347920Y-11720174D01*
X7347920Y-11720174D02*
X7357443Y-11682079D01*
X7357443Y-11682079D02*
X7366967Y-11663031D01*
X7366967Y-11663031D02*
X7376491Y-11653508D01*
X7376491Y-11653508D02*
X7395539Y-11643984D01*
X7547920Y-11843984D02*
X7547920Y-11710650D01*
X7547920Y-11729698D02*
X7557443Y-11720174D01*
X7557443Y-11720174D02*
X7576491Y-11710650D01*
X7576491Y-11710650D02*
X7605063Y-11710650D01*
X7605063Y-11710650D02*
X7624110Y-11720174D01*
X7624110Y-11720174D02*
X7633634Y-11739222D01*
X7633634Y-11739222D02*
X7633634Y-11843984D01*
X7633634Y-11739222D02*
X7643158Y-11720174D01*
X7643158Y-11720174D02*
X7662205Y-11710650D01*
X7662205Y-11710650D02*
X7690777Y-11710650D01*
X7690777Y-11710650D02*
X7709824Y-11720174D01*
X7709824Y-11720174D02*
X7719348Y-11739222D01*
X7719348Y-11739222D02*
X7719348Y-11843984D01*
X7814586Y-11843984D02*
X7814586Y-11710650D01*
X7814586Y-11729698D02*
X7824110Y-11720174D01*
X7824110Y-11720174D02*
X7843158Y-11710650D01*
X7843158Y-11710650D02*
X7871729Y-11710650D01*
X7871729Y-11710650D02*
X7890777Y-11720174D01*
X7890777Y-11720174D02*
X7900301Y-11739222D01*
X7900301Y-11739222D02*
X7900301Y-11843984D01*
X7900301Y-11739222D02*
X7909824Y-11720174D01*
X7909824Y-11720174D02*
X7928872Y-11710650D01*
X7928872Y-11710650D02*
X7957443Y-11710650D01*
X7957443Y-11710650D02*
X7976491Y-11720174D01*
X7976491Y-11720174D02*
X7986015Y-11739222D01*
X7986015Y-11739222D02*
X7986015Y-11843984D01*
X8376491Y-11634460D02*
X8205063Y-11891603D01*
X8633634Y-11643984D02*
X8652682Y-11643984D01*
X8652682Y-11643984D02*
X8671729Y-11653508D01*
X8671729Y-11653508D02*
X8681253Y-11663031D01*
X8681253Y-11663031D02*
X8690777Y-11682079D01*
X8690777Y-11682079D02*
X8700301Y-11720174D01*
X8700301Y-11720174D02*
X8700301Y-11767793D01*
X8700301Y-11767793D02*
X8690777Y-11805888D01*
X8690777Y-11805888D02*
X8681253Y-11824936D01*
X8681253Y-11824936D02*
X8671729Y-11834460D01*
X8671729Y-11834460D02*
X8652682Y-11843984D01*
X8652682Y-11843984D02*
X8633634Y-11843984D01*
X8633634Y-11843984D02*
X8614587Y-11834460D01*
X8614587Y-11834460D02*
X8605063Y-11824936D01*
X8605063Y-11824936D02*
X8595539Y-11805888D01*
X8595539Y-11805888D02*
X8586015Y-11767793D01*
X8586015Y-11767793D02*
X8586015Y-11720174D01*
X8586015Y-11720174D02*
X8595539Y-11682079D01*
X8595539Y-11682079D02*
X8605063Y-11663031D01*
X8605063Y-11663031D02*
X8614587Y-11653508D01*
X8614587Y-11653508D02*
X8633634Y-11643984D01*
X8786015Y-11824936D02*
X8795539Y-11834460D01*
X8795539Y-11834460D02*
X8786015Y-11843984D01*
X8786015Y-11843984D02*
X8776491Y-11834460D01*
X8776491Y-11834460D02*
X8786015Y-11824936D01*
X8786015Y-11824936D02*
X8786015Y-11843984D01*
X8919348Y-11643984D02*
X8938396Y-11643984D01*
X8938396Y-11643984D02*
X8957444Y-11653508D01*
X8957444Y-11653508D02*
X8966968Y-11663031D01*
X8966968Y-11663031D02*
X8976491Y-11682079D01*
X8976491Y-11682079D02*
X8986015Y-11720174D01*
X8986015Y-11720174D02*
X8986015Y-11767793D01*
X8986015Y-11767793D02*
X8976491Y-11805888D01*
X8976491Y-11805888D02*
X8966968Y-11824936D01*
X8966968Y-11824936D02*
X8957444Y-11834460D01*
X8957444Y-11834460D02*
X8938396Y-11843984D01*
X8938396Y-11843984D02*
X8919348Y-11843984D01*
X8919348Y-11843984D02*
X8900301Y-11834460D01*
X8900301Y-11834460D02*
X8890777Y-11824936D01*
X8890777Y-11824936D02*
X8881253Y-11805888D01*
X8881253Y-11805888D02*
X8871729Y-11767793D01*
X8871729Y-11767793D02*
X8871729Y-11720174D01*
X8871729Y-11720174D02*
X8881253Y-11682079D01*
X8881253Y-11682079D02*
X8890777Y-11663031D01*
X8890777Y-11663031D02*
X8900301Y-11653508D01*
X8900301Y-11653508D02*
X8919348Y-11643984D01*
X9052682Y-11643984D02*
X9176491Y-11643984D01*
X9176491Y-11643984D02*
X9109825Y-11720174D01*
X9109825Y-11720174D02*
X9138396Y-11720174D01*
X9138396Y-11720174D02*
X9157444Y-11729698D01*
X9157444Y-11729698D02*
X9166968Y-11739222D01*
X9166968Y-11739222D02*
X9176491Y-11758269D01*
X9176491Y-11758269D02*
X9176491Y-11805888D01*
X9176491Y-11805888D02*
X9166968Y-11824936D01*
X9166968Y-11824936D02*
X9157444Y-11834460D01*
X9157444Y-11834460D02*
X9138396Y-11843984D01*
X9138396Y-11843984D02*
X9081253Y-11843984D01*
X9081253Y-11843984D02*
X9062206Y-11834460D01*
X9062206Y-11834460D02*
X9052682Y-11824936D01*
X9243158Y-11643984D02*
X9376491Y-11643984D01*
X9376491Y-11643984D02*
X9290777Y-11843984D01*
X9490777Y-11643984D02*
X9509825Y-11643984D01*
X9509825Y-11643984D02*
X9528872Y-11653508D01*
X9528872Y-11653508D02*
X9538396Y-11663031D01*
X9538396Y-11663031D02*
X9547920Y-11682079D01*
X9547920Y-11682079D02*
X9557444Y-11720174D01*
X9557444Y-11720174D02*
X9557444Y-11767793D01*
X9557444Y-11767793D02*
X9547920Y-11805888D01*
X9547920Y-11805888D02*
X9538396Y-11824936D01*
X9538396Y-11824936D02*
X9528872Y-11834460D01*
X9528872Y-11834460D02*
X9509825Y-11843984D01*
X9509825Y-11843984D02*
X9490777Y-11843984D01*
X9490777Y-11843984D02*
X9471729Y-11834460D01*
X9471729Y-11834460D02*
X9462206Y-11824936D01*
X9462206Y-11824936D02*
X9452682Y-11805888D01*
X9452682Y-11805888D02*
X9443158Y-11767793D01*
X9443158Y-11767793D02*
X9443158Y-11720174D01*
X9443158Y-11720174D02*
X9452682Y-11682079D01*
X9452682Y-11682079D02*
X9462206Y-11663031D01*
X9462206Y-11663031D02*
X9471729Y-11653508D01*
X9471729Y-11653508D02*
X9490777Y-11643984D01*
X9633634Y-11643984D02*
X9633634Y-11682079D01*
X9709825Y-11643984D02*
X9709825Y-11682079D01*
X10005063Y-11920174D02*
X9995539Y-11910650D01*
X9995539Y-11910650D02*
X9976491Y-11882079D01*
X9976491Y-11882079D02*
X9966968Y-11863031D01*
X9966968Y-11863031D02*
X9957444Y-11834460D01*
X9957444Y-11834460D02*
X9947920Y-11786841D01*
X9947920Y-11786841D02*
X9947920Y-11748746D01*
X9947920Y-11748746D02*
X9957444Y-11701127D01*
X9957444Y-11701127D02*
X9966968Y-11672555D01*
X9966968Y-11672555D02*
X9976491Y-11653508D01*
X9976491Y-11653508D02*
X9995539Y-11624936D01*
X9995539Y-11624936D02*
X10005063Y-11615412D01*
X10186015Y-11843984D02*
X10071730Y-11843984D01*
X10128872Y-11843984D02*
X10128872Y-11643984D01*
X10128872Y-11643984D02*
X10109825Y-11672555D01*
X10109825Y-11672555D02*
X10090777Y-11691603D01*
X10090777Y-11691603D02*
X10071730Y-11701127D01*
X10357444Y-11643984D02*
X10319349Y-11643984D01*
X10319349Y-11643984D02*
X10300301Y-11653508D01*
X10300301Y-11653508D02*
X10290777Y-11663031D01*
X10290777Y-11663031D02*
X10271730Y-11691603D01*
X10271730Y-11691603D02*
X10262206Y-11729698D01*
X10262206Y-11729698D02*
X10262206Y-11805888D01*
X10262206Y-11805888D02*
X10271730Y-11824936D01*
X10271730Y-11824936D02*
X10281253Y-11834460D01*
X10281253Y-11834460D02*
X10300301Y-11843984D01*
X10300301Y-11843984D02*
X10338396Y-11843984D01*
X10338396Y-11843984D02*
X10357444Y-11834460D01*
X10357444Y-11834460D02*
X10366968Y-11824936D01*
X10366968Y-11824936D02*
X10376491Y-11805888D01*
X10376491Y-11805888D02*
X10376491Y-11758269D01*
X10376491Y-11758269D02*
X10366968Y-11739222D01*
X10366968Y-11739222D02*
X10357444Y-11729698D01*
X10357444Y-11729698D02*
X10338396Y-11720174D01*
X10338396Y-11720174D02*
X10300301Y-11720174D01*
X10300301Y-11720174D02*
X10281253Y-11729698D01*
X10281253Y-11729698D02*
X10271730Y-11739222D01*
X10271730Y-11739222D02*
X10262206Y-11758269D01*
X10614587Y-11843984D02*
X10614587Y-11643984D01*
X10700301Y-11843984D02*
X10700301Y-11739222D01*
X10700301Y-11739222D02*
X10690777Y-11720174D01*
X10690777Y-11720174D02*
X10671730Y-11710650D01*
X10671730Y-11710650D02*
X10643158Y-11710650D01*
X10643158Y-11710650D02*
X10624111Y-11720174D01*
X10624111Y-11720174D02*
X10614587Y-11729698D01*
X10824111Y-11843984D02*
X10805063Y-11834460D01*
X10805063Y-11834460D02*
X10795539Y-11824936D01*
X10795539Y-11824936D02*
X10786015Y-11805888D01*
X10786015Y-11805888D02*
X10786015Y-11748746D01*
X10786015Y-11748746D02*
X10795539Y-11729698D01*
X10795539Y-11729698D02*
X10805063Y-11720174D01*
X10805063Y-11720174D02*
X10824111Y-11710650D01*
X10824111Y-11710650D02*
X10852682Y-11710650D01*
X10852682Y-11710650D02*
X10871730Y-11720174D01*
X10871730Y-11720174D02*
X10881253Y-11729698D01*
X10881253Y-11729698D02*
X10890777Y-11748746D01*
X10890777Y-11748746D02*
X10890777Y-11805888D01*
X10890777Y-11805888D02*
X10881253Y-11824936D01*
X10881253Y-11824936D02*
X10871730Y-11834460D01*
X10871730Y-11834460D02*
X10852682Y-11843984D01*
X10852682Y-11843984D02*
X10824111Y-11843984D01*
X11005063Y-11843984D02*
X10986015Y-11834460D01*
X10986015Y-11834460D02*
X10976492Y-11815412D01*
X10976492Y-11815412D02*
X10976492Y-11643984D01*
X11157444Y-11834460D02*
X11138396Y-11843984D01*
X11138396Y-11843984D02*
X11100301Y-11843984D01*
X11100301Y-11843984D02*
X11081253Y-11834460D01*
X11081253Y-11834460D02*
X11071730Y-11815412D01*
X11071730Y-11815412D02*
X11071730Y-11739222D01*
X11071730Y-11739222D02*
X11081253Y-11720174D01*
X11081253Y-11720174D02*
X11100301Y-11710650D01*
X11100301Y-11710650D02*
X11138396Y-11710650D01*
X11138396Y-11710650D02*
X11157444Y-11720174D01*
X11157444Y-11720174D02*
X11166968Y-11739222D01*
X11166968Y-11739222D02*
X11166968Y-11758269D01*
X11166968Y-11758269D02*
X11071730Y-11777317D01*
X11243158Y-11834460D02*
X11262206Y-11843984D01*
X11262206Y-11843984D02*
X11300301Y-11843984D01*
X11300301Y-11843984D02*
X11319349Y-11834460D01*
X11319349Y-11834460D02*
X11328872Y-11815412D01*
X11328872Y-11815412D02*
X11328872Y-11805888D01*
X11328872Y-11805888D02*
X11319349Y-11786841D01*
X11319349Y-11786841D02*
X11300301Y-11777317D01*
X11300301Y-11777317D02*
X11271730Y-11777317D01*
X11271730Y-11777317D02*
X11252682Y-11767793D01*
X11252682Y-11767793D02*
X11243158Y-11748746D01*
X11243158Y-11748746D02*
X11243158Y-11739222D01*
X11243158Y-11739222D02*
X11252682Y-11720174D01*
X11252682Y-11720174D02*
X11271730Y-11710650D01*
X11271730Y-11710650D02*
X11300301Y-11710650D01*
X11300301Y-11710650D02*
X11319349Y-11720174D01*
X11395539Y-11920174D02*
X11405063Y-11910650D01*
X11405063Y-11910650D02*
X11424111Y-11882079D01*
X11424111Y-11882079D02*
X11433634Y-11863031D01*
X11433634Y-11863031D02*
X11443158Y-11834460D01*
X11443158Y-11834460D02*
X11452682Y-11786841D01*
X11452682Y-11786841D02*
X11452682Y-11748746D01*
X11452682Y-11748746D02*
X11443158Y-11701127D01*
X11443158Y-11701127D02*
X11433634Y-11672555D01*
X11433634Y-11672555D02*
X11424111Y-11653508D01*
X11424111Y-11653508D02*
X11405063Y-11624936D01*
X11405063Y-11624936D02*
X11395539Y-11615412D01*
D14*
X6413891Y-12055391D02*
X6413891Y-11977609D01*
X6336109Y-11977609D01*
X6336109Y-12055391D01*
X6413891Y-12055391D01*
D12*
X6795539Y-12107984D02*
X6681253Y-12107984D01*
X6738396Y-12107984D02*
X6738396Y-11907984D01*
X6738396Y-11907984D02*
X6719348Y-11936555D01*
X6719348Y-11936555D02*
X6700301Y-11955603D01*
X6700301Y-11955603D02*
X6681253Y-11965127D01*
X6881253Y-12088936D02*
X6890777Y-12098460D01*
X6890777Y-12098460D02*
X6881253Y-12107984D01*
X6881253Y-12107984D02*
X6871729Y-12098460D01*
X6871729Y-12098460D02*
X6881253Y-12088936D01*
X6881253Y-12088936D02*
X6881253Y-12107984D01*
X7081253Y-12107984D02*
X6966967Y-12107984D01*
X7024110Y-12107984D02*
X7024110Y-11907984D01*
X7024110Y-11907984D02*
X7005062Y-11936555D01*
X7005062Y-11936555D02*
X6986015Y-11955603D01*
X6986015Y-11955603D02*
X6966967Y-11965127D01*
X7205062Y-11907984D02*
X7224110Y-11907984D01*
X7224110Y-11907984D02*
X7243158Y-11917508D01*
X7243158Y-11917508D02*
X7252682Y-11927031D01*
X7252682Y-11927031D02*
X7262205Y-11946079D01*
X7262205Y-11946079D02*
X7271729Y-11984174D01*
X7271729Y-11984174D02*
X7271729Y-12031793D01*
X7271729Y-12031793D02*
X7262205Y-12069888D01*
X7262205Y-12069888D02*
X7252682Y-12088936D01*
X7252682Y-12088936D02*
X7243158Y-12098460D01*
X7243158Y-12098460D02*
X7224110Y-12107984D01*
X7224110Y-12107984D02*
X7205062Y-12107984D01*
X7205062Y-12107984D02*
X7186015Y-12098460D01*
X7186015Y-12098460D02*
X7176491Y-12088936D01*
X7176491Y-12088936D02*
X7166967Y-12069888D01*
X7166967Y-12069888D02*
X7157443Y-12031793D01*
X7157443Y-12031793D02*
X7157443Y-11984174D01*
X7157443Y-11984174D02*
X7166967Y-11946079D01*
X7166967Y-11946079D02*
X7176491Y-11927031D01*
X7176491Y-11927031D02*
X7186015Y-11917508D01*
X7186015Y-11917508D02*
X7205062Y-11907984D01*
X7395539Y-11907984D02*
X7414586Y-11907984D01*
X7414586Y-11907984D02*
X7433634Y-11917508D01*
X7433634Y-11917508D02*
X7443158Y-11927031D01*
X7443158Y-11927031D02*
X7452682Y-11946079D01*
X7452682Y-11946079D02*
X7462205Y-11984174D01*
X7462205Y-11984174D02*
X7462205Y-12031793D01*
X7462205Y-12031793D02*
X7452682Y-12069888D01*
X7452682Y-12069888D02*
X7443158Y-12088936D01*
X7443158Y-12088936D02*
X7433634Y-12098460D01*
X7433634Y-12098460D02*
X7414586Y-12107984D01*
X7414586Y-12107984D02*
X7395539Y-12107984D01*
X7395539Y-12107984D02*
X7376491Y-12098460D01*
X7376491Y-12098460D02*
X7366967Y-12088936D01*
X7366967Y-12088936D02*
X7357443Y-12069888D01*
X7357443Y-12069888D02*
X7347920Y-12031793D01*
X7347920Y-12031793D02*
X7347920Y-11984174D01*
X7347920Y-11984174D02*
X7357443Y-11946079D01*
X7357443Y-11946079D02*
X7366967Y-11927031D01*
X7366967Y-11927031D02*
X7376491Y-11917508D01*
X7376491Y-11917508D02*
X7395539Y-11907984D01*
X7547920Y-12107984D02*
X7547920Y-11974650D01*
X7547920Y-11993698D02*
X7557443Y-11984174D01*
X7557443Y-11984174D02*
X7576491Y-11974650D01*
X7576491Y-11974650D02*
X7605063Y-11974650D01*
X7605063Y-11974650D02*
X7624110Y-11984174D01*
X7624110Y-11984174D02*
X7633634Y-12003222D01*
X7633634Y-12003222D02*
X7633634Y-12107984D01*
X7633634Y-12003222D02*
X7643158Y-11984174D01*
X7643158Y-11984174D02*
X7662205Y-11974650D01*
X7662205Y-11974650D02*
X7690777Y-11974650D01*
X7690777Y-11974650D02*
X7709824Y-11984174D01*
X7709824Y-11984174D02*
X7719348Y-12003222D01*
X7719348Y-12003222D02*
X7719348Y-12107984D01*
X7814586Y-12107984D02*
X7814586Y-11974650D01*
X7814586Y-11993698D02*
X7824110Y-11984174D01*
X7824110Y-11984174D02*
X7843158Y-11974650D01*
X7843158Y-11974650D02*
X7871729Y-11974650D01*
X7871729Y-11974650D02*
X7890777Y-11984174D01*
X7890777Y-11984174D02*
X7900301Y-12003222D01*
X7900301Y-12003222D02*
X7900301Y-12107984D01*
X7900301Y-12003222D02*
X7909824Y-11984174D01*
X7909824Y-11984174D02*
X7928872Y-11974650D01*
X7928872Y-11974650D02*
X7957443Y-11974650D01*
X7957443Y-11974650D02*
X7976491Y-11984174D01*
X7976491Y-11984174D02*
X7986015Y-12003222D01*
X7986015Y-12003222D02*
X7986015Y-12107984D01*
X8376491Y-11898460D02*
X8205063Y-12155603D01*
X8633634Y-11907984D02*
X8652682Y-11907984D01*
X8652682Y-11907984D02*
X8671729Y-11917508D01*
X8671729Y-11917508D02*
X8681253Y-11927031D01*
X8681253Y-11927031D02*
X8690777Y-11946079D01*
X8690777Y-11946079D02*
X8700301Y-11984174D01*
X8700301Y-11984174D02*
X8700301Y-12031793D01*
X8700301Y-12031793D02*
X8690777Y-12069888D01*
X8690777Y-12069888D02*
X8681253Y-12088936D01*
X8681253Y-12088936D02*
X8671729Y-12098460D01*
X8671729Y-12098460D02*
X8652682Y-12107984D01*
X8652682Y-12107984D02*
X8633634Y-12107984D01*
X8633634Y-12107984D02*
X8614587Y-12098460D01*
X8614587Y-12098460D02*
X8605063Y-12088936D01*
X8605063Y-12088936D02*
X8595539Y-12069888D01*
X8595539Y-12069888D02*
X8586015Y-12031793D01*
X8586015Y-12031793D02*
X8586015Y-11984174D01*
X8586015Y-11984174D02*
X8595539Y-11946079D01*
X8595539Y-11946079D02*
X8605063Y-11927031D01*
X8605063Y-11927031D02*
X8614587Y-11917508D01*
X8614587Y-11917508D02*
X8633634Y-11907984D01*
X8786015Y-12088936D02*
X8795539Y-12098460D01*
X8795539Y-12098460D02*
X8786015Y-12107984D01*
X8786015Y-12107984D02*
X8776491Y-12098460D01*
X8776491Y-12098460D02*
X8786015Y-12088936D01*
X8786015Y-12088936D02*
X8786015Y-12107984D01*
X8919348Y-11907984D02*
X8938396Y-11907984D01*
X8938396Y-11907984D02*
X8957444Y-11917508D01*
X8957444Y-11917508D02*
X8966968Y-11927031D01*
X8966968Y-11927031D02*
X8976491Y-11946079D01*
X8976491Y-11946079D02*
X8986015Y-11984174D01*
X8986015Y-11984174D02*
X8986015Y-12031793D01*
X8986015Y-12031793D02*
X8976491Y-12069888D01*
X8976491Y-12069888D02*
X8966968Y-12088936D01*
X8966968Y-12088936D02*
X8957444Y-12098460D01*
X8957444Y-12098460D02*
X8938396Y-12107984D01*
X8938396Y-12107984D02*
X8919348Y-12107984D01*
X8919348Y-12107984D02*
X8900301Y-12098460D01*
X8900301Y-12098460D02*
X8890777Y-12088936D01*
X8890777Y-12088936D02*
X8881253Y-12069888D01*
X8881253Y-12069888D02*
X8871729Y-12031793D01*
X8871729Y-12031793D02*
X8871729Y-11984174D01*
X8871729Y-11984174D02*
X8881253Y-11946079D01*
X8881253Y-11946079D02*
X8890777Y-11927031D01*
X8890777Y-11927031D02*
X8900301Y-11917508D01*
X8900301Y-11917508D02*
X8919348Y-11907984D01*
X9157444Y-11974650D02*
X9157444Y-12107984D01*
X9109825Y-11898460D02*
X9062206Y-12041317D01*
X9062206Y-12041317D02*
X9186015Y-12041317D01*
X9243158Y-11907984D02*
X9366968Y-11907984D01*
X9366968Y-11907984D02*
X9300301Y-11984174D01*
X9300301Y-11984174D02*
X9328872Y-11984174D01*
X9328872Y-11984174D02*
X9347920Y-11993698D01*
X9347920Y-11993698D02*
X9357444Y-12003222D01*
X9357444Y-12003222D02*
X9366968Y-12022269D01*
X9366968Y-12022269D02*
X9366968Y-12069888D01*
X9366968Y-12069888D02*
X9357444Y-12088936D01*
X9357444Y-12088936D02*
X9347920Y-12098460D01*
X9347920Y-12098460D02*
X9328872Y-12107984D01*
X9328872Y-12107984D02*
X9271729Y-12107984D01*
X9271729Y-12107984D02*
X9252682Y-12098460D01*
X9252682Y-12098460D02*
X9243158Y-12088936D01*
X9433634Y-11907984D02*
X9557444Y-11907984D01*
X9557444Y-11907984D02*
X9490777Y-11984174D01*
X9490777Y-11984174D02*
X9519349Y-11984174D01*
X9519349Y-11984174D02*
X9538396Y-11993698D01*
X9538396Y-11993698D02*
X9547920Y-12003222D01*
X9547920Y-12003222D02*
X9557444Y-12022269D01*
X9557444Y-12022269D02*
X9557444Y-12069888D01*
X9557444Y-12069888D02*
X9547920Y-12088936D01*
X9547920Y-12088936D02*
X9538396Y-12098460D01*
X9538396Y-12098460D02*
X9519349Y-12107984D01*
X9519349Y-12107984D02*
X9462206Y-12107984D01*
X9462206Y-12107984D02*
X9443158Y-12098460D01*
X9443158Y-12098460D02*
X9433634Y-12088936D01*
X9633634Y-11907984D02*
X9633634Y-11946079D01*
X9709825Y-11907984D02*
X9709825Y-11946079D01*
X10005063Y-12184174D02*
X9995539Y-12174650D01*
X9995539Y-12174650D02*
X9976491Y-12146079D01*
X9976491Y-12146079D02*
X9966968Y-12127031D01*
X9966968Y-12127031D02*
X9957444Y-12098460D01*
X9957444Y-12098460D02*
X9947920Y-12050841D01*
X9947920Y-12050841D02*
X9947920Y-12012746D01*
X9947920Y-12012746D02*
X9957444Y-11965127D01*
X9957444Y-11965127D02*
X9966968Y-11936555D01*
X9966968Y-11936555D02*
X9976491Y-11917508D01*
X9976491Y-11917508D02*
X9995539Y-11888936D01*
X9995539Y-11888936D02*
X10005063Y-11879412D01*
X10109825Y-11993698D02*
X10090777Y-11984174D01*
X10090777Y-11984174D02*
X10081253Y-11974650D01*
X10081253Y-11974650D02*
X10071730Y-11955603D01*
X10071730Y-11955603D02*
X10071730Y-11946079D01*
X10071730Y-11946079D02*
X10081253Y-11927031D01*
X10081253Y-11927031D02*
X10090777Y-11917508D01*
X10090777Y-11917508D02*
X10109825Y-11907984D01*
X10109825Y-11907984D02*
X10147920Y-11907984D01*
X10147920Y-11907984D02*
X10166968Y-11917508D01*
X10166968Y-11917508D02*
X10176491Y-11927031D01*
X10176491Y-11927031D02*
X10186015Y-11946079D01*
X10186015Y-11946079D02*
X10186015Y-11955603D01*
X10186015Y-11955603D02*
X10176491Y-11974650D01*
X10176491Y-11974650D02*
X10166968Y-11984174D01*
X10166968Y-11984174D02*
X10147920Y-11993698D01*
X10147920Y-11993698D02*
X10109825Y-11993698D01*
X10109825Y-11993698D02*
X10090777Y-12003222D01*
X10090777Y-12003222D02*
X10081253Y-12012746D01*
X10081253Y-12012746D02*
X10071730Y-12031793D01*
X10071730Y-12031793D02*
X10071730Y-12069888D01*
X10071730Y-12069888D02*
X10081253Y-12088936D01*
X10081253Y-12088936D02*
X10090777Y-12098460D01*
X10090777Y-12098460D02*
X10109825Y-12107984D01*
X10109825Y-12107984D02*
X10147920Y-12107984D01*
X10147920Y-12107984D02*
X10166968Y-12098460D01*
X10166968Y-12098460D02*
X10176491Y-12088936D01*
X10176491Y-12088936D02*
X10186015Y-12069888D01*
X10186015Y-12069888D02*
X10186015Y-12031793D01*
X10186015Y-12031793D02*
X10176491Y-12012746D01*
X10176491Y-12012746D02*
X10166968Y-12003222D01*
X10166968Y-12003222D02*
X10147920Y-11993698D01*
X10424111Y-12107984D02*
X10424111Y-11907984D01*
X10509825Y-12107984D02*
X10509825Y-12003222D01*
X10509825Y-12003222D02*
X10500301Y-11984174D01*
X10500301Y-11984174D02*
X10481253Y-11974650D01*
X10481253Y-11974650D02*
X10452682Y-11974650D01*
X10452682Y-11974650D02*
X10433634Y-11984174D01*
X10433634Y-11984174D02*
X10424111Y-11993698D01*
X10633634Y-12107984D02*
X10614587Y-12098460D01*
X10614587Y-12098460D02*
X10605063Y-12088936D01*
X10605063Y-12088936D02*
X10595539Y-12069888D01*
X10595539Y-12069888D02*
X10595539Y-12012746D01*
X10595539Y-12012746D02*
X10605063Y-11993698D01*
X10605063Y-11993698D02*
X10614587Y-11984174D01*
X10614587Y-11984174D02*
X10633634Y-11974650D01*
X10633634Y-11974650D02*
X10662206Y-11974650D01*
X10662206Y-11974650D02*
X10681253Y-11984174D01*
X10681253Y-11984174D02*
X10690777Y-11993698D01*
X10690777Y-11993698D02*
X10700301Y-12012746D01*
X10700301Y-12012746D02*
X10700301Y-12069888D01*
X10700301Y-12069888D02*
X10690777Y-12088936D01*
X10690777Y-12088936D02*
X10681253Y-12098460D01*
X10681253Y-12098460D02*
X10662206Y-12107984D01*
X10662206Y-12107984D02*
X10633634Y-12107984D01*
X10814587Y-12107984D02*
X10795539Y-12098460D01*
X10795539Y-12098460D02*
X10786015Y-12079412D01*
X10786015Y-12079412D02*
X10786015Y-11907984D01*
X10966968Y-12098460D02*
X10947920Y-12107984D01*
X10947920Y-12107984D02*
X10909825Y-12107984D01*
X10909825Y-12107984D02*
X10890777Y-12098460D01*
X10890777Y-12098460D02*
X10881253Y-12079412D01*
X10881253Y-12079412D02*
X10881253Y-12003222D01*
X10881253Y-12003222D02*
X10890777Y-11984174D01*
X10890777Y-11984174D02*
X10909825Y-11974650D01*
X10909825Y-11974650D02*
X10947920Y-11974650D01*
X10947920Y-11974650D02*
X10966968Y-11984174D01*
X10966968Y-11984174D02*
X10976492Y-12003222D01*
X10976492Y-12003222D02*
X10976492Y-12022269D01*
X10976492Y-12022269D02*
X10881253Y-12041317D01*
X11052682Y-12098460D02*
X11071730Y-12107984D01*
X11071730Y-12107984D02*
X11109825Y-12107984D01*
X11109825Y-12107984D02*
X11128873Y-12098460D01*
X11128873Y-12098460D02*
X11138396Y-12079412D01*
X11138396Y-12079412D02*
X11138396Y-12069888D01*
X11138396Y-12069888D02*
X11128873Y-12050841D01*
X11128873Y-12050841D02*
X11109825Y-12041317D01*
X11109825Y-12041317D02*
X11081253Y-12041317D01*
X11081253Y-12041317D02*
X11062206Y-12031793D01*
X11062206Y-12031793D02*
X11052682Y-12012746D01*
X11052682Y-12012746D02*
X11052682Y-12003222D01*
X11052682Y-12003222D02*
X11062206Y-11984174D01*
X11062206Y-11984174D02*
X11081253Y-11974650D01*
X11081253Y-11974650D02*
X11109825Y-11974650D01*
X11109825Y-11974650D02*
X11128873Y-11984174D01*
X11205063Y-12184174D02*
X11214587Y-12174650D01*
X11214587Y-12174650D02*
X11233634Y-12146079D01*
X11233634Y-12146079D02*
X11243158Y-12127031D01*
X11243158Y-12127031D02*
X11252682Y-12098460D01*
X11252682Y-12098460D02*
X11262206Y-12050841D01*
X11262206Y-12050841D02*
X11262206Y-12012746D01*
X11262206Y-12012746D02*
X11252682Y-11965127D01*
X11252682Y-11965127D02*
X11243158Y-11936555D01*
X11243158Y-11936555D02*
X11233634Y-11917508D01*
X11233634Y-11917508D02*
X11214587Y-11888936D01*
X11214587Y-11888936D02*
X11205063Y-11879412D01*
X6330000Y-12380500D02*
X6430000Y-12280500D01*
X6330000Y-12180500D01*
X6230000Y-12280500D01*
X6330000Y-12380500D01*
X6681253Y-12191031D02*
X6690777Y-12181508D01*
X6690777Y-12181508D02*
X6709824Y-12171984D01*
X6709824Y-12171984D02*
X6757443Y-12171984D01*
X6757443Y-12171984D02*
X6776491Y-12181508D01*
X6776491Y-12181508D02*
X6786015Y-12191031D01*
X6786015Y-12191031D02*
X6795539Y-12210079D01*
X6795539Y-12210079D02*
X6795539Y-12229127D01*
X6795539Y-12229127D02*
X6786015Y-12257698D01*
X6786015Y-12257698D02*
X6671729Y-12371984D01*
X6671729Y-12371984D02*
X6795539Y-12371984D01*
X6881253Y-12352936D02*
X6890777Y-12362460D01*
X6890777Y-12362460D02*
X6881253Y-12371984D01*
X6881253Y-12371984D02*
X6871729Y-12362460D01*
X6871729Y-12362460D02*
X6881253Y-12352936D01*
X6881253Y-12352936D02*
X6881253Y-12371984D01*
X7014586Y-12171984D02*
X7033634Y-12171984D01*
X7033634Y-12171984D02*
X7052682Y-12181508D01*
X7052682Y-12181508D02*
X7062205Y-12191031D01*
X7062205Y-12191031D02*
X7071729Y-12210079D01*
X7071729Y-12210079D02*
X7081253Y-12248174D01*
X7081253Y-12248174D02*
X7081253Y-12295793D01*
X7081253Y-12295793D02*
X7071729Y-12333888D01*
X7071729Y-12333888D02*
X7062205Y-12352936D01*
X7062205Y-12352936D02*
X7052682Y-12362460D01*
X7052682Y-12362460D02*
X7033634Y-12371984D01*
X7033634Y-12371984D02*
X7014586Y-12371984D01*
X7014586Y-12371984D02*
X6995539Y-12362460D01*
X6995539Y-12362460D02*
X6986015Y-12352936D01*
X6986015Y-12352936D02*
X6976491Y-12333888D01*
X6976491Y-12333888D02*
X6966967Y-12295793D01*
X6966967Y-12295793D02*
X6966967Y-12248174D01*
X6966967Y-12248174D02*
X6976491Y-12210079D01*
X6976491Y-12210079D02*
X6986015Y-12191031D01*
X6986015Y-12191031D02*
X6995539Y-12181508D01*
X6995539Y-12181508D02*
X7014586Y-12171984D01*
X7262205Y-12171984D02*
X7166967Y-12171984D01*
X7166967Y-12171984D02*
X7157443Y-12267222D01*
X7157443Y-12267222D02*
X7166967Y-12257698D01*
X7166967Y-12257698D02*
X7186015Y-12248174D01*
X7186015Y-12248174D02*
X7233634Y-12248174D01*
X7233634Y-12248174D02*
X7252682Y-12257698D01*
X7252682Y-12257698D02*
X7262205Y-12267222D01*
X7262205Y-12267222D02*
X7271729Y-12286269D01*
X7271729Y-12286269D02*
X7271729Y-12333888D01*
X7271729Y-12333888D02*
X7262205Y-12352936D01*
X7262205Y-12352936D02*
X7252682Y-12362460D01*
X7252682Y-12362460D02*
X7233634Y-12371984D01*
X7233634Y-12371984D02*
X7186015Y-12371984D01*
X7186015Y-12371984D02*
X7166967Y-12362460D01*
X7166967Y-12362460D02*
X7157443Y-12352936D01*
X7395539Y-12171984D02*
X7414586Y-12171984D01*
X7414586Y-12171984D02*
X7433634Y-12181508D01*
X7433634Y-12181508D02*
X7443158Y-12191031D01*
X7443158Y-12191031D02*
X7452682Y-12210079D01*
X7452682Y-12210079D02*
X7462205Y-12248174D01*
X7462205Y-12248174D02*
X7462205Y-12295793D01*
X7462205Y-12295793D02*
X7452682Y-12333888D01*
X7452682Y-12333888D02*
X7443158Y-12352936D01*
X7443158Y-12352936D02*
X7433634Y-12362460D01*
X7433634Y-12362460D02*
X7414586Y-12371984D01*
X7414586Y-12371984D02*
X7395539Y-12371984D01*
X7395539Y-12371984D02*
X7376491Y-12362460D01*
X7376491Y-12362460D02*
X7366967Y-12352936D01*
X7366967Y-12352936D02*
X7357443Y-12333888D01*
X7357443Y-12333888D02*
X7347920Y-12295793D01*
X7347920Y-12295793D02*
X7347920Y-12248174D01*
X7347920Y-12248174D02*
X7357443Y-12210079D01*
X7357443Y-12210079D02*
X7366967Y-12191031D01*
X7366967Y-12191031D02*
X7376491Y-12181508D01*
X7376491Y-12181508D02*
X7395539Y-12171984D01*
X7547920Y-12371984D02*
X7547920Y-12238650D01*
X7547920Y-12257698D02*
X7557443Y-12248174D01*
X7557443Y-12248174D02*
X7576491Y-12238650D01*
X7576491Y-12238650D02*
X7605063Y-12238650D01*
X7605063Y-12238650D02*
X7624110Y-12248174D01*
X7624110Y-12248174D02*
X7633634Y-12267222D01*
X7633634Y-12267222D02*
X7633634Y-12371984D01*
X7633634Y-12267222D02*
X7643158Y-12248174D01*
X7643158Y-12248174D02*
X7662205Y-12238650D01*
X7662205Y-12238650D02*
X7690777Y-12238650D01*
X7690777Y-12238650D02*
X7709824Y-12248174D01*
X7709824Y-12248174D02*
X7719348Y-12267222D01*
X7719348Y-12267222D02*
X7719348Y-12371984D01*
X7814586Y-12371984D02*
X7814586Y-12238650D01*
X7814586Y-12257698D02*
X7824110Y-12248174D01*
X7824110Y-12248174D02*
X7843158Y-12238650D01*
X7843158Y-12238650D02*
X7871729Y-12238650D01*
X7871729Y-12238650D02*
X7890777Y-12248174D01*
X7890777Y-12248174D02*
X7900301Y-12267222D01*
X7900301Y-12267222D02*
X7900301Y-12371984D01*
X7900301Y-12267222D02*
X7909824Y-12248174D01*
X7909824Y-12248174D02*
X7928872Y-12238650D01*
X7928872Y-12238650D02*
X7957443Y-12238650D01*
X7957443Y-12238650D02*
X7976491Y-12248174D01*
X7976491Y-12248174D02*
X7986015Y-12267222D01*
X7986015Y-12267222D02*
X7986015Y-12371984D01*
X8376491Y-12162460D02*
X8205063Y-12419603D01*
X8633634Y-12171984D02*
X8652682Y-12171984D01*
X8652682Y-12171984D02*
X8671729Y-12181508D01*
X8671729Y-12181508D02*
X8681253Y-12191031D01*
X8681253Y-12191031D02*
X8690777Y-12210079D01*
X8690777Y-12210079D02*
X8700301Y-12248174D01*
X8700301Y-12248174D02*
X8700301Y-12295793D01*
X8700301Y-12295793D02*
X8690777Y-12333888D01*
X8690777Y-12333888D02*
X8681253Y-12352936D01*
X8681253Y-12352936D02*
X8671729Y-12362460D01*
X8671729Y-12362460D02*
X8652682Y-12371984D01*
X8652682Y-12371984D02*
X8633634Y-12371984D01*
X8633634Y-12371984D02*
X8614587Y-12362460D01*
X8614587Y-12362460D02*
X8605063Y-12352936D01*
X8605063Y-12352936D02*
X8595539Y-12333888D01*
X8595539Y-12333888D02*
X8586015Y-12295793D01*
X8586015Y-12295793D02*
X8586015Y-12248174D01*
X8586015Y-12248174D02*
X8595539Y-12210079D01*
X8595539Y-12210079D02*
X8605063Y-12191031D01*
X8605063Y-12191031D02*
X8614587Y-12181508D01*
X8614587Y-12181508D02*
X8633634Y-12171984D01*
X8786015Y-12352936D02*
X8795539Y-12362460D01*
X8795539Y-12362460D02*
X8786015Y-12371984D01*
X8786015Y-12371984D02*
X8776491Y-12362460D01*
X8776491Y-12362460D02*
X8786015Y-12352936D01*
X8786015Y-12352936D02*
X8786015Y-12371984D01*
X8919348Y-12171984D02*
X8938396Y-12171984D01*
X8938396Y-12171984D02*
X8957444Y-12181508D01*
X8957444Y-12181508D02*
X8966968Y-12191031D01*
X8966968Y-12191031D02*
X8976491Y-12210079D01*
X8976491Y-12210079D02*
X8986015Y-12248174D01*
X8986015Y-12248174D02*
X8986015Y-12295793D01*
X8986015Y-12295793D02*
X8976491Y-12333888D01*
X8976491Y-12333888D02*
X8966968Y-12352936D01*
X8966968Y-12352936D02*
X8957444Y-12362460D01*
X8957444Y-12362460D02*
X8938396Y-12371984D01*
X8938396Y-12371984D02*
X8919348Y-12371984D01*
X8919348Y-12371984D02*
X8900301Y-12362460D01*
X8900301Y-12362460D02*
X8890777Y-12352936D01*
X8890777Y-12352936D02*
X8881253Y-12333888D01*
X8881253Y-12333888D02*
X8871729Y-12295793D01*
X8871729Y-12295793D02*
X8871729Y-12248174D01*
X8871729Y-12248174D02*
X8881253Y-12210079D01*
X8881253Y-12210079D02*
X8890777Y-12191031D01*
X8890777Y-12191031D02*
X8900301Y-12181508D01*
X8900301Y-12181508D02*
X8919348Y-12171984D01*
X9100301Y-12257698D02*
X9081253Y-12248174D01*
X9081253Y-12248174D02*
X9071729Y-12238650D01*
X9071729Y-12238650D02*
X9062206Y-12219603D01*
X9062206Y-12219603D02*
X9062206Y-12210079D01*
X9062206Y-12210079D02*
X9071729Y-12191031D01*
X9071729Y-12191031D02*
X9081253Y-12181508D01*
X9081253Y-12181508D02*
X9100301Y-12171984D01*
X9100301Y-12171984D02*
X9138396Y-12171984D01*
X9138396Y-12171984D02*
X9157444Y-12181508D01*
X9157444Y-12181508D02*
X9166968Y-12191031D01*
X9166968Y-12191031D02*
X9176491Y-12210079D01*
X9176491Y-12210079D02*
X9176491Y-12219603D01*
X9176491Y-12219603D02*
X9166968Y-12238650D01*
X9166968Y-12238650D02*
X9157444Y-12248174D01*
X9157444Y-12248174D02*
X9138396Y-12257698D01*
X9138396Y-12257698D02*
X9100301Y-12257698D01*
X9100301Y-12257698D02*
X9081253Y-12267222D01*
X9081253Y-12267222D02*
X9071729Y-12276746D01*
X9071729Y-12276746D02*
X9062206Y-12295793D01*
X9062206Y-12295793D02*
X9062206Y-12333888D01*
X9062206Y-12333888D02*
X9071729Y-12352936D01*
X9071729Y-12352936D02*
X9081253Y-12362460D01*
X9081253Y-12362460D02*
X9100301Y-12371984D01*
X9100301Y-12371984D02*
X9138396Y-12371984D01*
X9138396Y-12371984D02*
X9157444Y-12362460D01*
X9157444Y-12362460D02*
X9166968Y-12352936D01*
X9166968Y-12352936D02*
X9176491Y-12333888D01*
X9176491Y-12333888D02*
X9176491Y-12295793D01*
X9176491Y-12295793D02*
X9166968Y-12276746D01*
X9166968Y-12276746D02*
X9157444Y-12267222D01*
X9157444Y-12267222D02*
X9138396Y-12257698D01*
X9300301Y-12171984D02*
X9319349Y-12171984D01*
X9319349Y-12171984D02*
X9338396Y-12181508D01*
X9338396Y-12181508D02*
X9347920Y-12191031D01*
X9347920Y-12191031D02*
X9357444Y-12210079D01*
X9357444Y-12210079D02*
X9366968Y-12248174D01*
X9366968Y-12248174D02*
X9366968Y-12295793D01*
X9366968Y-12295793D02*
X9357444Y-12333888D01*
X9357444Y-12333888D02*
X9347920Y-12352936D01*
X9347920Y-12352936D02*
X9338396Y-12362460D01*
X9338396Y-12362460D02*
X9319349Y-12371984D01*
X9319349Y-12371984D02*
X9300301Y-12371984D01*
X9300301Y-12371984D02*
X9281253Y-12362460D01*
X9281253Y-12362460D02*
X9271729Y-12352936D01*
X9271729Y-12352936D02*
X9262206Y-12333888D01*
X9262206Y-12333888D02*
X9252682Y-12295793D01*
X9252682Y-12295793D02*
X9252682Y-12248174D01*
X9252682Y-12248174D02*
X9262206Y-12210079D01*
X9262206Y-12210079D02*
X9271729Y-12191031D01*
X9271729Y-12191031D02*
X9281253Y-12181508D01*
X9281253Y-12181508D02*
X9300301Y-12171984D01*
X9433634Y-12171984D02*
X9566968Y-12171984D01*
X9566968Y-12171984D02*
X9481253Y-12371984D01*
X9633634Y-12171984D02*
X9633634Y-12210079D01*
X9709825Y-12171984D02*
X9709825Y-12210079D01*
X10005063Y-12448174D02*
X9995539Y-12438650D01*
X9995539Y-12438650D02*
X9976491Y-12410079D01*
X9976491Y-12410079D02*
X9966968Y-12391031D01*
X9966968Y-12391031D02*
X9957444Y-12362460D01*
X9957444Y-12362460D02*
X9947920Y-12314841D01*
X9947920Y-12314841D02*
X9947920Y-12276746D01*
X9947920Y-12276746D02*
X9957444Y-12229127D01*
X9957444Y-12229127D02*
X9966968Y-12200555D01*
X9966968Y-12200555D02*
X9976491Y-12181508D01*
X9976491Y-12181508D02*
X9995539Y-12152936D01*
X9995539Y-12152936D02*
X10005063Y-12143412D01*
X10062206Y-12171984D02*
X10186015Y-12171984D01*
X10186015Y-12171984D02*
X10119349Y-12248174D01*
X10119349Y-12248174D02*
X10147920Y-12248174D01*
X10147920Y-12248174D02*
X10166968Y-12257698D01*
X10166968Y-12257698D02*
X10176491Y-12267222D01*
X10176491Y-12267222D02*
X10186015Y-12286269D01*
X10186015Y-12286269D02*
X10186015Y-12333888D01*
X10186015Y-12333888D02*
X10176491Y-12352936D01*
X10176491Y-12352936D02*
X10166968Y-12362460D01*
X10166968Y-12362460D02*
X10147920Y-12371984D01*
X10147920Y-12371984D02*
X10090777Y-12371984D01*
X10090777Y-12371984D02*
X10071730Y-12362460D01*
X10071730Y-12362460D02*
X10062206Y-12352936D01*
X10262206Y-12191031D02*
X10271730Y-12181508D01*
X10271730Y-12181508D02*
X10290777Y-12171984D01*
X10290777Y-12171984D02*
X10338396Y-12171984D01*
X10338396Y-12171984D02*
X10357444Y-12181508D01*
X10357444Y-12181508D02*
X10366968Y-12191031D01*
X10366968Y-12191031D02*
X10376491Y-12210079D01*
X10376491Y-12210079D02*
X10376491Y-12229127D01*
X10376491Y-12229127D02*
X10366968Y-12257698D01*
X10366968Y-12257698D02*
X10252682Y-12371984D01*
X10252682Y-12371984D02*
X10376491Y-12371984D01*
X10614587Y-12371984D02*
X10614587Y-12171984D01*
X10700301Y-12371984D02*
X10700301Y-12267222D01*
X10700301Y-12267222D02*
X10690777Y-12248174D01*
X10690777Y-12248174D02*
X10671730Y-12238650D01*
X10671730Y-12238650D02*
X10643158Y-12238650D01*
X10643158Y-12238650D02*
X10624111Y-12248174D01*
X10624111Y-12248174D02*
X10614587Y-12257698D01*
X10824111Y-12371984D02*
X10805063Y-12362460D01*
X10805063Y-12362460D02*
X10795539Y-12352936D01*
X10795539Y-12352936D02*
X10786015Y-12333888D01*
X10786015Y-12333888D02*
X10786015Y-12276746D01*
X10786015Y-12276746D02*
X10795539Y-12257698D01*
X10795539Y-12257698D02*
X10805063Y-12248174D01*
X10805063Y-12248174D02*
X10824111Y-12238650D01*
X10824111Y-12238650D02*
X10852682Y-12238650D01*
X10852682Y-12238650D02*
X10871730Y-12248174D01*
X10871730Y-12248174D02*
X10881253Y-12257698D01*
X10881253Y-12257698D02*
X10890777Y-12276746D01*
X10890777Y-12276746D02*
X10890777Y-12333888D01*
X10890777Y-12333888D02*
X10881253Y-12352936D01*
X10881253Y-12352936D02*
X10871730Y-12362460D01*
X10871730Y-12362460D02*
X10852682Y-12371984D01*
X10852682Y-12371984D02*
X10824111Y-12371984D01*
X11005063Y-12371984D02*
X10986015Y-12362460D01*
X10986015Y-12362460D02*
X10976492Y-12343412D01*
X10976492Y-12343412D02*
X10976492Y-12171984D01*
X11157444Y-12362460D02*
X11138396Y-12371984D01*
X11138396Y-12371984D02*
X11100301Y-12371984D01*
X11100301Y-12371984D02*
X11081253Y-12362460D01*
X11081253Y-12362460D02*
X11071730Y-12343412D01*
X11071730Y-12343412D02*
X11071730Y-12267222D01*
X11071730Y-12267222D02*
X11081253Y-12248174D01*
X11081253Y-12248174D02*
X11100301Y-12238650D01*
X11100301Y-12238650D02*
X11138396Y-12238650D01*
X11138396Y-12238650D02*
X11157444Y-12248174D01*
X11157444Y-12248174D02*
X11166968Y-12267222D01*
X11166968Y-12267222D02*
X11166968Y-12286269D01*
X11166968Y-12286269D02*
X11071730Y-12305317D01*
X11243158Y-12362460D02*
X11262206Y-12371984D01*
X11262206Y-12371984D02*
X11300301Y-12371984D01*
X11300301Y-12371984D02*
X11319349Y-12362460D01*
X11319349Y-12362460D02*
X11328872Y-12343412D01*
X11328872Y-12343412D02*
X11328872Y-12333888D01*
X11328872Y-12333888D02*
X11319349Y-12314841D01*
X11319349Y-12314841D02*
X11300301Y-12305317D01*
X11300301Y-12305317D02*
X11271730Y-12305317D01*
X11271730Y-12305317D02*
X11252682Y-12295793D01*
X11252682Y-12295793D02*
X11243158Y-12276746D01*
X11243158Y-12276746D02*
X11243158Y-12267222D01*
X11243158Y-12267222D02*
X11252682Y-12248174D01*
X11252682Y-12248174D02*
X11271730Y-12238650D01*
X11271730Y-12238650D02*
X11300301Y-12238650D01*
X11300301Y-12238650D02*
X11319349Y-12248174D01*
X11395539Y-12448174D02*
X11405063Y-12438650D01*
X11405063Y-12438650D02*
X11424111Y-12410079D01*
X11424111Y-12410079D02*
X11433634Y-12391031D01*
X11433634Y-12391031D02*
X11443158Y-12362460D01*
X11443158Y-12362460D02*
X11452682Y-12314841D01*
X11452682Y-12314841D02*
X11452682Y-12276746D01*
X11452682Y-12276746D02*
X11443158Y-12229127D01*
X11443158Y-12229127D02*
X11433634Y-12200555D01*
X11433634Y-12200555D02*
X11424111Y-12181508D01*
X11424111Y-12181508D02*
X11405063Y-12152936D01*
X11405063Y-12152936D02*
X11395539Y-12143412D01*
M02*
